%TF.GenerationSoftware,KiCad,Pcbnew,(6.0.0)*%
%TF.CreationDate,2022-11-25T13:22:40+01:00*%
%TF.ProjectId,PCB,5043422e-6b69-4636-9164-5f7063625858,rev?*%
%TF.SameCoordinates,Original*%
%TF.FileFunction,Copper,L2,Bot*%
%TF.FilePolarity,Positive*%
%FSLAX46Y46*%
G04 Gerber Fmt 4.6, Leading zero omitted, Abs format (unit mm)*
G04 Created by KiCad (PCBNEW (6.0.0)) date 2022-11-25 13:22:40*
%MOMM*%
%LPD*%
G01*
G04 APERTURE LIST*
%TA.AperFunction,ComponentPad*%
%ADD10C,0.700000*%
%TD*%
%TA.AperFunction,ComponentPad*%
%ADD11C,4.400000*%
%TD*%
%TA.AperFunction,ViaPad*%
%ADD12C,0.800000*%
%TD*%
%TA.AperFunction,Conductor*%
%ADD13C,0.250000*%
%TD*%
G04 APERTURE END LIST*
D10*
%TO.P,J8,1,Pin_1*%
%TO.N,Net-(J7-Pad1)*%
X174000000Y-32650000D03*
X172350000Y-31000000D03*
X172833274Y-32166726D03*
X175650000Y-31000000D03*
X175166726Y-32166726D03*
D11*
X174000000Y-31000000D03*
D10*
X174000000Y-29350000D03*
X175166726Y-29833274D03*
X172833274Y-29833274D03*
%TD*%
%TO.P,J7,1,Pin_1*%
%TO.N,Net-(J7-Pad1)*%
X172833274Y-35833274D03*
X172833274Y-38166726D03*
D11*
X174000000Y-37000000D03*
D10*
X175650000Y-37000000D03*
X175166726Y-38166726D03*
X174000000Y-35350000D03*
X175166726Y-35833274D03*
X174000000Y-38650000D03*
X172350000Y-37000000D03*
%TD*%
D12*
%TO.N,GND*%
X92500000Y-72500000D03*
X29500000Y-68000000D03*
X152500000Y-71500000D03*
X45500000Y-53224500D03*
X163381250Y-85118750D03*
X44000000Y-44000000D03*
X32500000Y-50000000D03*
X124500000Y-90000000D03*
X41500000Y-85000000D03*
X173500000Y-44500000D03*
X71000000Y-76500000D03*
X53000000Y-70000000D03*
X52500000Y-62500000D03*
X60500000Y-44000000D03*
X51500000Y-57500000D03*
X60000000Y-61000000D03*
X52000000Y-84000000D03*
X113000000Y-85000000D03*
X92500000Y-39000000D03*
X141000000Y-85500000D03*
X139500000Y-73000000D03*
X90500000Y-89500000D03*
X111500000Y-73000000D03*
X77500000Y-83000000D03*
X154500000Y-85000000D03*
X63000000Y-55500000D03*
%TO.N,/UPDI*%
X50626231Y-51373769D03*
X47500000Y-51275500D03*
%TO.N,Net-(U1-Pad9)*%
X68500000Y-67500000D03*
X72000000Y-68500000D03*
%TD*%
D13*
%TO.N,/UPDI*%
X50527962Y-51275500D02*
X47500000Y-51275500D01*
X50626231Y-51373769D02*
X50527962Y-51275500D01*
%TO.N,Net-(U1-Pad9)*%
X68500000Y-67500000D02*
X71000000Y-67500000D01*
X71000000Y-67500000D02*
X72000000Y-68500000D01*
%TD*%
%TA.AperFunction,Conductor*%
%TO.N,GND*%
G36*
X174473737Y-28005820D02*
G01*
X174488538Y-28008125D01*
X174488541Y-28008125D01*
X174497410Y-28009506D01*
X174514579Y-28007261D01*
X174538519Y-28006428D01*
X174796450Y-28022030D01*
X174811554Y-28023864D01*
X174882328Y-28036834D01*
X175092559Y-28075360D01*
X175107321Y-28078998D01*
X175380088Y-28163995D01*
X175394307Y-28169389D01*
X175654820Y-28286636D01*
X175668289Y-28293705D01*
X175912775Y-28441502D01*
X175925297Y-28450145D01*
X176150187Y-28626336D01*
X176161575Y-28636426D01*
X176363574Y-28838425D01*
X176373664Y-28849813D01*
X176549855Y-29074703D01*
X176558498Y-29087225D01*
X176706295Y-29331711D01*
X176713364Y-29345180D01*
X176757381Y-29442981D01*
X176830610Y-29605690D01*
X176836005Y-29619912D01*
X176907346Y-29848852D01*
X176921001Y-29892673D01*
X176924640Y-29907441D01*
X176949091Y-30040863D01*
X176976136Y-30188446D01*
X176977970Y-30203550D01*
X176993135Y-30454249D01*
X176991878Y-30480959D01*
X176991875Y-30481179D01*
X176990494Y-30490050D01*
X176991658Y-30498952D01*
X176991658Y-30498955D01*
X176994616Y-30521571D01*
X176995680Y-30537909D01*
X176995680Y-124454352D01*
X176994180Y-124473736D01*
X176990494Y-124497410D01*
X176992134Y-124509950D01*
X176992739Y-124514577D01*
X176993572Y-124538519D01*
X176977970Y-124796450D01*
X176976136Y-124811554D01*
X176932815Y-125047956D01*
X176924642Y-125092553D01*
X176921002Y-125107321D01*
X176836006Y-125380084D01*
X176830611Y-125394307D01*
X176745013Y-125584500D01*
X176713366Y-125654816D01*
X176706295Y-125668289D01*
X176558498Y-125912775D01*
X176549855Y-125925297D01*
X176373664Y-126150187D01*
X176363574Y-126161575D01*
X176161575Y-126363574D01*
X176150187Y-126373664D01*
X175925297Y-126549855D01*
X175912775Y-126558498D01*
X175668289Y-126706295D01*
X175654820Y-126713364D01*
X175394310Y-126830610D01*
X175380088Y-126836005D01*
X175107321Y-126921002D01*
X175092559Y-126924640D01*
X174882328Y-126963166D01*
X174811554Y-126976136D01*
X174796450Y-126977970D01*
X174545751Y-126993135D01*
X174519041Y-126991878D01*
X174518821Y-126991875D01*
X174509950Y-126990494D01*
X174501048Y-126991658D01*
X174501045Y-126991658D01*
X174478429Y-126994616D01*
X174462091Y-126995680D01*
X30545648Y-126995680D01*
X30526263Y-126994180D01*
X30511462Y-126991875D01*
X30511459Y-126991875D01*
X30502590Y-126990494D01*
X30485421Y-126992739D01*
X30461481Y-126993572D01*
X30203550Y-126977970D01*
X30188446Y-126976136D01*
X30117672Y-126963166D01*
X29907441Y-126924640D01*
X29892679Y-126921002D01*
X29619912Y-126836005D01*
X29605690Y-126830610D01*
X29345180Y-126713364D01*
X29331711Y-126706295D01*
X29087225Y-126558498D01*
X29074703Y-126549855D01*
X28849813Y-126373664D01*
X28838425Y-126363574D01*
X28636426Y-126161575D01*
X28626336Y-126150187D01*
X28450145Y-125925297D01*
X28441502Y-125912775D01*
X28293705Y-125668289D01*
X28286634Y-125654816D01*
X28254988Y-125584500D01*
X28169389Y-125394307D01*
X28163994Y-125380084D01*
X28078998Y-125107321D01*
X28075358Y-125092553D01*
X28067186Y-125047956D01*
X28023864Y-124811554D01*
X28022030Y-124796450D01*
X28006865Y-124545751D01*
X28008122Y-124519041D01*
X28008125Y-124518821D01*
X28009506Y-124509950D01*
X28007867Y-124497410D01*
X28005384Y-124478429D01*
X28004320Y-124462091D01*
X28004320Y-124446781D01*
X101411868Y-124446781D01*
X101421436Y-124653502D01*
X101422840Y-124659327D01*
X101422840Y-124659328D01*
X101457720Y-124804057D01*
X101469921Y-124854685D01*
X101555574Y-125043069D01*
X101675305Y-125211858D01*
X101679628Y-125215996D01*
X101679632Y-125216001D01*
X101759694Y-125292643D01*
X101824792Y-125354961D01*
X101829827Y-125358212D01*
X101993606Y-125463963D01*
X101993609Y-125463964D01*
X101998643Y-125467215D01*
X102190584Y-125544570D01*
X102196465Y-125545718D01*
X102196470Y-125545720D01*
X102389244Y-125583366D01*
X102389247Y-125583366D01*
X102393690Y-125584234D01*
X102399129Y-125584500D01*
X102551704Y-125584500D01*
X102706007Y-125569778D01*
X102711761Y-125568090D01*
X102898827Y-125513211D01*
X102898829Y-125513210D01*
X102904580Y-125511523D01*
X102986257Y-125469457D01*
X103083225Y-125419516D01*
X103083228Y-125419514D01*
X103088556Y-125416770D01*
X103251294Y-125288937D01*
X103386924Y-125132637D01*
X103490552Y-124953510D01*
X103558438Y-124758019D01*
X103572748Y-124659328D01*
X103587271Y-124559159D01*
X103587271Y-124559156D01*
X103588132Y-124553219D01*
X103578564Y-124346498D01*
X103530079Y-124145315D01*
X103444426Y-123956931D01*
X103324695Y-123788142D01*
X103320372Y-123784004D01*
X103320368Y-123783999D01*
X103179538Y-123649184D01*
X103175208Y-123645039D01*
X103075230Y-123580484D01*
X103006394Y-123536037D01*
X103006391Y-123536036D01*
X103001357Y-123532785D01*
X102809416Y-123455430D01*
X102803535Y-123454282D01*
X102803530Y-123454280D01*
X102610756Y-123416634D01*
X102610753Y-123416634D01*
X102606310Y-123415766D01*
X102600871Y-123415500D01*
X102448296Y-123415500D01*
X102293993Y-123430222D01*
X102288239Y-123431910D01*
X102101173Y-123486789D01*
X102101171Y-123486790D01*
X102095420Y-123488477D01*
X102090087Y-123491223D01*
X102090086Y-123491224D01*
X101916775Y-123580484D01*
X101916772Y-123580486D01*
X101911444Y-123583230D01*
X101748706Y-123711063D01*
X101613076Y-123867363D01*
X101509448Y-124046490D01*
X101441562Y-124241981D01*
X101440702Y-124247914D01*
X101440701Y-124247917D01*
X101412729Y-124440841D01*
X101411868Y-124446781D01*
X28004320Y-124446781D01*
X28004320Y-67500000D01*
X67586496Y-67500000D01*
X67606458Y-67689928D01*
X67665473Y-67871556D01*
X67760960Y-68036944D01*
X67888747Y-68178866D01*
X68043248Y-68291118D01*
X68049276Y-68293802D01*
X68049278Y-68293803D01*
X68100560Y-68316635D01*
X68217712Y-68368794D01*
X68311113Y-68388647D01*
X68398056Y-68407128D01*
X68398061Y-68407128D01*
X68404513Y-68408500D01*
X68595487Y-68408500D01*
X68601939Y-68407128D01*
X68601944Y-68407128D01*
X68688887Y-68388647D01*
X68782288Y-68368794D01*
X68899440Y-68316635D01*
X68950722Y-68293803D01*
X68950724Y-68293802D01*
X68956752Y-68291118D01*
X69111253Y-68178866D01*
X69115668Y-68173963D01*
X69120580Y-68169540D01*
X69121705Y-68170789D01*
X69175014Y-68137949D01*
X69208200Y-68133500D01*
X70685406Y-68133500D01*
X70753527Y-68153502D01*
X70774501Y-68170405D01*
X71052878Y-68448782D01*
X71086904Y-68511094D01*
X71089092Y-68524703D01*
X71106458Y-68689928D01*
X71165473Y-68871556D01*
X71260960Y-69036944D01*
X71388747Y-69178866D01*
X71543248Y-69291118D01*
X71549276Y-69293802D01*
X71549278Y-69293803D01*
X71711681Y-69366109D01*
X71717712Y-69368794D01*
X71811113Y-69388647D01*
X71898056Y-69407128D01*
X71898061Y-69407128D01*
X71904513Y-69408500D01*
X72095487Y-69408500D01*
X72101939Y-69407128D01*
X72101944Y-69407128D01*
X72188887Y-69388647D01*
X72282288Y-69368794D01*
X72288319Y-69366109D01*
X72450722Y-69293803D01*
X72450724Y-69293802D01*
X72456752Y-69291118D01*
X72611253Y-69178866D01*
X72739040Y-69036944D01*
X72834527Y-68871556D01*
X72893542Y-68689928D01*
X72913504Y-68500000D01*
X72893542Y-68310072D01*
X72834527Y-68128444D01*
X72739040Y-67963056D01*
X72611253Y-67821134D01*
X72456752Y-67708882D01*
X72450724Y-67706198D01*
X72450722Y-67706197D01*
X72288319Y-67633891D01*
X72288318Y-67633891D01*
X72282288Y-67631206D01*
X72188888Y-67611353D01*
X72101944Y-67592872D01*
X72101939Y-67592872D01*
X72095487Y-67591500D01*
X72039595Y-67591500D01*
X71971474Y-67571498D01*
X71950499Y-67554595D01*
X71503647Y-67107742D01*
X71496113Y-67099463D01*
X71492000Y-67092982D01*
X71442348Y-67046356D01*
X71439507Y-67043602D01*
X71419770Y-67023865D01*
X71416573Y-67021385D01*
X71407551Y-67013680D01*
X71381100Y-66988841D01*
X71375321Y-66983414D01*
X71368375Y-66979595D01*
X71368372Y-66979593D01*
X71357566Y-66973652D01*
X71341047Y-66962801D01*
X71335048Y-66958148D01*
X71325041Y-66950386D01*
X71317772Y-66947241D01*
X71317768Y-66947238D01*
X71284463Y-66932826D01*
X71273813Y-66927609D01*
X71235060Y-66906305D01*
X71215437Y-66901267D01*
X71196734Y-66894863D01*
X71185420Y-66889967D01*
X71185419Y-66889967D01*
X71178145Y-66886819D01*
X71170322Y-66885580D01*
X71170312Y-66885577D01*
X71134476Y-66879901D01*
X71122856Y-66877495D01*
X71087711Y-66868472D01*
X71087710Y-66868472D01*
X71080030Y-66866500D01*
X71059776Y-66866500D01*
X71040065Y-66864949D01*
X71027886Y-66863020D01*
X71020057Y-66861780D01*
X71012165Y-66862526D01*
X70976039Y-66865941D01*
X70964181Y-66866500D01*
X69208200Y-66866500D01*
X69140079Y-66846498D01*
X69120853Y-66830157D01*
X69120580Y-66830460D01*
X69115668Y-66826037D01*
X69111253Y-66821134D01*
X68956752Y-66708882D01*
X68950724Y-66706198D01*
X68950722Y-66706197D01*
X68788319Y-66633891D01*
X68788318Y-66633891D01*
X68782288Y-66631206D01*
X68688887Y-66611353D01*
X68601944Y-66592872D01*
X68601939Y-66592872D01*
X68595487Y-66591500D01*
X68404513Y-66591500D01*
X68398061Y-66592872D01*
X68398056Y-66592872D01*
X68311113Y-66611353D01*
X68217712Y-66631206D01*
X68211682Y-66633891D01*
X68211681Y-66633891D01*
X68049278Y-66706197D01*
X68049276Y-66706198D01*
X68043248Y-66708882D01*
X67888747Y-66821134D01*
X67884326Y-66826044D01*
X67884325Y-66826045D01*
X67775203Y-66947238D01*
X67760960Y-66963056D01*
X67665473Y-67128444D01*
X67606458Y-67310072D01*
X67586496Y-67500000D01*
X28004320Y-67500000D01*
X28004320Y-51275500D01*
X46586496Y-51275500D01*
X46606458Y-51465428D01*
X46665473Y-51647056D01*
X46760960Y-51812444D01*
X46888747Y-51954366D01*
X46987843Y-52026364D01*
X47029347Y-52056518D01*
X47043248Y-52066618D01*
X47049276Y-52069302D01*
X47049278Y-52069303D01*
X47211681Y-52141609D01*
X47217712Y-52144294D01*
X47311113Y-52164147D01*
X47398056Y-52182628D01*
X47398061Y-52182628D01*
X47404513Y-52184000D01*
X47595487Y-52184000D01*
X47601939Y-52182628D01*
X47601944Y-52182628D01*
X47688887Y-52164147D01*
X47782288Y-52144294D01*
X47788319Y-52141609D01*
X47950722Y-52069303D01*
X47950724Y-52069302D01*
X47956752Y-52066618D01*
X47970654Y-52056518D01*
X48089671Y-51970046D01*
X48111253Y-51954366D01*
X48115668Y-51949463D01*
X48120580Y-51945040D01*
X48121705Y-51946289D01*
X48175014Y-51913449D01*
X48208200Y-51909000D01*
X49829550Y-51909000D01*
X49897671Y-51929002D01*
X49923184Y-51950687D01*
X50014978Y-52052635D01*
X50169479Y-52164887D01*
X50175507Y-52167571D01*
X50175509Y-52167572D01*
X50337912Y-52239878D01*
X50343943Y-52242563D01*
X50437344Y-52262416D01*
X50524287Y-52280897D01*
X50524292Y-52280897D01*
X50530744Y-52282269D01*
X50721718Y-52282269D01*
X50728170Y-52280897D01*
X50728175Y-52280897D01*
X50815118Y-52262416D01*
X50908519Y-52242563D01*
X50914550Y-52239878D01*
X51076953Y-52167572D01*
X51076955Y-52167571D01*
X51082983Y-52164887D01*
X51237484Y-52052635D01*
X51241906Y-52047724D01*
X51360852Y-51915621D01*
X51360853Y-51915620D01*
X51365271Y-51910713D01*
X51460758Y-51745325D01*
X51519773Y-51563697D01*
X51539735Y-51373769D01*
X51519773Y-51183841D01*
X51460758Y-51002213D01*
X51365271Y-50836825D01*
X51237484Y-50694903D01*
X51096890Y-50592755D01*
X51088325Y-50586532D01*
X51088324Y-50586531D01*
X51082983Y-50582651D01*
X51076955Y-50579967D01*
X51076953Y-50579966D01*
X50914550Y-50507660D01*
X50914549Y-50507660D01*
X50908519Y-50504975D01*
X50811637Y-50484382D01*
X50728175Y-50466641D01*
X50728170Y-50466641D01*
X50721718Y-50465269D01*
X50530744Y-50465269D01*
X50524292Y-50466641D01*
X50524287Y-50466641D01*
X50440825Y-50484382D01*
X50343943Y-50504975D01*
X50337913Y-50507660D01*
X50337912Y-50507660D01*
X50175509Y-50579966D01*
X50175507Y-50579967D01*
X50169479Y-50582651D01*
X50164138Y-50586531D01*
X50164137Y-50586532D01*
X50120913Y-50617936D01*
X50046852Y-50642000D01*
X48208200Y-50642000D01*
X48140079Y-50621998D01*
X48120853Y-50605657D01*
X48120580Y-50605960D01*
X48115668Y-50601537D01*
X48111253Y-50596634D01*
X48088312Y-50579966D01*
X47962094Y-50488263D01*
X47962093Y-50488262D01*
X47956752Y-50484382D01*
X47950724Y-50481698D01*
X47950722Y-50481697D01*
X47788319Y-50409391D01*
X47788318Y-50409391D01*
X47782288Y-50406706D01*
X47688888Y-50386853D01*
X47601944Y-50368372D01*
X47601939Y-50368372D01*
X47595487Y-50367000D01*
X47404513Y-50367000D01*
X47398061Y-50368372D01*
X47398056Y-50368372D01*
X47311112Y-50386853D01*
X47217712Y-50406706D01*
X47211682Y-50409391D01*
X47211681Y-50409391D01*
X47049278Y-50481697D01*
X47049276Y-50481698D01*
X47043248Y-50484382D01*
X46888747Y-50596634D01*
X46884326Y-50601544D01*
X46884325Y-50601545D01*
X46803762Y-50691020D01*
X46760960Y-50738556D01*
X46665473Y-50903944D01*
X46606458Y-51085572D01*
X46586496Y-51275500D01*
X28004320Y-51275500D01*
X28004320Y-39697064D01*
X29037707Y-39697064D01*
X29066825Y-39889599D01*
X29069028Y-39895585D01*
X29069029Y-39895591D01*
X29131860Y-40066360D01*
X29131862Y-40066365D01*
X29134063Y-40072346D01*
X29236674Y-40237840D01*
X29370466Y-40379322D01*
X29529975Y-40491011D01*
X29535838Y-40493548D01*
X29702825Y-40565810D01*
X29702829Y-40565811D01*
X29708684Y-40568345D01*
X29714931Y-40569650D01*
X29714934Y-40569651D01*
X29894557Y-40607176D01*
X29894562Y-40607177D01*
X29899293Y-40608165D01*
X29905685Y-40608500D01*
X30048663Y-40608500D01*
X30117951Y-40601462D01*
X30187378Y-40594410D01*
X30187379Y-40594410D01*
X30193727Y-40593765D01*
X30274843Y-40568345D01*
X30373451Y-40537444D01*
X30373456Y-40537442D01*
X30379541Y-40535535D01*
X30466475Y-40487346D01*
X30544271Y-40444223D01*
X30544274Y-40444221D01*
X30549850Y-40441130D01*
X30554691Y-40436981D01*
X30554695Y-40436978D01*
X30692855Y-40318560D01*
X30697698Y-40314409D01*
X30817046Y-40160547D01*
X30857779Y-40077768D01*
X30900200Y-39991556D01*
X30903018Y-39985829D01*
X30904628Y-39979649D01*
X30950492Y-39803575D01*
X30950492Y-39803572D01*
X30952102Y-39797393D01*
X30960058Y-39645590D01*
X30961959Y-39609317D01*
X30961959Y-39609313D01*
X30962293Y-39602936D01*
X30933175Y-39410401D01*
X30930972Y-39404415D01*
X30930971Y-39404409D01*
X30868140Y-39233640D01*
X30868138Y-39233635D01*
X30865937Y-39227654D01*
X30763326Y-39062160D01*
X30629534Y-38920678D01*
X30470025Y-38808989D01*
X30422013Y-38788212D01*
X30297175Y-38734190D01*
X30297171Y-38734189D01*
X30291316Y-38731655D01*
X30285069Y-38730350D01*
X30285066Y-38730349D01*
X30105443Y-38692824D01*
X30105438Y-38692823D01*
X30100707Y-38691835D01*
X30094315Y-38691500D01*
X29951337Y-38691500D01*
X29882049Y-38698538D01*
X29812622Y-38705590D01*
X29812621Y-38705590D01*
X29806273Y-38706235D01*
X29749939Y-38723889D01*
X29626549Y-38762556D01*
X29626544Y-38762558D01*
X29620459Y-38764465D01*
X29544713Y-38806452D01*
X29455729Y-38855777D01*
X29455726Y-38855779D01*
X29450150Y-38858870D01*
X29445309Y-38863019D01*
X29445305Y-38863022D01*
X29382311Y-38917015D01*
X29302302Y-38985591D01*
X29298391Y-38990633D01*
X29298390Y-38990634D01*
X29285732Y-39006953D01*
X29182954Y-39139453D01*
X29180138Y-39145176D01*
X29180136Y-39145179D01*
X29123593Y-39260091D01*
X29096982Y-39314171D01*
X29095373Y-39320349D01*
X29095372Y-39320351D01*
X29067953Y-39425616D01*
X29047898Y-39502607D01*
X29045255Y-39553034D01*
X29038149Y-39688634D01*
X29037707Y-39697064D01*
X28004320Y-39697064D01*
X28004320Y-36971585D01*
X171286698Y-36971585D01*
X171302936Y-37297759D01*
X171303577Y-37301490D01*
X171303578Y-37301498D01*
X171318109Y-37386060D01*
X171358241Y-37619619D01*
X171451814Y-37932504D01*
X171582297Y-38231881D01*
X171584220Y-38235152D01*
X171584222Y-38235156D01*
X171626584Y-38307215D01*
X171747802Y-38513414D01*
X171750103Y-38516429D01*
X171943631Y-38770012D01*
X171943636Y-38770017D01*
X171945931Y-38773025D01*
X172007931Y-38836670D01*
X172157917Y-38990634D01*
X172173814Y-39006953D01*
X172246635Y-39065607D01*
X172425196Y-39209431D01*
X172425201Y-39209435D01*
X172428149Y-39211809D01*
X172705253Y-39384627D01*
X173001112Y-39522903D01*
X173004721Y-39524086D01*
X173264716Y-39609317D01*
X173311440Y-39624634D01*
X173631742Y-39688346D01*
X173635514Y-39688633D01*
X173635522Y-39688634D01*
X173953602Y-39712829D01*
X173953607Y-39712829D01*
X173957379Y-39713116D01*
X174283633Y-39698586D01*
X174343425Y-39688634D01*
X174602037Y-39645590D01*
X174602042Y-39645589D01*
X174605778Y-39644967D01*
X174919149Y-39553034D01*
X174922616Y-39551544D01*
X174922620Y-39551543D01*
X175215721Y-39425616D01*
X175215723Y-39425615D01*
X175219205Y-39424119D01*
X175501601Y-39260091D01*
X175762245Y-39063324D01*
X175974334Y-38858870D01*
X175994632Y-38839303D01*
X175994635Y-38839300D01*
X175997363Y-38836670D01*
X176203549Y-38583410D01*
X176377815Y-38307215D01*
X176517638Y-38012084D01*
X176544188Y-37932504D01*
X176619790Y-37705897D01*
X176619792Y-37705891D01*
X176620992Y-37702293D01*
X176686381Y-37382329D01*
X176692956Y-37301498D01*
X176712674Y-37059061D01*
X176712856Y-37056826D01*
X176713451Y-37000000D01*
X176711510Y-36967796D01*
X176694026Y-36677793D01*
X176694026Y-36677789D01*
X176693798Y-36674015D01*
X176688650Y-36645824D01*
X176635805Y-36356473D01*
X176635804Y-36356469D01*
X176635125Y-36352751D01*
X176627722Y-36328907D01*
X176539404Y-36044477D01*
X176538282Y-36040863D01*
X176404670Y-35742869D01*
X176236226Y-35463084D01*
X176233899Y-35460100D01*
X176233894Y-35460093D01*
X176037726Y-35208558D01*
X176037724Y-35208556D01*
X176035390Y-35205563D01*
X175805070Y-34974034D01*
X175548603Y-34771852D01*
X175269705Y-34601945D01*
X175266261Y-34600379D01*
X175266257Y-34600377D01*
X175155667Y-34550095D01*
X174972414Y-34466775D01*
X174661037Y-34368300D01*
X174443492Y-34327390D01*
X174343809Y-34308645D01*
X174343807Y-34308645D01*
X174340086Y-34307945D01*
X174014208Y-34286586D01*
X174010428Y-34286794D01*
X174010427Y-34286794D01*
X173912897Y-34292162D01*
X173688124Y-34304532D01*
X173684397Y-34305193D01*
X173684393Y-34305193D01*
X173527341Y-34333027D01*
X173366557Y-34361522D01*
X173362941Y-34362624D01*
X173362933Y-34362626D01*
X173057789Y-34455627D01*
X173054167Y-34456731D01*
X172755477Y-34588781D01*
X172730041Y-34603914D01*
X172478074Y-34753817D01*
X172478068Y-34753821D01*
X172474814Y-34755757D01*
X172216244Y-34955243D01*
X171983513Y-35184347D01*
X171981149Y-35187314D01*
X171981146Y-35187317D01*
X171964220Y-35208558D01*
X171779991Y-35439751D01*
X171608626Y-35717757D01*
X171471902Y-36014336D01*
X171470741Y-36017940D01*
X171470741Y-36017941D01*
X171462196Y-36044477D01*
X171371797Y-36325192D01*
X171371079Y-36328903D01*
X171371078Y-36328907D01*
X171310482Y-36642105D01*
X171310481Y-36642114D01*
X171309763Y-36645824D01*
X171286698Y-36971585D01*
X28004320Y-36971585D01*
X28004320Y-32897064D01*
X29037707Y-32897064D01*
X29066825Y-33089599D01*
X29069028Y-33095585D01*
X29069029Y-33095591D01*
X29131860Y-33266360D01*
X29131862Y-33266365D01*
X29134063Y-33272346D01*
X29137425Y-33277768D01*
X29228167Y-33424119D01*
X29236674Y-33437840D01*
X29241055Y-33442473D01*
X29241056Y-33442474D01*
X29318232Y-33524086D01*
X29370466Y-33579322D01*
X29529975Y-33691011D01*
X29577987Y-33711788D01*
X29702825Y-33765810D01*
X29702829Y-33765811D01*
X29708684Y-33768345D01*
X29714931Y-33769650D01*
X29714934Y-33769651D01*
X29894557Y-33807176D01*
X29894562Y-33807177D01*
X29899293Y-33808165D01*
X29905685Y-33808500D01*
X30048663Y-33808500D01*
X30117951Y-33801462D01*
X30187378Y-33794410D01*
X30187379Y-33794410D01*
X30193727Y-33793765D01*
X30274843Y-33768345D01*
X30373451Y-33737444D01*
X30373456Y-33737442D01*
X30379541Y-33735535D01*
X30466475Y-33687346D01*
X30544271Y-33644223D01*
X30544274Y-33644221D01*
X30549850Y-33641130D01*
X30554691Y-33636981D01*
X30554695Y-33636978D01*
X30692855Y-33518560D01*
X30697698Y-33514409D01*
X30817046Y-33360547D01*
X30857779Y-33277768D01*
X30900200Y-33191556D01*
X30903018Y-33185829D01*
X30904628Y-33179649D01*
X30950492Y-33003575D01*
X30950492Y-33003572D01*
X30952102Y-32997393D01*
X30962293Y-32802936D01*
X30933175Y-32610401D01*
X30930972Y-32604415D01*
X30930971Y-32604409D01*
X30868140Y-32433640D01*
X30868138Y-32433635D01*
X30865937Y-32427654D01*
X30763326Y-32262160D01*
X30629534Y-32120678D01*
X30470025Y-32008989D01*
X30422013Y-31988212D01*
X30297175Y-31934190D01*
X30297171Y-31934189D01*
X30291316Y-31931655D01*
X30285069Y-31930350D01*
X30285066Y-31930349D01*
X30105443Y-31892824D01*
X30105438Y-31892823D01*
X30100707Y-31891835D01*
X30094315Y-31891500D01*
X29951337Y-31891500D01*
X29882049Y-31898538D01*
X29812622Y-31905590D01*
X29812621Y-31905590D01*
X29806273Y-31906235D01*
X29749939Y-31923889D01*
X29626549Y-31962556D01*
X29626544Y-31962558D01*
X29620459Y-31964465D01*
X29544713Y-32006452D01*
X29455729Y-32055777D01*
X29455726Y-32055779D01*
X29450150Y-32058870D01*
X29445309Y-32063019D01*
X29445305Y-32063022D01*
X29382311Y-32117015D01*
X29302302Y-32185591D01*
X29182954Y-32339453D01*
X29180138Y-32345176D01*
X29180136Y-32345179D01*
X29136608Y-32433640D01*
X29096982Y-32514171D01*
X29095373Y-32520349D01*
X29095372Y-32520351D01*
X29073477Y-32604409D01*
X29047898Y-32702607D01*
X29044208Y-32773025D01*
X29041027Y-32833723D01*
X29037707Y-32897064D01*
X28004320Y-32897064D01*
X28004320Y-30971585D01*
X171286698Y-30971585D01*
X171302936Y-31297759D01*
X171303577Y-31301490D01*
X171303578Y-31301498D01*
X171318109Y-31386060D01*
X171358241Y-31619619D01*
X171359329Y-31623258D01*
X171359330Y-31623261D01*
X171444529Y-31908144D01*
X171451814Y-31932504D01*
X171582297Y-32231881D01*
X171584220Y-32235152D01*
X171584222Y-32235156D01*
X171626584Y-32307215D01*
X171747802Y-32513414D01*
X171750103Y-32516429D01*
X171943631Y-32770012D01*
X171943636Y-32770017D01*
X171945931Y-32773025D01*
X172007931Y-32836670D01*
X172060549Y-32890683D01*
X172173814Y-33006953D01*
X172246635Y-33065607D01*
X172425196Y-33209431D01*
X172425201Y-33209435D01*
X172428149Y-33211809D01*
X172705253Y-33384627D01*
X173001112Y-33522903D01*
X173311440Y-33624634D01*
X173631742Y-33688346D01*
X173635514Y-33688633D01*
X173635522Y-33688634D01*
X173953602Y-33712829D01*
X173953607Y-33712829D01*
X173957379Y-33713116D01*
X174283633Y-33698586D01*
X174289844Y-33697552D01*
X174602037Y-33645590D01*
X174602042Y-33645589D01*
X174605778Y-33644967D01*
X174919149Y-33553034D01*
X174922616Y-33551544D01*
X174922620Y-33551543D01*
X175215721Y-33425616D01*
X175215723Y-33425615D01*
X175219205Y-33424119D01*
X175501601Y-33260091D01*
X175762245Y-33063324D01*
X175997363Y-32836670D01*
X176111540Y-32696425D01*
X176201155Y-32586351D01*
X176201158Y-32586347D01*
X176203549Y-32583410D01*
X176353862Y-32345179D01*
X176375788Y-32310428D01*
X176375790Y-32310425D01*
X176377815Y-32307215D01*
X176517638Y-32012084D01*
X176543028Y-31935981D01*
X176619790Y-31705897D01*
X176619792Y-31705891D01*
X176620992Y-31702293D01*
X176686381Y-31382329D01*
X176692956Y-31301498D01*
X176712674Y-31059061D01*
X176712856Y-31056826D01*
X176713451Y-31000000D01*
X176711510Y-30967796D01*
X176694026Y-30677793D01*
X176694026Y-30677789D01*
X176693798Y-30674015D01*
X176688650Y-30645824D01*
X176635805Y-30356473D01*
X176635804Y-30356469D01*
X176635125Y-30352751D01*
X176627722Y-30328907D01*
X176539404Y-30044477D01*
X176538282Y-30040863D01*
X176404670Y-29742869D01*
X176236226Y-29463084D01*
X176233899Y-29460100D01*
X176233894Y-29460093D01*
X176037726Y-29208558D01*
X176037724Y-29208556D01*
X176035390Y-29205563D01*
X175805070Y-28974034D01*
X175548603Y-28771852D01*
X175269705Y-28601945D01*
X175266261Y-28600379D01*
X175266257Y-28600377D01*
X175112664Y-28530543D01*
X174972414Y-28466775D01*
X174661037Y-28368300D01*
X174443492Y-28327390D01*
X174343809Y-28308645D01*
X174343807Y-28308645D01*
X174340086Y-28307945D01*
X174014208Y-28286586D01*
X174010428Y-28286794D01*
X174010427Y-28286794D01*
X173912897Y-28292162D01*
X173688124Y-28304532D01*
X173684397Y-28305193D01*
X173684393Y-28305193D01*
X173527340Y-28333027D01*
X173366557Y-28361522D01*
X173362941Y-28362624D01*
X173362933Y-28362626D01*
X173057789Y-28455627D01*
X173054167Y-28456731D01*
X172755477Y-28588781D01*
X172684459Y-28631032D01*
X172478074Y-28753817D01*
X172478068Y-28753821D01*
X172474814Y-28755757D01*
X172471812Y-28758073D01*
X172323419Y-28872558D01*
X172216244Y-28955243D01*
X172117795Y-29052158D01*
X172017238Y-29151148D01*
X171983513Y-29184347D01*
X171981149Y-29187314D01*
X171981146Y-29187317D01*
X171782356Y-29436783D01*
X171779991Y-29439751D01*
X171608626Y-29717757D01*
X171471902Y-30014336D01*
X171470741Y-30017940D01*
X171470741Y-30017941D01*
X171462649Y-30043069D01*
X171371797Y-30325192D01*
X171371079Y-30328903D01*
X171371078Y-30328907D01*
X171310482Y-30642105D01*
X171310481Y-30642114D01*
X171309763Y-30645824D01*
X171286698Y-30971585D01*
X28004320Y-30971585D01*
X28004320Y-30545648D01*
X28005820Y-30526263D01*
X28008125Y-30511462D01*
X28008125Y-30511459D01*
X28009506Y-30502590D01*
X28007261Y-30485421D01*
X28006428Y-30461481D01*
X28022030Y-30203550D01*
X28023864Y-30188446D01*
X28050909Y-30040863D01*
X28075360Y-29907441D01*
X28078999Y-29892673D01*
X28092655Y-29848852D01*
X28163995Y-29619912D01*
X28169390Y-29605690D01*
X28240909Y-29446781D01*
X28911868Y-29446781D01*
X28921436Y-29653502D01*
X28922840Y-29659327D01*
X28922840Y-29659328D01*
X28947990Y-29763683D01*
X28969921Y-29854685D01*
X29055574Y-30043069D01*
X29175305Y-30211858D01*
X29179628Y-30215996D01*
X29179632Y-30216001D01*
X29318711Y-30349140D01*
X29324792Y-30354961D01*
X29329827Y-30358212D01*
X29493606Y-30463963D01*
X29493609Y-30463964D01*
X29498643Y-30467215D01*
X29504206Y-30469457D01*
X29544674Y-30485766D01*
X29690584Y-30544570D01*
X29696465Y-30545718D01*
X29696470Y-30545720D01*
X29889244Y-30583366D01*
X29889247Y-30583366D01*
X29893690Y-30584234D01*
X29899129Y-30584500D01*
X30051704Y-30584500D01*
X30206007Y-30569778D01*
X30211761Y-30568090D01*
X30398827Y-30513211D01*
X30398829Y-30513210D01*
X30404580Y-30511523D01*
X30458445Y-30483781D01*
X30583225Y-30419516D01*
X30583228Y-30419514D01*
X30588556Y-30416770D01*
X30751294Y-30288937D01*
X30886924Y-30132637D01*
X30990552Y-29953510D01*
X31058438Y-29758019D01*
X31072748Y-29659328D01*
X31087271Y-29559159D01*
X31087271Y-29559156D01*
X31088132Y-29553219D01*
X31083206Y-29446781D01*
X168911868Y-29446781D01*
X168921436Y-29653502D01*
X168922840Y-29659327D01*
X168922840Y-29659328D01*
X168947990Y-29763683D01*
X168969921Y-29854685D01*
X169055574Y-30043069D01*
X169175305Y-30211858D01*
X169179628Y-30215996D01*
X169179632Y-30216001D01*
X169318711Y-30349140D01*
X169324792Y-30354961D01*
X169329827Y-30358212D01*
X169493606Y-30463963D01*
X169493609Y-30463964D01*
X169498643Y-30467215D01*
X169504206Y-30469457D01*
X169544674Y-30485766D01*
X169690584Y-30544570D01*
X169696465Y-30545718D01*
X169696470Y-30545720D01*
X169889244Y-30583366D01*
X169889247Y-30583366D01*
X169893690Y-30584234D01*
X169899129Y-30584500D01*
X170051704Y-30584500D01*
X170206007Y-30569778D01*
X170211761Y-30568090D01*
X170398827Y-30513211D01*
X170398829Y-30513210D01*
X170404580Y-30511523D01*
X170458445Y-30483781D01*
X170583225Y-30419516D01*
X170583228Y-30419514D01*
X170588556Y-30416770D01*
X170751294Y-30288937D01*
X170886924Y-30132637D01*
X170990552Y-29953510D01*
X171058438Y-29758019D01*
X171072748Y-29659328D01*
X171087271Y-29559159D01*
X171087271Y-29559156D01*
X171088132Y-29553219D01*
X171078564Y-29346498D01*
X171043949Y-29202868D01*
X171031485Y-29151148D01*
X171031484Y-29151146D01*
X171030079Y-29145315D01*
X170944426Y-28956931D01*
X170824695Y-28788142D01*
X170820372Y-28784004D01*
X170820368Y-28783999D01*
X170679538Y-28649184D01*
X170675208Y-28645039D01*
X170520320Y-28545029D01*
X170506394Y-28536037D01*
X170506391Y-28536036D01*
X170501357Y-28532785D01*
X170309416Y-28455430D01*
X170303535Y-28454282D01*
X170303530Y-28454280D01*
X170110756Y-28416634D01*
X170110753Y-28416634D01*
X170106310Y-28415766D01*
X170100871Y-28415500D01*
X169948296Y-28415500D01*
X169793993Y-28430222D01*
X169788239Y-28431910D01*
X169601173Y-28486789D01*
X169601171Y-28486790D01*
X169595420Y-28488477D01*
X169590087Y-28491223D01*
X169590086Y-28491224D01*
X169416775Y-28580484D01*
X169416772Y-28580486D01*
X169411444Y-28583230D01*
X169248706Y-28711063D01*
X169244775Y-28715593D01*
X169244774Y-28715594D01*
X169207913Y-28758073D01*
X169113076Y-28867363D01*
X169009448Y-29046490D01*
X168941562Y-29241981D01*
X168940702Y-29247914D01*
X168940701Y-29247917D01*
X168912887Y-29439751D01*
X168911868Y-29446781D01*
X31083206Y-29446781D01*
X31078564Y-29346498D01*
X31043949Y-29202868D01*
X31031485Y-29151148D01*
X31031484Y-29151146D01*
X31030079Y-29145315D01*
X30944426Y-28956931D01*
X30824695Y-28788142D01*
X30820372Y-28784004D01*
X30820368Y-28783999D01*
X30679538Y-28649184D01*
X30675208Y-28645039D01*
X30520320Y-28545029D01*
X30506394Y-28536037D01*
X30506391Y-28536036D01*
X30501357Y-28532785D01*
X30309416Y-28455430D01*
X30303535Y-28454282D01*
X30303530Y-28454280D01*
X30110756Y-28416634D01*
X30110753Y-28416634D01*
X30106310Y-28415766D01*
X30100871Y-28415500D01*
X29948296Y-28415500D01*
X29793993Y-28430222D01*
X29788239Y-28431910D01*
X29601173Y-28486789D01*
X29601171Y-28486790D01*
X29595420Y-28488477D01*
X29590087Y-28491223D01*
X29590086Y-28491224D01*
X29416775Y-28580484D01*
X29416772Y-28580486D01*
X29411444Y-28583230D01*
X29248706Y-28711063D01*
X29244775Y-28715593D01*
X29244774Y-28715594D01*
X29207913Y-28758073D01*
X29113076Y-28867363D01*
X29009448Y-29046490D01*
X28941562Y-29241981D01*
X28940702Y-29247914D01*
X28940701Y-29247917D01*
X28912887Y-29439751D01*
X28911868Y-29446781D01*
X28240909Y-29446781D01*
X28242619Y-29442981D01*
X28286636Y-29345180D01*
X28293705Y-29331711D01*
X28441502Y-29087225D01*
X28450145Y-29074703D01*
X28626336Y-28849813D01*
X28636426Y-28838425D01*
X28838425Y-28636426D01*
X28849813Y-28626336D01*
X29074703Y-28450145D01*
X29087225Y-28441502D01*
X29331711Y-28293705D01*
X29345180Y-28286636D01*
X29605693Y-28169389D01*
X29619912Y-28163995D01*
X29892679Y-28078998D01*
X29907441Y-28075360D01*
X30117672Y-28036834D01*
X30188446Y-28023864D01*
X30203550Y-28022030D01*
X30454249Y-28006865D01*
X30480959Y-28008122D01*
X30481179Y-28008125D01*
X30490050Y-28009506D01*
X30498952Y-28008342D01*
X30498955Y-28008342D01*
X30521571Y-28005384D01*
X30537909Y-28004320D01*
X174454352Y-28004320D01*
X174473737Y-28005820D01*
G37*
%TD.AperFunction*%
%TD*%
M02*
