%TF.GenerationSoftware,KiCad,Pcbnew,(6.0.0)*%
%TF.CreationDate,2022-11-24T19:04:50+01:00*%
%TF.ProjectId,PCB,5043422e-6b69-4636-9164-5f7063625858,rev?*%
%TF.SameCoordinates,Original*%
%TF.FileFunction,Paste,Top*%
%TF.FilePolarity,Positive*%
%FSLAX46Y46*%
G04 Gerber Fmt 4.6, Leading zero omitted, Abs format (unit mm)*
G04 Created by KiCad (PCBNEW (6.0.0)) date 2022-11-24 19:04:50*
%MOMM*%
%LPD*%
G01*
G04 APERTURE LIST*
G04 Aperture macros list*
%AMRoundRect*
0 Rectangle with rounded corners*
0 $1 Rounding radius*
0 $2 $3 $4 $5 $6 $7 $8 $9 X,Y pos of 4 corners*
0 Add a 4 corners polygon primitive as box body*
4,1,4,$2,$3,$4,$5,$6,$7,$8,$9,$2,$3,0*
0 Add four circle primitives for the rounded corners*
1,1,$1+$1,$2,$3*
1,1,$1+$1,$4,$5*
1,1,$1+$1,$6,$7*
1,1,$1+$1,$8,$9*
0 Add four rect primitives between the rounded corners*
20,1,$1+$1,$2,$3,$4,$5,0*
20,1,$1+$1,$4,$5,$6,$7,0*
20,1,$1+$1,$6,$7,$8,$9,0*
20,1,$1+$1,$8,$9,$2,$3,0*%
%AMFreePoly0*
4,1,8,2.000000,-7.000000,5.000000,-10.000000,7.000000,-10.000000,7.000000,-25.000000,-2.000000,-25.000000,-2.000000,1.000000,2.000000,1.000000,2.000000,-7.000000,2.000000,-7.000000,$1*%
%AMFreePoly1*
4,1,7,4.500000,-10.000000,2.000000,-12.500000,-2.000000,-12.500000,-4.500000,-10.000000,-4.500000,1.500000,4.500000,1.500000,4.500000,-10.000000,4.500000,-10.000000,$1*%
%AMFreePoly2*
4,1,8,2.500000,0.000000,4.500000,0.000000,4.500000,-15.000000,-4.500000,-15.000000,-4.500000,0.000000,-2.500000,0.000000,0.000000,2.500000,2.500000,0.000000,2.500000,0.000000,$1*%
%AMFreePoly3*
4,1,8,2.000000,-25.000000,-7.000000,-25.000000,-7.000000,-10.000000,-5.000000,-10.000000,-2.000000,-7.000000,-2.000000,1.000000,2.000000,1.000000,2.000000,-25.000000,2.000000,-25.000000,$1*%
%AMFreePoly4*
4,1,8,2.000000,-24.500000,-7.000000,-24.500000,-7.000000,-9.500000,-5.000000,-9.500000,-2.000000,-6.500000,-2.000000,1.500000,2.000000,1.500000,2.000000,-24.500000,2.000000,-24.500000,$1*%
G04 Aperture macros list end*
%ADD10RoundRect,0.218750X-0.218750X-0.256250X0.218750X-0.256250X0.218750X0.256250X-0.218750X0.256250X0*%
%ADD11RoundRect,0.200000X-0.200000X-0.275000X0.200000X-0.275000X0.200000X0.275000X-0.200000X0.275000X0*%
%ADD12RoundRect,0.625000X-0.625000X-1.925000X0.625000X-1.925000X0.625000X1.925000X-0.625000X1.925000X0*%
%ADD13C,17.800000*%
%ADD14RoundRect,0.075000X-0.662500X-0.075000X0.662500X-0.075000X0.662500X0.075000X-0.662500X0.075000X0*%
%ADD15RoundRect,0.075000X-0.075000X-0.662500X0.075000X-0.662500X0.075000X0.662500X-0.075000X0.662500X0*%
%ADD16R,1.550000X1.300000*%
%ADD17RoundRect,0.225000X-0.225000X-0.250000X0.225000X-0.250000X0.225000X0.250000X-0.225000X0.250000X0*%
%ADD18RoundRect,0.200000X0.275000X-0.200000X0.275000X0.200000X-0.275000X0.200000X-0.275000X-0.200000X0*%
%ADD19FreePoly0,0.000000*%
%ADD20FreePoly1,0.000000*%
%ADD21FreePoly2,0.000000*%
%ADD22FreePoly3,0.000000*%
%ADD23R,2.500000X1.250000*%
%ADD24FreePoly4,0.000000*%
%ADD25R,0.533400X1.701800*%
%ADD26RoundRect,0.150000X-1.100000X1.100000X-1.100000X-1.100000X1.100000X-1.100000X1.100000X1.100000X0*%
G04 APERTURE END LIST*
D10*
%TO.C,D5*%
X56712500Y-88400000D03*
X58287500Y-88400000D03*
%TD*%
D11*
%TO.C,R23*%
X161675000Y-80350000D03*
X163325000Y-80350000D03*
%TD*%
%TO.C,R13*%
X106675000Y-86850000D03*
X108325000Y-86850000D03*
%TD*%
D10*
%TO.C,D18*%
X136712500Y-88450000D03*
X138287500Y-88450000D03*
%TD*%
%TO.C,D21*%
X151712500Y-82050000D03*
X153287500Y-82050000D03*
%TD*%
D11*
%TO.C,R22*%
X156675000Y-86750000D03*
X158325000Y-86750000D03*
%TD*%
%TO.C,R9*%
X81675000Y-80350000D03*
X83325000Y-80350000D03*
%TD*%
D10*
%TO.C,D11*%
X91712500Y-82050000D03*
X93287500Y-82050000D03*
%TD*%
D12*
%TO.C,BT1*%
X64000000Y-38000000D03*
X41000000Y-38000000D03*
D13*
X52500000Y-38000000D03*
%TD*%
D10*
%TO.C,D17*%
X126712500Y-88450000D03*
X128287500Y-88450000D03*
%TD*%
%TO.C,D24*%
X166712500Y-88450000D03*
X168287500Y-88450000D03*
%TD*%
D11*
%TO.C,R19*%
X141675000Y-80350000D03*
X143325000Y-80350000D03*
%TD*%
D10*
%TO.C,D20*%
X146712500Y-88450000D03*
X148287500Y-88450000D03*
%TD*%
D11*
%TO.C,R11*%
X91675000Y-80350000D03*
X93325000Y-80350000D03*
%TD*%
D10*
%TO.C,D19*%
X141712500Y-82050000D03*
X143287500Y-82050000D03*
%TD*%
D14*
%TO.C,U2*%
X48337500Y-57250000D03*
X48337500Y-57750000D03*
X48337500Y-58250000D03*
X48337500Y-58750000D03*
X48337500Y-59250000D03*
X48337500Y-59750000D03*
X48337500Y-60250000D03*
X48337500Y-60750000D03*
X48337500Y-61250000D03*
X48337500Y-61750000D03*
X48337500Y-62250000D03*
X48337500Y-62750000D03*
D15*
X49750000Y-64162500D03*
X50250000Y-64162500D03*
X50750000Y-64162500D03*
X51250000Y-64162500D03*
X51750000Y-64162500D03*
X52250000Y-64162500D03*
X52750000Y-64162500D03*
X53250000Y-64162500D03*
X53750000Y-64162500D03*
X54250000Y-64162500D03*
X54750000Y-64162500D03*
X55250000Y-64162500D03*
D14*
X56662500Y-62750000D03*
X56662500Y-62250000D03*
X56662500Y-61750000D03*
X56662500Y-61250000D03*
X56662500Y-60750000D03*
X56662500Y-60250000D03*
X56662500Y-59750000D03*
X56662500Y-59250000D03*
X56662500Y-58750000D03*
X56662500Y-58250000D03*
X56662500Y-57750000D03*
X56662500Y-57250000D03*
D15*
X55250000Y-55837500D03*
X54750000Y-55837500D03*
X54250000Y-55837500D03*
X53750000Y-55837500D03*
X53250000Y-55837500D03*
X52750000Y-55837500D03*
X52250000Y-55837500D03*
X51750000Y-55837500D03*
X51250000Y-55837500D03*
X50750000Y-55837500D03*
X50250000Y-55837500D03*
X49750000Y-55837500D03*
%TD*%
D11*
%TO.C,R24*%
X166675000Y-86750000D03*
X168325000Y-86750000D03*
%TD*%
D16*
%TO.C,SW2*%
X98475000Y-32250000D03*
X90525000Y-32250000D03*
X98475000Y-36750000D03*
X90525000Y-36750000D03*
%TD*%
D17*
%TO.C,C3*%
X42725000Y-55500000D03*
X44275000Y-55500000D03*
%TD*%
D10*
%TO.C,D23*%
X161712500Y-82050000D03*
X163287500Y-82050000D03*
%TD*%
D18*
%TO.C,R25*%
X174000000Y-42325000D03*
X174000000Y-40675000D03*
%TD*%
D11*
%TO.C,R21*%
X151675000Y-80350000D03*
X153325000Y-80350000D03*
%TD*%
D17*
%TO.C,C2*%
X59725000Y-55500000D03*
X61275000Y-55500000D03*
%TD*%
D11*
%TO.C,R5*%
X56675000Y-86750000D03*
X58325000Y-86750000D03*
%TD*%
D17*
%TO.C,C5*%
X93725000Y-71500000D03*
X95275000Y-71500000D03*
%TD*%
D10*
%TO.C,D2*%
X41712500Y-82050000D03*
X43287500Y-82050000D03*
%TD*%
D19*
%TO.C,J6*%
X135000000Y-97000000D03*
D20*
X142500000Y-93500000D03*
D21*
X147500000Y-107000000D03*
D20*
X152500000Y-93500000D03*
D21*
X157500000Y-107000000D03*
D20*
X162500000Y-93500000D03*
D22*
X170000000Y-97000000D03*
%TD*%
D23*
%TO.C,SW1*%
X32750000Y-33750000D03*
X32750000Y-36250000D03*
X32750000Y-38750000D03*
%TD*%
D10*
%TO.C,D9*%
X81712500Y-82050000D03*
X83287500Y-82050000D03*
%TD*%
%TO.C,D10*%
X86712500Y-88450000D03*
X88287500Y-88450000D03*
%TD*%
D11*
%TO.C,R20*%
X146675000Y-86750000D03*
X148325000Y-86750000D03*
%TD*%
%TO.C,R16*%
X121675000Y-80350000D03*
X123325000Y-80350000D03*
%TD*%
D10*
%TO.C,D22*%
X156712500Y-88450000D03*
X158287500Y-88450000D03*
%TD*%
D20*
%TO.C,J5*%
X112500000Y-93500000D03*
D21*
X117500000Y-107000000D03*
D20*
X122500000Y-93500000D03*
D24*
X130000000Y-97500000D03*
%TD*%
D11*
%TO.C,R6*%
X66675000Y-86750000D03*
X68325000Y-86750000D03*
%TD*%
D10*
%TO.C,D6*%
X66712500Y-88400000D03*
X68287500Y-88400000D03*
%TD*%
D11*
%TO.C,R3*%
X46675000Y-86750000D03*
X48325000Y-86750000D03*
%TD*%
D10*
%TO.C,D15*%
X116712500Y-88450000D03*
X118287500Y-88450000D03*
%TD*%
%TO.C,D13*%
X106712500Y-88550000D03*
X108287500Y-88550000D03*
%TD*%
D19*
%TO.C,J4*%
X65000000Y-97000000D03*
D20*
X72500000Y-93500000D03*
D21*
X77500000Y-107000000D03*
D20*
X82500000Y-93500000D03*
D21*
X87500000Y-107000000D03*
D20*
X92500000Y-93500000D03*
D22*
X100000000Y-97000000D03*
%TD*%
D11*
%TO.C,R2*%
X41675000Y-80350000D03*
X43325000Y-80350000D03*
%TD*%
D10*
%TO.C,D16*%
X121712500Y-82050000D03*
X123287500Y-82050000D03*
%TD*%
D11*
%TO.C,R10*%
X86662500Y-86750000D03*
X88312500Y-86750000D03*
%TD*%
%TO.C,R4*%
X51675000Y-80350000D03*
X53325000Y-80350000D03*
%TD*%
D10*
%TO.C,D14*%
X111712500Y-82050000D03*
X113287500Y-82050000D03*
%TD*%
D20*
%TO.C,J3*%
X42500000Y-93500000D03*
D21*
X47500000Y-107000000D03*
D20*
X52500000Y-93500000D03*
D24*
X60000000Y-97500000D03*
%TD*%
D25*
%TO.C,U1*%
X58455000Y-74090800D03*
X59725000Y-74090800D03*
X60995000Y-74090800D03*
X62265000Y-74090800D03*
X63535000Y-74090800D03*
X64805000Y-74090800D03*
X66075000Y-74090800D03*
X67345000Y-74090800D03*
X67345000Y-68909200D03*
X66075000Y-68909200D03*
X64805000Y-68909200D03*
X63535000Y-68909200D03*
X62265000Y-68909200D03*
X60995000Y-68909200D03*
X59725000Y-68909200D03*
X58455000Y-68909200D03*
%TD*%
D11*
%TO.C,R7*%
X71675000Y-80350000D03*
X73325000Y-80350000D03*
%TD*%
%TO.C,R17*%
X126675000Y-86750000D03*
X128325000Y-86750000D03*
%TD*%
%TO.C,R15*%
X116675000Y-86750000D03*
X118325000Y-86750000D03*
%TD*%
D10*
%TO.C,D1*%
X36712500Y-88400000D03*
X38287500Y-88400000D03*
%TD*%
D17*
%TO.C,C4*%
X47225000Y-66500000D03*
X48775000Y-66500000D03*
%TD*%
D11*
%TO.C,R12*%
X96675000Y-86800000D03*
X98325000Y-86800000D03*
%TD*%
D10*
%TO.C,D4*%
X51712500Y-82050000D03*
X53287500Y-82050000D03*
%TD*%
D11*
%TO.C,R18*%
X136675000Y-86750000D03*
X138325000Y-86750000D03*
%TD*%
D17*
%TO.C,C1*%
X54225000Y-71500000D03*
X55775000Y-71500000D03*
%TD*%
D10*
%TO.C,D3*%
X46712500Y-88400000D03*
X48287500Y-88400000D03*
%TD*%
%TO.C,D8*%
X76712500Y-88400000D03*
X78287500Y-88400000D03*
%TD*%
D26*
%TO.C,BZ1*%
X32500000Y-54000000D03*
X32500000Y-67000000D03*
%TD*%
D11*
%TO.C,R1*%
X36675000Y-86750000D03*
X38325000Y-86750000D03*
%TD*%
D10*
%TO.C,D7*%
X71712500Y-82050000D03*
X73287500Y-82050000D03*
%TD*%
D25*
%TO.C,U3*%
X98055000Y-74140800D03*
X99325000Y-74140800D03*
X100595000Y-74140800D03*
X101865000Y-74140800D03*
X103135000Y-74140800D03*
X104405000Y-74140800D03*
X105675000Y-74140800D03*
X106945000Y-74140800D03*
X106945000Y-68959200D03*
X105675000Y-68959200D03*
X104405000Y-68959200D03*
X103135000Y-68959200D03*
X101865000Y-68959200D03*
X100595000Y-68959200D03*
X99325000Y-68959200D03*
X98055000Y-68959200D03*
%TD*%
%TO.C,U4*%
X143655000Y-73940800D03*
X144925000Y-73940800D03*
X146195000Y-73940800D03*
X147465000Y-73940800D03*
X148735000Y-73940800D03*
X150005000Y-73940800D03*
X151275000Y-73940800D03*
X152545000Y-73940800D03*
X152545000Y-68759200D03*
X151275000Y-68759200D03*
X150005000Y-68759200D03*
X148735000Y-68759200D03*
X147465000Y-68759200D03*
X146195000Y-68759200D03*
X144925000Y-68759200D03*
X143655000Y-68759200D03*
%TD*%
D17*
%TO.C,C6*%
X139225000Y-71500000D03*
X140775000Y-71500000D03*
%TD*%
D11*
%TO.C,R8*%
X76675000Y-86750000D03*
X78325000Y-86750000D03*
%TD*%
D10*
%TO.C,D12*%
X96712500Y-88500000D03*
X98287500Y-88500000D03*
%TD*%
D11*
%TO.C,R14*%
X111675000Y-80350000D03*
X113325000Y-80350000D03*
%TD*%
M02*
