%TF.GenerationSoftware,KiCad,Pcbnew,(6.0.0)*%
%TF.CreationDate,2022-11-25T13:40:52+01:00*%
%TF.ProjectId,PCB,5043422e-6b69-4636-9164-5f7063625858,rev?*%
%TF.SameCoordinates,Original*%
%TF.FileFunction,Legend,Top*%
%TF.FilePolarity,Positive*%
%FSLAX46Y46*%
G04 Gerber Fmt 4.6, Leading zero omitted, Abs format (unit mm)*
G04 Created by KiCad (PCBNEW (6.0.0)) date 2022-11-25 13:40:52*
%MOMM*%
%LPD*%
G01*
G04 APERTURE LIST*
G04 Aperture macros list*
%AMRoundRect*
0 Rectangle with rounded corners*
0 $1 Rounding radius*
0 $2 $3 $4 $5 $6 $7 $8 $9 X,Y pos of 4 corners*
0 Add a 4 corners polygon primitive as box body*
4,1,4,$2,$3,$4,$5,$6,$7,$8,$9,$2,$3,0*
0 Add four circle primitives for the rounded corners*
1,1,$1+$1,$2,$3*
1,1,$1+$1,$4,$5*
1,1,$1+$1,$6,$7*
1,1,$1+$1,$8,$9*
0 Add four rect primitives between the rounded corners*
20,1,$1+$1,$2,$3,$4,$5,0*
20,1,$1+$1,$4,$5,$6,$7,0*
20,1,$1+$1,$6,$7,$8,$9,0*
20,1,$1+$1,$8,$9,$2,$3,0*%
%AMFreePoly0*
4,1,8,2.000000,-7.000000,5.000000,-10.000000,7.000000,-10.000000,7.000000,-25.000000,-2.000000,-25.000000,-2.000000,1.000000,2.000000,1.000000,2.000000,-7.000000,2.000000,-7.000000,$1*%
%AMFreePoly1*
4,1,7,4.500000,-10.000000,2.000000,-12.500000,-2.000000,-12.500000,-4.500000,-10.000000,-4.500000,1.500000,4.500000,1.500000,4.500000,-10.000000,4.500000,-10.000000,$1*%
%AMFreePoly2*
4,1,8,2.500000,0.000000,4.500000,0.000000,4.500000,-15.000000,-4.500000,-15.000000,-4.500000,0.000000,-2.500000,0.000000,0.000000,2.500000,2.500000,0.000000,2.500000,0.000000,$1*%
%AMFreePoly3*
4,1,8,2.000000,-25.000000,-7.000000,-25.000000,-7.000000,-10.000000,-5.000000,-10.000000,-2.000000,-7.000000,-2.000000,1.000000,2.000000,1.000000,2.000000,-25.000000,2.000000,-25.000000,$1*%
%AMFreePoly4*
4,1,8,2.000000,-24.500000,-7.000000,-24.500000,-7.000000,-9.500000,-5.000000,-9.500000,-2.000000,-6.500000,-2.000000,1.500000,2.000000,1.500000,2.000000,-24.500000,2.000000,-24.500000,$1*%
G04 Aperture macros list end*
%ADD10C,0.150000*%
%ADD11C,0.400000*%
%ADD12C,0.200000*%
%ADD13C,0.300000*%
%ADD14C,0.120000*%
%ADD15C,0.152400*%
%ADD16RoundRect,0.218750X-0.218750X-0.256250X0.218750X-0.256250X0.218750X0.256250X-0.218750X0.256250X0*%
%ADD17RoundRect,0.200000X-0.200000X-0.275000X0.200000X-0.275000X0.200000X0.275000X-0.200000X0.275000X0*%
%ADD18RoundRect,0.625000X-0.625000X-1.925000X0.625000X-1.925000X0.625000X1.925000X-0.625000X1.925000X0*%
%ADD19C,17.800000*%
%ADD20C,1.500000*%
%ADD21C,1.300000*%
%ADD22RoundRect,0.075000X-0.662500X-0.075000X0.662500X-0.075000X0.662500X0.075000X-0.662500X0.075000X0*%
%ADD23RoundRect,0.075000X-0.075000X-0.662500X0.075000X-0.662500X0.075000X0.662500X-0.075000X0.662500X0*%
%ADD24C,0.700000*%
%ADD25C,4.400000*%
%ADD26C,2.000000*%
%ADD27R,2.800000X1.000000*%
%ADD28RoundRect,0.225000X-0.225000X-0.250000X0.225000X-0.250000X0.225000X0.250000X-0.225000X0.250000X0*%
%ADD29RoundRect,0.200000X0.275000X-0.200000X0.275000X0.200000X-0.275000X0.200000X-0.275000X-0.200000X0*%
%ADD30FreePoly0,0.000000*%
%ADD31FreePoly1,0.000000*%
%ADD32FreePoly2,0.000000*%
%ADD33FreePoly3,0.000000*%
%ADD34C,0.900000*%
%ADD35R,2.500000X1.250000*%
%ADD36FreePoly4,0.000000*%
%ADD37R,0.533400X1.701800*%
%ADD38RoundRect,0.150000X-1.100000X1.100000X-1.100000X-1.100000X1.100000X-1.100000X1.100000X1.100000X0*%
G04 APERTURE END LIST*
D10*
X33380952Y-28452380D02*
X33380952Y-29166666D01*
X33333333Y-29309523D01*
X33238095Y-29404761D01*
X33095238Y-29452380D01*
X33000000Y-29452380D01*
X34333333Y-29452380D02*
X33857142Y-29452380D01*
X33857142Y-28452380D01*
X35238095Y-29357142D02*
X35190476Y-29404761D01*
X35047619Y-29452380D01*
X34952380Y-29452380D01*
X34809523Y-29404761D01*
X34714285Y-29309523D01*
X34666666Y-29214285D01*
X34619047Y-29023809D01*
X34619047Y-28880952D01*
X34666666Y-28690476D01*
X34714285Y-28595238D01*
X34809523Y-28500000D01*
X34952380Y-28452380D01*
X35047619Y-28452380D01*
X35190476Y-28500000D01*
X35238095Y-28547619D01*
X35952380Y-28452380D02*
X35952380Y-29166666D01*
X35904761Y-29309523D01*
X35809523Y-29404761D01*
X35666666Y-29452380D01*
X35571428Y-29452380D01*
X36904761Y-29452380D02*
X36428571Y-29452380D01*
X36428571Y-28452380D01*
X37809523Y-29357142D02*
X37761904Y-29404761D01*
X37619047Y-29452380D01*
X37523809Y-29452380D01*
X37380952Y-29404761D01*
X37285714Y-29309523D01*
X37238095Y-29214285D01*
X37190476Y-29023809D01*
X37190476Y-28880952D01*
X37238095Y-28690476D01*
X37285714Y-28595238D01*
X37380952Y-28500000D01*
X37523809Y-28452380D01*
X37619047Y-28452380D01*
X37761904Y-28500000D01*
X37809523Y-28547619D01*
X38523809Y-28452380D02*
X38523809Y-29166666D01*
X38476190Y-29309523D01*
X38380952Y-29404761D01*
X38238095Y-29452380D01*
X38142857Y-29452380D01*
X39476190Y-29452380D02*
X39000000Y-29452380D01*
X39000000Y-28452380D01*
X40380952Y-29357142D02*
X40333333Y-29404761D01*
X40190476Y-29452380D01*
X40095238Y-29452380D01*
X39952380Y-29404761D01*
X39857142Y-29309523D01*
X39809523Y-29214285D01*
X39761904Y-29023809D01*
X39761904Y-28880952D01*
X39809523Y-28690476D01*
X39857142Y-28595238D01*
X39952380Y-28500000D01*
X40095238Y-28452380D01*
X40190476Y-28452380D01*
X40333333Y-28500000D01*
X40380952Y-28547619D01*
X41095238Y-28452380D02*
X41095238Y-29166666D01*
X41047619Y-29309523D01*
X40952380Y-29404761D01*
X40809523Y-29452380D01*
X40714285Y-29452380D01*
X42047619Y-29452380D02*
X41571428Y-29452380D01*
X41571428Y-28452380D01*
X42952380Y-29357142D02*
X42904761Y-29404761D01*
X42761904Y-29452380D01*
X42666666Y-29452380D01*
X42523809Y-29404761D01*
X42428571Y-29309523D01*
X42380952Y-29214285D01*
X42333333Y-29023809D01*
X42333333Y-28880952D01*
X42380952Y-28690476D01*
X42428571Y-28595238D01*
X42523809Y-28500000D01*
X42666666Y-28452380D01*
X42761904Y-28452380D01*
X42904761Y-28500000D01*
X42952380Y-28547619D01*
X106250000Y-45000000D02*
X168750000Y-45000000D01*
X168750000Y-45000000D02*
X168750000Y-47500000D01*
X168750000Y-47500000D02*
X106250000Y-47500000D01*
X106250000Y-47500000D02*
X106250000Y-45000000D01*
X106250000Y-35000000D02*
X168750000Y-35000000D01*
X168750000Y-35000000D02*
X168750000Y-37500000D01*
X168750000Y-37500000D02*
X106250000Y-37500000D01*
X106250000Y-37500000D02*
X106250000Y-35000000D01*
X141000000Y-35000000D02*
X141000000Y-50250000D01*
X106250000Y-40000000D02*
X168750000Y-40000000D01*
X168750000Y-40000000D02*
X168750000Y-42500000D01*
X168750000Y-42500000D02*
X106250000Y-42500000D01*
X106250000Y-42500000D02*
X106250000Y-40000000D01*
X106250000Y-30000000D02*
X168750000Y-30000000D01*
X168750000Y-30000000D02*
X168750000Y-50250000D01*
X168750000Y-50250000D02*
X106250000Y-50250000D01*
X106250000Y-50250000D02*
X106250000Y-30000000D01*
D11*
X166928571Y-126357142D02*
X165214285Y-126357142D01*
X166071428Y-126357142D02*
X166071428Y-123357142D01*
X165785714Y-123785714D01*
X165500000Y-124071428D01*
X165214285Y-124214285D01*
X168071428Y-123642857D02*
X168214285Y-123500000D01*
X168500000Y-123357142D01*
X169214285Y-123357142D01*
X169500000Y-123500000D01*
X169642857Y-123642857D01*
X169785714Y-123928571D01*
X169785714Y-124214285D01*
X169642857Y-124642857D01*
X167928571Y-126357142D01*
X169785714Y-126357142D01*
D10*
X36976190Y-45172380D02*
X36976190Y-45981904D01*
X37023809Y-46077142D01*
X37071428Y-46124761D01*
X37166666Y-46172380D01*
X37357142Y-46172380D01*
X37452380Y-46124761D01*
X37500000Y-46077142D01*
X37547619Y-45981904D01*
X37547619Y-45172380D01*
X38023809Y-46172380D02*
X38023809Y-45172380D01*
X38404761Y-45172380D01*
X38500000Y-45220000D01*
X38547619Y-45267619D01*
X38595238Y-45362857D01*
X38595238Y-45505714D01*
X38547619Y-45600952D01*
X38500000Y-45648571D01*
X38404761Y-45696190D01*
X38023809Y-45696190D01*
X39023809Y-46172380D02*
X39023809Y-45172380D01*
X39261904Y-45172380D01*
X39404761Y-45220000D01*
X39500000Y-45315238D01*
X39547619Y-45410476D01*
X39595238Y-45600952D01*
X39595238Y-45743809D01*
X39547619Y-45934285D01*
X39500000Y-46029523D01*
X39404761Y-46124761D01*
X39261904Y-46172380D01*
X39023809Y-46172380D01*
X40023809Y-46172380D02*
X40023809Y-45172380D01*
X37738095Y-47760000D02*
X37642857Y-47712380D01*
X37500000Y-47712380D01*
X37357142Y-47760000D01*
X37261904Y-47855238D01*
X37214285Y-47950476D01*
X37166666Y-48140952D01*
X37166666Y-48283809D01*
X37214285Y-48474285D01*
X37261904Y-48569523D01*
X37357142Y-48664761D01*
X37500000Y-48712380D01*
X37595238Y-48712380D01*
X37738095Y-48664761D01*
X37785714Y-48617142D01*
X37785714Y-48283809D01*
X37595238Y-48283809D01*
X38214285Y-48712380D02*
X38214285Y-47712380D01*
X38785714Y-48712380D01*
X38785714Y-47712380D01*
X39261904Y-48712380D02*
X39261904Y-47712380D01*
X39500000Y-47712380D01*
X39642857Y-47760000D01*
X39738095Y-47855238D01*
X39785714Y-47950476D01*
X39833333Y-48140952D01*
X39833333Y-48283809D01*
X39785714Y-48474285D01*
X39738095Y-48569523D01*
X39642857Y-48664761D01*
X39500000Y-48712380D01*
X39261904Y-48712380D01*
D12*
X142551428Y-35592857D02*
X143351428Y-35592857D01*
X142837142Y-36792857D01*
X143808571Y-36678571D02*
X143865714Y-36735714D01*
X143808571Y-36792857D01*
X143751428Y-36735714D01*
X143808571Y-36678571D01*
X143808571Y-36792857D01*
X145237142Y-36735714D02*
X145408571Y-36792857D01*
X145694285Y-36792857D01*
X145808571Y-36735714D01*
X145865714Y-36678571D01*
X145922857Y-36564285D01*
X145922857Y-36450000D01*
X145865714Y-36335714D01*
X145808571Y-36278571D01*
X145694285Y-36221428D01*
X145465714Y-36164285D01*
X145351428Y-36107142D01*
X145294285Y-36050000D01*
X145237142Y-35935714D01*
X145237142Y-35821428D01*
X145294285Y-35707142D01*
X145351428Y-35650000D01*
X145465714Y-35592857D01*
X145751428Y-35592857D01*
X145922857Y-35650000D01*
X146437142Y-36792857D02*
X146437142Y-35992857D01*
X146437142Y-35592857D02*
X146380000Y-35650000D01*
X146437142Y-35707142D01*
X146494285Y-35650000D01*
X146437142Y-35592857D01*
X146437142Y-35707142D01*
X147180000Y-36792857D02*
X147065714Y-36735714D01*
X147008571Y-36621428D01*
X147008571Y-35592857D01*
X148094285Y-36735714D02*
X147980000Y-36792857D01*
X147751428Y-36792857D01*
X147637142Y-36735714D01*
X147580000Y-36621428D01*
X147580000Y-36164285D01*
X147637142Y-36050000D01*
X147751428Y-35992857D01*
X147980000Y-35992857D01*
X148094285Y-36050000D01*
X148151428Y-36164285D01*
X148151428Y-36278571D01*
X147580000Y-36392857D01*
X148665714Y-35992857D02*
X148665714Y-36792857D01*
X148665714Y-36107142D02*
X148722857Y-36050000D01*
X148837142Y-35992857D01*
X149008571Y-35992857D01*
X149122857Y-36050000D01*
X149180000Y-36164285D01*
X149180000Y-36792857D01*
X149580000Y-35992857D02*
X150037142Y-35992857D01*
X149751428Y-35592857D02*
X149751428Y-36621428D01*
X149808571Y-36735714D01*
X149922857Y-36792857D01*
X150037142Y-36792857D01*
X151351428Y-36792857D02*
X151351428Y-35592857D01*
X152037142Y-36792857D01*
X152037142Y-35592857D01*
X152608571Y-36792857D02*
X152608571Y-35992857D01*
X152608571Y-35592857D02*
X152551428Y-35650000D01*
X152608571Y-35707142D01*
X152665714Y-35650000D01*
X152608571Y-35592857D01*
X152608571Y-35707142D01*
X153694285Y-35992857D02*
X153694285Y-36964285D01*
X153637142Y-37078571D01*
X153580000Y-37135714D01*
X153465714Y-37192857D01*
X153294285Y-37192857D01*
X153180000Y-37135714D01*
X153694285Y-36735714D02*
X153580000Y-36792857D01*
X153351428Y-36792857D01*
X153237142Y-36735714D01*
X153180000Y-36678571D01*
X153122857Y-36564285D01*
X153122857Y-36221428D01*
X153180000Y-36107142D01*
X153237142Y-36050000D01*
X153351428Y-35992857D01*
X153580000Y-35992857D01*
X153694285Y-36050000D01*
X154265714Y-36792857D02*
X154265714Y-35592857D01*
X154780000Y-36792857D02*
X154780000Y-36164285D01*
X154722857Y-36050000D01*
X154608571Y-35992857D01*
X154437142Y-35992857D01*
X154322857Y-36050000D01*
X154265714Y-36107142D01*
X155180000Y-35992857D02*
X155637142Y-35992857D01*
X155351428Y-35592857D02*
X155351428Y-36621428D01*
X155408571Y-36735714D01*
X155522857Y-36792857D01*
X155637142Y-36792857D01*
D11*
X108357142Y-126357142D02*
X106642857Y-126357142D01*
X107500000Y-126357142D02*
X107500000Y-123357142D01*
X107214285Y-123785714D01*
X106928571Y-124071428D01*
X106642857Y-124214285D01*
X143214285Y-88357142D02*
X141785714Y-88357142D01*
X141642857Y-89785714D01*
X141785714Y-89642857D01*
X142071428Y-89500000D01*
X142785714Y-89500000D01*
X143071428Y-89642857D01*
X143214285Y-89785714D01*
X143357142Y-90071428D01*
X143357142Y-90785714D01*
X143214285Y-91071428D01*
X143071428Y-91214285D01*
X142785714Y-91357142D01*
X142071428Y-91357142D01*
X141785714Y-91214285D01*
X141642857Y-91071428D01*
X46500000Y-123357142D02*
X48357142Y-123357142D01*
X47357142Y-124500000D01*
X47785714Y-124500000D01*
X48071428Y-124642857D01*
X48214285Y-124785714D01*
X48357142Y-125071428D01*
X48357142Y-125785714D01*
X48214285Y-126071428D01*
X48071428Y-126214285D01*
X47785714Y-126357142D01*
X46928571Y-126357142D01*
X46642857Y-126214285D01*
X46500000Y-126071428D01*
X123071428Y-89357142D02*
X123071428Y-91357142D01*
X122357142Y-88214285D02*
X121642857Y-90357142D01*
X123500000Y-90357142D01*
X81500000Y-88357142D02*
X83500000Y-88357142D01*
X82214285Y-91357142D01*
D13*
X88107142Y-40607142D02*
X88321428Y-40678571D01*
X88678571Y-40678571D01*
X88821428Y-40607142D01*
X88892857Y-40535714D01*
X88964285Y-40392857D01*
X88964285Y-40250000D01*
X88892857Y-40107142D01*
X88821428Y-40035714D01*
X88678571Y-39964285D01*
X88392857Y-39892857D01*
X88250000Y-39821428D01*
X88178571Y-39750000D01*
X88107142Y-39607142D01*
X88107142Y-39464285D01*
X88178571Y-39321428D01*
X88250000Y-39250000D01*
X88392857Y-39178571D01*
X88750000Y-39178571D01*
X88964285Y-39250000D01*
X89821428Y-40678571D02*
X89678571Y-40607142D01*
X89607142Y-40535714D01*
X89535714Y-40392857D01*
X89535714Y-39964285D01*
X89607142Y-39821428D01*
X89678571Y-39750000D01*
X89821428Y-39678571D01*
X90035714Y-39678571D01*
X90178571Y-39750000D01*
X90250000Y-39821428D01*
X90321428Y-39964285D01*
X90321428Y-40392857D01*
X90250000Y-40535714D01*
X90178571Y-40607142D01*
X90035714Y-40678571D01*
X89821428Y-40678571D01*
X90964285Y-39678571D02*
X90964285Y-40678571D01*
X90964285Y-39821428D02*
X91035714Y-39750000D01*
X91178571Y-39678571D01*
X91392857Y-39678571D01*
X91535714Y-39750000D01*
X91607142Y-39892857D01*
X91607142Y-40678571D01*
X92964285Y-39678571D02*
X92964285Y-40892857D01*
X92892857Y-41035714D01*
X92821428Y-41107142D01*
X92678571Y-41178571D01*
X92464285Y-41178571D01*
X92321428Y-41107142D01*
X92964285Y-40607142D02*
X92821428Y-40678571D01*
X92535714Y-40678571D01*
X92392857Y-40607142D01*
X92321428Y-40535714D01*
X92250000Y-40392857D01*
X92250000Y-39964285D01*
X92321428Y-39821428D01*
X92392857Y-39750000D01*
X92535714Y-39678571D01*
X92821428Y-39678571D01*
X92964285Y-39750000D01*
X94750000Y-40607142D02*
X94892857Y-40678571D01*
X95178571Y-40678571D01*
X95321428Y-40607142D01*
X95392857Y-40464285D01*
X95392857Y-40392857D01*
X95321428Y-40250000D01*
X95178571Y-40178571D01*
X94964285Y-40178571D01*
X94821428Y-40107142D01*
X94750000Y-39964285D01*
X94750000Y-39892857D01*
X94821428Y-39750000D01*
X94964285Y-39678571D01*
X95178571Y-39678571D01*
X95321428Y-39750000D01*
X96607142Y-40607142D02*
X96464285Y-40678571D01*
X96178571Y-40678571D01*
X96035714Y-40607142D01*
X95964285Y-40464285D01*
X95964285Y-39892857D01*
X96035714Y-39750000D01*
X96178571Y-39678571D01*
X96464285Y-39678571D01*
X96607142Y-39750000D01*
X96678571Y-39892857D01*
X96678571Y-40035714D01*
X95964285Y-40178571D01*
X97535714Y-40678571D02*
X97392857Y-40607142D01*
X97321428Y-40464285D01*
X97321428Y-39178571D01*
X98678571Y-40607142D02*
X98535714Y-40678571D01*
X98250000Y-40678571D01*
X98107142Y-40607142D01*
X98035714Y-40464285D01*
X98035714Y-39892857D01*
X98107142Y-39750000D01*
X98250000Y-39678571D01*
X98535714Y-39678571D01*
X98678571Y-39750000D01*
X98750000Y-39892857D01*
X98750000Y-40035714D01*
X98035714Y-40178571D01*
X100035714Y-40607142D02*
X99892857Y-40678571D01*
X99607142Y-40678571D01*
X99464285Y-40607142D01*
X99392857Y-40535714D01*
X99321428Y-40392857D01*
X99321428Y-39964285D01*
X99392857Y-39821428D01*
X99464285Y-39750000D01*
X99607142Y-39678571D01*
X99892857Y-39678571D01*
X100035714Y-39750000D01*
X100464285Y-39678571D02*
X101035714Y-39678571D01*
X100678571Y-39178571D02*
X100678571Y-40464285D01*
X100750000Y-40607142D01*
X100892857Y-40678571D01*
X101035714Y-40678571D01*
D11*
X58214285Y-123357142D02*
X56785714Y-123357142D01*
X56642857Y-124785714D01*
X56785714Y-124642857D01*
X57071428Y-124500000D01*
X57785714Y-124500000D01*
X58071428Y-124642857D01*
X58214285Y-124785714D01*
X58357142Y-125071428D01*
X58357142Y-125785714D01*
X58214285Y-126071428D01*
X58071428Y-126214285D01*
X57785714Y-126357142D01*
X57071428Y-126357142D01*
X56785714Y-126214285D01*
X56642857Y-126071428D01*
X41642857Y-88642857D02*
X41785714Y-88500000D01*
X42071428Y-88357142D01*
X42785714Y-88357142D01*
X43071428Y-88500000D01*
X43214285Y-88642857D01*
X43357142Y-88928571D01*
X43357142Y-89214285D01*
X43214285Y-89642857D01*
X41500000Y-91357142D01*
X43357142Y-91357142D01*
X77214285Y-124642857D02*
X76928571Y-124500000D01*
X76785714Y-124357142D01*
X76642857Y-124071428D01*
X76642857Y-123928571D01*
X76785714Y-123642857D01*
X76928571Y-123500000D01*
X77214285Y-123357142D01*
X77785714Y-123357142D01*
X78071428Y-123500000D01*
X78214285Y-123642857D01*
X78357142Y-123928571D01*
X78357142Y-124071428D01*
X78214285Y-124357142D01*
X78071428Y-124500000D01*
X77785714Y-124642857D01*
X77214285Y-124642857D01*
X76928571Y-124785714D01*
X76785714Y-124928571D01*
X76642857Y-125214285D01*
X76642857Y-125785714D01*
X76785714Y-126071428D01*
X76928571Y-126214285D01*
X77214285Y-126357142D01*
X77785714Y-126357142D01*
X78071428Y-126214285D01*
X78214285Y-126071428D01*
X78357142Y-125785714D01*
X78357142Y-125214285D01*
X78214285Y-124928571D01*
X78071428Y-124785714D01*
X77785714Y-124642857D01*
X128214285Y-123357142D02*
X126785714Y-123357142D01*
X126642857Y-124785714D01*
X126785714Y-124642857D01*
X127071428Y-124500000D01*
X127785714Y-124500000D01*
X128071428Y-124642857D01*
X128214285Y-124785714D01*
X128357142Y-125071428D01*
X128357142Y-125785714D01*
X128214285Y-126071428D01*
X128071428Y-126214285D01*
X127785714Y-126357142D01*
X127071428Y-126357142D01*
X126785714Y-126214285D01*
X126642857Y-126071428D01*
X86928571Y-126357142D02*
X85214285Y-126357142D01*
X86071428Y-126357142D02*
X86071428Y-123357142D01*
X85785714Y-123785714D01*
X85500000Y-124071428D01*
X85214285Y-124214285D01*
X88785714Y-123357142D02*
X89071428Y-123357142D01*
X89357142Y-123500000D01*
X89500000Y-123642857D01*
X89642857Y-123928571D01*
X89785714Y-124500000D01*
X89785714Y-125214285D01*
X89642857Y-125785714D01*
X89500000Y-126071428D01*
X89357142Y-126214285D01*
X89071428Y-126357142D01*
X88785714Y-126357142D01*
X88500000Y-126214285D01*
X88357142Y-126071428D01*
X88214285Y-125785714D01*
X88071428Y-125214285D01*
X88071428Y-124500000D01*
X88214285Y-123928571D01*
X88357142Y-123642857D01*
X88500000Y-123500000D01*
X88785714Y-123357142D01*
X91928571Y-91357142D02*
X92500000Y-91357142D01*
X92785714Y-91214285D01*
X92928571Y-91071428D01*
X93214285Y-90642857D01*
X93357142Y-90071428D01*
X93357142Y-88928571D01*
X93214285Y-88642857D01*
X93071428Y-88500000D01*
X92785714Y-88357142D01*
X92214285Y-88357142D01*
X91928571Y-88500000D01*
X91785714Y-88642857D01*
X91642857Y-88928571D01*
X91642857Y-89642857D01*
X91785714Y-89928571D01*
X91928571Y-90071428D01*
X92214285Y-90214285D01*
X92785714Y-90214285D01*
X93071428Y-90071428D01*
X93214285Y-89928571D01*
X93357142Y-89642857D01*
D12*
X152055714Y-32076857D02*
X151484285Y-32076857D01*
X151484285Y-30876857D01*
X152912857Y-32019714D02*
X152798571Y-32076857D01*
X152570000Y-32076857D01*
X152455714Y-32019714D01*
X152398571Y-31905428D01*
X152398571Y-31448285D01*
X152455714Y-31334000D01*
X152570000Y-31276857D01*
X152798571Y-31276857D01*
X152912857Y-31334000D01*
X152970000Y-31448285D01*
X152970000Y-31562571D01*
X152398571Y-31676857D01*
X153312857Y-31276857D02*
X153770000Y-31276857D01*
X153484285Y-32076857D02*
X153484285Y-31048285D01*
X153541428Y-30934000D01*
X153655714Y-30876857D01*
X153770000Y-30876857D01*
X153998571Y-31276857D02*
X154455714Y-31276857D01*
X154170000Y-30876857D02*
X154170000Y-31905428D01*
X154227142Y-32019714D01*
X154341428Y-32076857D01*
X154455714Y-32076857D01*
X155712857Y-32019714D02*
X155827142Y-32076857D01*
X156055714Y-32076857D01*
X156170000Y-32019714D01*
X156227142Y-31905428D01*
X156227142Y-31848285D01*
X156170000Y-31734000D01*
X156055714Y-31676857D01*
X155884285Y-31676857D01*
X155770000Y-31619714D01*
X155712857Y-31505428D01*
X155712857Y-31448285D01*
X155770000Y-31334000D01*
X155884285Y-31276857D01*
X156055714Y-31276857D01*
X156170000Y-31334000D01*
X156741428Y-32076857D02*
X156741428Y-31276857D01*
X156741428Y-30876857D02*
X156684285Y-30934000D01*
X156741428Y-30991142D01*
X156798571Y-30934000D01*
X156741428Y-30876857D01*
X156741428Y-30991142D01*
X157827142Y-32076857D02*
X157827142Y-30876857D01*
X157827142Y-32019714D02*
X157712857Y-32076857D01*
X157484285Y-32076857D01*
X157370000Y-32019714D01*
X157312857Y-31962571D01*
X157255714Y-31848285D01*
X157255714Y-31505428D01*
X157312857Y-31391142D01*
X157370000Y-31334000D01*
X157484285Y-31276857D01*
X157712857Y-31276857D01*
X157827142Y-31334000D01*
X158855714Y-32019714D02*
X158741428Y-32076857D01*
X158512857Y-32076857D01*
X158398571Y-32019714D01*
X158341428Y-31905428D01*
X158341428Y-31448285D01*
X158398571Y-31334000D01*
X158512857Y-31276857D01*
X158741428Y-31276857D01*
X158855714Y-31334000D01*
X158912857Y-31448285D01*
X158912857Y-31562571D01*
X158341428Y-31676857D01*
X160341428Y-31619714D02*
X161255714Y-31619714D01*
X163312857Y-32076857D02*
X162741428Y-32076857D01*
X162741428Y-30876857D01*
X164170000Y-32019714D02*
X164055714Y-32076857D01*
X163827142Y-32076857D01*
X163712857Y-32019714D01*
X163655714Y-31905428D01*
X163655714Y-31448285D01*
X163712857Y-31334000D01*
X163827142Y-31276857D01*
X164055714Y-31276857D01*
X164170000Y-31334000D01*
X164227142Y-31448285D01*
X164227142Y-31562571D01*
X163655714Y-31676857D01*
X165255714Y-32076857D02*
X165255714Y-31448285D01*
X165198571Y-31334000D01*
X165084285Y-31276857D01*
X164855714Y-31276857D01*
X164741428Y-31334000D01*
X165255714Y-32019714D02*
X165141428Y-32076857D01*
X164855714Y-32076857D01*
X164741428Y-32019714D01*
X164684285Y-31905428D01*
X164684285Y-31791142D01*
X164741428Y-31676857D01*
X164855714Y-31619714D01*
X165141428Y-31619714D01*
X165255714Y-31562571D01*
X165827142Y-32076857D02*
X165827142Y-31276857D01*
X165827142Y-31505428D02*
X165884285Y-31391142D01*
X165941428Y-31334000D01*
X166055714Y-31276857D01*
X166170000Y-31276857D01*
X166570000Y-31276857D02*
X166570000Y-32076857D01*
X166570000Y-31391142D02*
X166627142Y-31334000D01*
X166741428Y-31276857D01*
X166912857Y-31276857D01*
X167027142Y-31334000D01*
X167084285Y-31448285D01*
X167084285Y-32076857D01*
X151027142Y-34008857D02*
X150627142Y-33437428D01*
X150341428Y-34008857D02*
X150341428Y-32808857D01*
X150798571Y-32808857D01*
X150912857Y-32866000D01*
X150970000Y-32923142D01*
X151027142Y-33037428D01*
X151027142Y-33208857D01*
X150970000Y-33323142D01*
X150912857Y-33380285D01*
X150798571Y-33437428D01*
X150341428Y-33437428D01*
X151541428Y-34008857D02*
X151541428Y-33208857D01*
X151541428Y-32808857D02*
X151484285Y-32866000D01*
X151541428Y-32923142D01*
X151598571Y-32866000D01*
X151541428Y-32808857D01*
X151541428Y-32923142D01*
X152627142Y-33208857D02*
X152627142Y-34180285D01*
X152570000Y-34294571D01*
X152512857Y-34351714D01*
X152398571Y-34408857D01*
X152227142Y-34408857D01*
X152112857Y-34351714D01*
X152627142Y-33951714D02*
X152512857Y-34008857D01*
X152284285Y-34008857D01*
X152170000Y-33951714D01*
X152112857Y-33894571D01*
X152055714Y-33780285D01*
X152055714Y-33437428D01*
X152112857Y-33323142D01*
X152170000Y-33266000D01*
X152284285Y-33208857D01*
X152512857Y-33208857D01*
X152627142Y-33266000D01*
X153198571Y-34008857D02*
X153198571Y-32808857D01*
X153712857Y-34008857D02*
X153712857Y-33380285D01*
X153655714Y-33266000D01*
X153541428Y-33208857D01*
X153370000Y-33208857D01*
X153255714Y-33266000D01*
X153198571Y-33323142D01*
X154112857Y-33208857D02*
X154570000Y-33208857D01*
X154284285Y-32808857D02*
X154284285Y-33837428D01*
X154341428Y-33951714D01*
X154455714Y-34008857D01*
X154570000Y-34008857D01*
X155827142Y-33951714D02*
X155941428Y-34008857D01*
X156170000Y-34008857D01*
X156284285Y-33951714D01*
X156341428Y-33837428D01*
X156341428Y-33780285D01*
X156284285Y-33666000D01*
X156170000Y-33608857D01*
X155998571Y-33608857D01*
X155884285Y-33551714D01*
X155827142Y-33437428D01*
X155827142Y-33380285D01*
X155884285Y-33266000D01*
X155998571Y-33208857D01*
X156170000Y-33208857D01*
X156284285Y-33266000D01*
X156855714Y-34008857D02*
X156855714Y-33208857D01*
X156855714Y-32808857D02*
X156798571Y-32866000D01*
X156855714Y-32923142D01*
X156912857Y-32866000D01*
X156855714Y-32808857D01*
X156855714Y-32923142D01*
X157941428Y-34008857D02*
X157941428Y-32808857D01*
X157941428Y-33951714D02*
X157827142Y-34008857D01*
X157598571Y-34008857D01*
X157484285Y-33951714D01*
X157427142Y-33894571D01*
X157370000Y-33780285D01*
X157370000Y-33437428D01*
X157427142Y-33323142D01*
X157484285Y-33266000D01*
X157598571Y-33208857D01*
X157827142Y-33208857D01*
X157941428Y-33266000D01*
X158970000Y-33951714D02*
X158855714Y-34008857D01*
X158627142Y-34008857D01*
X158512857Y-33951714D01*
X158455714Y-33837428D01*
X158455714Y-33380285D01*
X158512857Y-33266000D01*
X158627142Y-33208857D01*
X158855714Y-33208857D01*
X158970000Y-33266000D01*
X159027142Y-33380285D01*
X159027142Y-33494571D01*
X158455714Y-33608857D01*
X160455714Y-33551714D02*
X161370000Y-33551714D01*
X162798571Y-33666000D02*
X163370000Y-33666000D01*
X162684285Y-34008857D02*
X163084285Y-32808857D01*
X163484285Y-34008857D01*
X164398571Y-33208857D02*
X164398571Y-34008857D01*
X163884285Y-33208857D02*
X163884285Y-33837428D01*
X163941428Y-33951714D01*
X164055714Y-34008857D01*
X164227142Y-34008857D01*
X164341428Y-33951714D01*
X164398571Y-33894571D01*
X164798571Y-33208857D02*
X165255714Y-33208857D01*
X164970000Y-32808857D02*
X164970000Y-33837428D01*
X165027142Y-33951714D01*
X165141428Y-34008857D01*
X165255714Y-34008857D01*
X165827142Y-34008857D02*
X165712857Y-33951714D01*
X165655714Y-33894571D01*
X165598571Y-33780285D01*
X165598571Y-33437428D01*
X165655714Y-33323142D01*
X165712857Y-33266000D01*
X165827142Y-33208857D01*
X165998571Y-33208857D01*
X166112857Y-33266000D01*
X166170000Y-33323142D01*
X166227142Y-33437428D01*
X166227142Y-33780285D01*
X166170000Y-33894571D01*
X166112857Y-33951714D01*
X165998571Y-34008857D01*
X165827142Y-34008857D01*
D11*
X68071428Y-123357142D02*
X67500000Y-123357142D01*
X67214285Y-123500000D01*
X67071428Y-123642857D01*
X66785714Y-124071428D01*
X66642857Y-124642857D01*
X66642857Y-125785714D01*
X66785714Y-126071428D01*
X66928571Y-126214285D01*
X67214285Y-126357142D01*
X67785714Y-126357142D01*
X68071428Y-126214285D01*
X68214285Y-126071428D01*
X68357142Y-125785714D01*
X68357142Y-125071428D01*
X68214285Y-124785714D01*
X68071428Y-124642857D01*
X67785714Y-124500000D01*
X67214285Y-124500000D01*
X66928571Y-124642857D01*
X66785714Y-124785714D01*
X66642857Y-125071428D01*
X156928571Y-126357142D02*
X155214285Y-126357142D01*
X156071428Y-126357142D02*
X156071428Y-123357142D01*
X155785714Y-123785714D01*
X155500000Y-124071428D01*
X155214285Y-124214285D01*
X158785714Y-123357142D02*
X159071428Y-123357142D01*
X159357142Y-123500000D01*
X159500000Y-123642857D01*
X159642857Y-123928571D01*
X159785714Y-124500000D01*
X159785714Y-125214285D01*
X159642857Y-125785714D01*
X159500000Y-126071428D01*
X159357142Y-126214285D01*
X159071428Y-126357142D01*
X158785714Y-126357142D01*
X158500000Y-126214285D01*
X158357142Y-126071428D01*
X158214285Y-125785714D01*
X158071428Y-125214285D01*
X158071428Y-124500000D01*
X158214285Y-123928571D01*
X158357142Y-123642857D01*
X158500000Y-123500000D01*
X158785714Y-123357142D01*
X73214285Y-88357142D02*
X71785714Y-88357142D01*
X71642857Y-89785714D01*
X71785714Y-89642857D01*
X72071428Y-89500000D01*
X72785714Y-89500000D01*
X73071428Y-89642857D01*
X73214285Y-89785714D01*
X73357142Y-90071428D01*
X73357142Y-90785714D01*
X73214285Y-91071428D01*
X73071428Y-91214285D01*
X72785714Y-91357142D01*
X72071428Y-91357142D01*
X71785714Y-91214285D01*
X71642857Y-91071428D01*
D10*
X30313333Y-43632380D02*
X29980000Y-43156190D01*
X29741904Y-43632380D02*
X29741904Y-42632380D01*
X30122857Y-42632380D01*
X30218095Y-42680000D01*
X30265714Y-42727619D01*
X30313333Y-42822857D01*
X30313333Y-42965714D01*
X30265714Y-43060952D01*
X30218095Y-43108571D01*
X30122857Y-43156190D01*
X29741904Y-43156190D01*
X30646666Y-42632380D02*
X31313333Y-43632380D01*
X31313333Y-42632380D02*
X30646666Y-43632380D01*
D11*
X138071428Y-123357142D02*
X137500000Y-123357142D01*
X137214285Y-123500000D01*
X137071428Y-123642857D01*
X136785714Y-124071428D01*
X136642857Y-124642857D01*
X136642857Y-125785714D01*
X136785714Y-126071428D01*
X136928571Y-126214285D01*
X137214285Y-126357142D01*
X137785714Y-126357142D01*
X138071428Y-126214285D01*
X138214285Y-126071428D01*
X138357142Y-125785714D01*
X138357142Y-125071428D01*
X138214285Y-124785714D01*
X138071428Y-124642857D01*
X137785714Y-124500000D01*
X137214285Y-124500000D01*
X136928571Y-124642857D01*
X136785714Y-124785714D01*
X136642857Y-125071428D01*
X151500000Y-88357142D02*
X153500000Y-88357142D01*
X152214285Y-91357142D01*
X53071428Y-89357142D02*
X53071428Y-91357142D01*
X52357142Y-88214285D02*
X51642857Y-90357142D01*
X53500000Y-90357142D01*
X96928571Y-126357142D02*
X95214285Y-126357142D01*
X96071428Y-126357142D02*
X96071428Y-123357142D01*
X95785714Y-123785714D01*
X95500000Y-124071428D01*
X95214285Y-124214285D01*
X98071428Y-123642857D02*
X98214285Y-123500000D01*
X98500000Y-123357142D01*
X99214285Y-123357142D01*
X99500000Y-123500000D01*
X99642857Y-123642857D01*
X99785714Y-123928571D01*
X99785714Y-124214285D01*
X99642857Y-124642857D01*
X97928571Y-126357142D01*
X99785714Y-126357142D01*
X107607142Y-33511904D02*
X107964285Y-33630952D01*
X108559523Y-33630952D01*
X108797619Y-33511904D01*
X108916666Y-33392857D01*
X109035714Y-33154761D01*
X109035714Y-32916666D01*
X108916666Y-32678571D01*
X108797619Y-32559523D01*
X108559523Y-32440476D01*
X108083333Y-32321428D01*
X107845238Y-32202380D01*
X107726190Y-32083333D01*
X107607142Y-31845238D01*
X107607142Y-31607142D01*
X107726190Y-31369047D01*
X107845238Y-31250000D01*
X108083333Y-31130952D01*
X108678571Y-31130952D01*
X109035714Y-31250000D01*
X110464285Y-33630952D02*
X110226190Y-33511904D01*
X110107142Y-33392857D01*
X109988095Y-33154761D01*
X109988095Y-32440476D01*
X110107142Y-32202380D01*
X110226190Y-32083333D01*
X110464285Y-31964285D01*
X110821428Y-31964285D01*
X111059523Y-32083333D01*
X111178571Y-32202380D01*
X111297619Y-32440476D01*
X111297619Y-33154761D01*
X111178571Y-33392857D01*
X111059523Y-33511904D01*
X110821428Y-33630952D01*
X110464285Y-33630952D01*
X112369047Y-31964285D02*
X112369047Y-33630952D01*
X112369047Y-32202380D02*
X112488095Y-32083333D01*
X112726190Y-31964285D01*
X113083333Y-31964285D01*
X113321428Y-32083333D01*
X113440476Y-32321428D01*
X113440476Y-33630952D01*
X115702380Y-31964285D02*
X115702380Y-33988095D01*
X115583333Y-34226190D01*
X115464285Y-34345238D01*
X115226190Y-34464285D01*
X114869047Y-34464285D01*
X114630952Y-34345238D01*
X115702380Y-33511904D02*
X115464285Y-33630952D01*
X114988095Y-33630952D01*
X114750000Y-33511904D01*
X114630952Y-33392857D01*
X114511904Y-33154761D01*
X114511904Y-32440476D01*
X114630952Y-32202380D01*
X114750000Y-32083333D01*
X114988095Y-31964285D01*
X115464285Y-31964285D01*
X115702380Y-32083333D01*
X119988095Y-33630952D02*
X118797619Y-33630952D01*
X118797619Y-31130952D01*
X120821428Y-33630952D02*
X120821428Y-31964285D01*
X120821428Y-31130952D02*
X120702380Y-31250000D01*
X120821428Y-31369047D01*
X120940476Y-31250000D01*
X120821428Y-31130952D01*
X120821428Y-31369047D01*
X121892857Y-33511904D02*
X122130952Y-33630952D01*
X122607142Y-33630952D01*
X122845238Y-33511904D01*
X122964285Y-33273809D01*
X122964285Y-33154761D01*
X122845238Y-32916666D01*
X122607142Y-32797619D01*
X122250000Y-32797619D01*
X122011904Y-32678571D01*
X121892857Y-32440476D01*
X121892857Y-32321428D01*
X122011904Y-32083333D01*
X122250000Y-31964285D01*
X122607142Y-31964285D01*
X122845238Y-32083333D01*
X123678571Y-31964285D02*
X124630952Y-31964285D01*
X124035714Y-31130952D02*
X124035714Y-33273809D01*
X124154761Y-33511904D01*
X124392857Y-33630952D01*
X124630952Y-33630952D01*
D12*
X107794285Y-36792857D02*
X107108571Y-36792857D01*
X107451428Y-36792857D02*
X107451428Y-35592857D01*
X107337142Y-35764285D01*
X107222857Y-35878571D01*
X107108571Y-35935714D01*
X108308571Y-36678571D02*
X108365714Y-36735714D01*
X108308571Y-36792857D01*
X108251428Y-36735714D01*
X108308571Y-36678571D01*
X108308571Y-36792857D01*
X110365714Y-36792857D02*
X109794285Y-36792857D01*
X109794285Y-35592857D01*
X111280000Y-36792857D02*
X111280000Y-36164285D01*
X111222857Y-36050000D01*
X111108571Y-35992857D01*
X110880000Y-35992857D01*
X110765714Y-36050000D01*
X111280000Y-36735714D02*
X111165714Y-36792857D01*
X110880000Y-36792857D01*
X110765714Y-36735714D01*
X110708571Y-36621428D01*
X110708571Y-36507142D01*
X110765714Y-36392857D01*
X110880000Y-36335714D01*
X111165714Y-36335714D01*
X111280000Y-36278571D01*
X111794285Y-36735714D02*
X111908571Y-36792857D01*
X112137142Y-36792857D01*
X112251428Y-36735714D01*
X112308571Y-36621428D01*
X112308571Y-36564285D01*
X112251428Y-36450000D01*
X112137142Y-36392857D01*
X111965714Y-36392857D01*
X111851428Y-36335714D01*
X111794285Y-36221428D01*
X111794285Y-36164285D01*
X111851428Y-36050000D01*
X111965714Y-35992857D01*
X112137142Y-35992857D01*
X112251428Y-36050000D01*
X112651428Y-35992857D02*
X113108571Y-35992857D01*
X112822857Y-35592857D02*
X112822857Y-36621428D01*
X112880000Y-36735714D01*
X112994285Y-36792857D01*
X113108571Y-36792857D01*
X115108571Y-36678571D02*
X115051428Y-36735714D01*
X114880000Y-36792857D01*
X114765714Y-36792857D01*
X114594285Y-36735714D01*
X114480000Y-36621428D01*
X114422857Y-36507142D01*
X114365714Y-36278571D01*
X114365714Y-36107142D01*
X114422857Y-35878571D01*
X114480000Y-35764285D01*
X114594285Y-35650000D01*
X114765714Y-35592857D01*
X114880000Y-35592857D01*
X115051428Y-35650000D01*
X115108571Y-35707142D01*
X115622857Y-36792857D02*
X115622857Y-35592857D01*
X116137142Y-36792857D02*
X116137142Y-36164285D01*
X116080000Y-36050000D01*
X115965714Y-35992857D01*
X115794285Y-35992857D01*
X115680000Y-36050000D01*
X115622857Y-36107142D01*
X116708571Y-36792857D02*
X116708571Y-35992857D01*
X116708571Y-36221428D02*
X116765714Y-36107142D01*
X116822857Y-36050000D01*
X116937142Y-35992857D01*
X117051428Y-35992857D01*
X117451428Y-36792857D02*
X117451428Y-35992857D01*
X117451428Y-35592857D02*
X117394285Y-35650000D01*
X117451428Y-35707142D01*
X117508571Y-35650000D01*
X117451428Y-35592857D01*
X117451428Y-35707142D01*
X117965714Y-36735714D02*
X118080000Y-36792857D01*
X118308571Y-36792857D01*
X118422857Y-36735714D01*
X118480000Y-36621428D01*
X118480000Y-36564285D01*
X118422857Y-36450000D01*
X118308571Y-36392857D01*
X118137142Y-36392857D01*
X118022857Y-36335714D01*
X117965714Y-36221428D01*
X117965714Y-36164285D01*
X118022857Y-36050000D01*
X118137142Y-35992857D01*
X118308571Y-35992857D01*
X118422857Y-36050000D01*
X118822857Y-35992857D02*
X119280000Y-35992857D01*
X118994285Y-35592857D02*
X118994285Y-36621428D01*
X119051428Y-36735714D01*
X119165714Y-36792857D01*
X119280000Y-36792857D01*
X119680000Y-36792857D02*
X119680000Y-35992857D01*
X119680000Y-36107142D02*
X119737142Y-36050000D01*
X119851428Y-35992857D01*
X120022857Y-35992857D01*
X120137142Y-36050000D01*
X120194285Y-36164285D01*
X120194285Y-36792857D01*
X120194285Y-36164285D02*
X120251428Y-36050000D01*
X120365714Y-35992857D01*
X120537142Y-35992857D01*
X120651428Y-36050000D01*
X120708571Y-36164285D01*
X120708571Y-36792857D01*
X121794285Y-36792857D02*
X121794285Y-36164285D01*
X121737142Y-36050000D01*
X121622857Y-35992857D01*
X121394285Y-35992857D01*
X121280000Y-36050000D01*
X121794285Y-36735714D02*
X121680000Y-36792857D01*
X121394285Y-36792857D01*
X121280000Y-36735714D01*
X121222857Y-36621428D01*
X121222857Y-36507142D01*
X121280000Y-36392857D01*
X121394285Y-36335714D01*
X121680000Y-36335714D01*
X121794285Y-36278571D01*
X122308571Y-36735714D02*
X122422857Y-36792857D01*
X122651428Y-36792857D01*
X122765714Y-36735714D01*
X122822857Y-36621428D01*
X122822857Y-36564285D01*
X122765714Y-36450000D01*
X122651428Y-36392857D01*
X122480000Y-36392857D01*
X122365714Y-36335714D01*
X122308571Y-36221428D01*
X122308571Y-36164285D01*
X122365714Y-36050000D01*
X122480000Y-35992857D01*
X122651428Y-35992857D01*
X122765714Y-36050000D01*
X142294285Y-49542857D02*
X141608571Y-49542857D01*
X141951428Y-49542857D02*
X141951428Y-48342857D01*
X141837142Y-48514285D01*
X141722857Y-48628571D01*
X141608571Y-48685714D01*
X142751428Y-48457142D02*
X142808571Y-48400000D01*
X142922857Y-48342857D01*
X143208571Y-48342857D01*
X143322857Y-48400000D01*
X143380000Y-48457142D01*
X143437142Y-48571428D01*
X143437142Y-48685714D01*
X143380000Y-48857142D01*
X142694285Y-49542857D01*
X143437142Y-49542857D01*
X143951428Y-49428571D02*
X144008571Y-49485714D01*
X143951428Y-49542857D01*
X143894285Y-49485714D01*
X143951428Y-49428571D01*
X143951428Y-49542857D01*
X145437142Y-49542857D02*
X145437142Y-48342857D01*
X146008571Y-49542857D02*
X146008571Y-48742857D01*
X146008571Y-48857142D02*
X146065714Y-48800000D01*
X146180000Y-48742857D01*
X146351428Y-48742857D01*
X146465714Y-48800000D01*
X146522857Y-48914285D01*
X146522857Y-49542857D01*
X146522857Y-48914285D02*
X146580000Y-48800000D01*
X146694285Y-48742857D01*
X146865714Y-48742857D01*
X146980000Y-48800000D01*
X147037142Y-48914285D01*
X147037142Y-49542857D01*
X147608571Y-48742857D02*
X147608571Y-49942857D01*
X147608571Y-48800000D02*
X147722857Y-48742857D01*
X147951428Y-48742857D01*
X148065714Y-48800000D01*
X148122857Y-48857142D01*
X148180000Y-48971428D01*
X148180000Y-49314285D01*
X148122857Y-49428571D01*
X148065714Y-49485714D01*
X147951428Y-49542857D01*
X147722857Y-49542857D01*
X147608571Y-49485714D01*
X149151428Y-49485714D02*
X149037142Y-49542857D01*
X148808571Y-49542857D01*
X148694285Y-49485714D01*
X148637142Y-49371428D01*
X148637142Y-48914285D01*
X148694285Y-48800000D01*
X148808571Y-48742857D01*
X149037142Y-48742857D01*
X149151428Y-48800000D01*
X149208571Y-48914285D01*
X149208571Y-49028571D01*
X148637142Y-49142857D01*
X149722857Y-49542857D02*
X149722857Y-48742857D01*
X149722857Y-48971428D02*
X149780000Y-48857142D01*
X149837142Y-48800000D01*
X149951428Y-48742857D01*
X150065714Y-48742857D01*
X150465714Y-49542857D02*
X150465714Y-48742857D01*
X150465714Y-48342857D02*
X150408571Y-48400000D01*
X150465714Y-48457142D01*
X150522857Y-48400000D01*
X150465714Y-48342857D01*
X150465714Y-48457142D01*
X151551428Y-49542857D02*
X151551428Y-48914285D01*
X151494285Y-48800000D01*
X151380000Y-48742857D01*
X151151428Y-48742857D01*
X151037142Y-48800000D01*
X151551428Y-49485714D02*
X151437142Y-49542857D01*
X151151428Y-49542857D01*
X151037142Y-49485714D01*
X150980000Y-49371428D01*
X150980000Y-49257142D01*
X151037142Y-49142857D01*
X151151428Y-49085714D01*
X151437142Y-49085714D01*
X151551428Y-49028571D01*
X152294285Y-49542857D02*
X152180000Y-49485714D01*
X152122857Y-49371428D01*
X152122857Y-48342857D01*
X153665714Y-49542857D02*
X153665714Y-48342857D01*
X154065714Y-49200000D01*
X154465714Y-48342857D01*
X154465714Y-49542857D01*
X155551428Y-49542857D02*
X155551428Y-48914285D01*
X155494285Y-48800000D01*
X155380000Y-48742857D01*
X155151428Y-48742857D01*
X155037142Y-48800000D01*
X155551428Y-49485714D02*
X155437142Y-49542857D01*
X155151428Y-49542857D01*
X155037142Y-49485714D01*
X154980000Y-49371428D01*
X154980000Y-49257142D01*
X155037142Y-49142857D01*
X155151428Y-49085714D01*
X155437142Y-49085714D01*
X155551428Y-49028571D01*
X156122857Y-49542857D02*
X156122857Y-48742857D01*
X156122857Y-48971428D02*
X156180000Y-48857142D01*
X156237142Y-48800000D01*
X156351428Y-48742857D01*
X156465714Y-48742857D01*
X157380000Y-49485714D02*
X157265714Y-49542857D01*
X157037142Y-49542857D01*
X156922857Y-49485714D01*
X156865714Y-49428571D01*
X156808571Y-49314285D01*
X156808571Y-48971428D01*
X156865714Y-48857142D01*
X156922857Y-48800000D01*
X157037142Y-48742857D01*
X157265714Y-48742857D01*
X157380000Y-48800000D01*
X157894285Y-49542857D02*
X157894285Y-48342857D01*
X158408571Y-49542857D02*
X158408571Y-48914285D01*
X158351428Y-48800000D01*
X158237142Y-48742857D01*
X158065714Y-48742857D01*
X157951428Y-48800000D01*
X157894285Y-48857142D01*
D11*
X111642857Y-88642857D02*
X111785714Y-88500000D01*
X112071428Y-88357142D01*
X112785714Y-88357142D01*
X113071428Y-88500000D01*
X113214285Y-88642857D01*
X113357142Y-88928571D01*
X113357142Y-89214285D01*
X113214285Y-89642857D01*
X111500000Y-91357142D01*
X113357142Y-91357142D01*
X116500000Y-123357142D02*
X118357142Y-123357142D01*
X117357142Y-124500000D01*
X117785714Y-124500000D01*
X118071428Y-124642857D01*
X118214285Y-124785714D01*
X118357142Y-125071428D01*
X118357142Y-125785714D01*
X118214285Y-126071428D01*
X118071428Y-126214285D01*
X117785714Y-126357142D01*
X116928571Y-126357142D01*
X116642857Y-126214285D01*
X116500000Y-126071428D01*
D12*
X142294285Y-46792857D02*
X141608571Y-46792857D01*
X141951428Y-46792857D02*
X141951428Y-45592857D01*
X141837142Y-45764285D01*
X141722857Y-45878571D01*
X141608571Y-45935714D01*
X143437142Y-46792857D02*
X142751428Y-46792857D01*
X143094285Y-46792857D02*
X143094285Y-45592857D01*
X142980000Y-45764285D01*
X142865714Y-45878571D01*
X142751428Y-45935714D01*
X143951428Y-46678571D02*
X144008571Y-46735714D01*
X143951428Y-46792857D01*
X143894285Y-46735714D01*
X143951428Y-46678571D01*
X143951428Y-46792857D01*
X145380000Y-46735714D02*
X145551428Y-46792857D01*
X145837142Y-46792857D01*
X145951428Y-46735714D01*
X146008571Y-46678571D01*
X146065714Y-46564285D01*
X146065714Y-46450000D01*
X146008571Y-46335714D01*
X145951428Y-46278571D01*
X145837142Y-46221428D01*
X145608571Y-46164285D01*
X145494285Y-46107142D01*
X145437142Y-46050000D01*
X145380000Y-45935714D01*
X145380000Y-45821428D01*
X145437142Y-45707142D01*
X145494285Y-45650000D01*
X145608571Y-45592857D01*
X145894285Y-45592857D01*
X146065714Y-45650000D01*
X147094285Y-45992857D02*
X147094285Y-46792857D01*
X146580000Y-45992857D02*
X146580000Y-46621428D01*
X146637142Y-46735714D01*
X146751428Y-46792857D01*
X146922857Y-46792857D01*
X147037142Y-46735714D01*
X147094285Y-46678571D01*
X147665714Y-45992857D02*
X147665714Y-47192857D01*
X147665714Y-46050000D02*
X147780000Y-45992857D01*
X148008571Y-45992857D01*
X148122857Y-46050000D01*
X148180000Y-46107142D01*
X148237142Y-46221428D01*
X148237142Y-46564285D01*
X148180000Y-46678571D01*
X148122857Y-46735714D01*
X148008571Y-46792857D01*
X147780000Y-46792857D01*
X147665714Y-46735714D01*
X149208571Y-46735714D02*
X149094285Y-46792857D01*
X148865714Y-46792857D01*
X148751428Y-46735714D01*
X148694285Y-46621428D01*
X148694285Y-46164285D01*
X148751428Y-46050000D01*
X148865714Y-45992857D01*
X149094285Y-45992857D01*
X149208571Y-46050000D01*
X149265714Y-46164285D01*
X149265714Y-46278571D01*
X148694285Y-46392857D01*
X149780000Y-46792857D02*
X149780000Y-45992857D01*
X149780000Y-46221428D02*
X149837142Y-46107142D01*
X149894285Y-46050000D01*
X150008571Y-45992857D01*
X150122857Y-45992857D01*
X151437142Y-46792857D02*
X151437142Y-45592857D01*
X151837142Y-46450000D01*
X152237142Y-45592857D01*
X152237142Y-46792857D01*
X153322857Y-46792857D02*
X153322857Y-46164285D01*
X153265714Y-46050000D01*
X153151428Y-45992857D01*
X152922857Y-45992857D01*
X152808571Y-46050000D01*
X153322857Y-46735714D02*
X153208571Y-46792857D01*
X152922857Y-46792857D01*
X152808571Y-46735714D01*
X152751428Y-46621428D01*
X152751428Y-46507142D01*
X152808571Y-46392857D01*
X152922857Y-46335714D01*
X153208571Y-46335714D01*
X153322857Y-46278571D01*
X153894285Y-46792857D02*
X153894285Y-45992857D01*
X153894285Y-46221428D02*
X153951428Y-46107142D01*
X154008571Y-46050000D01*
X154122857Y-45992857D01*
X154237142Y-45992857D01*
X154637142Y-46792857D02*
X154637142Y-45992857D01*
X154637142Y-45592857D02*
X154580000Y-45650000D01*
X154637142Y-45707142D01*
X154694285Y-45650000D01*
X154637142Y-45592857D01*
X154637142Y-45707142D01*
X155380000Y-46792857D02*
X155265714Y-46735714D01*
X155208571Y-46678571D01*
X155151428Y-46564285D01*
X155151428Y-46221428D01*
X155208571Y-46107142D01*
X155265714Y-46050000D01*
X155380000Y-45992857D01*
X155551428Y-45992857D01*
X155665714Y-46050000D01*
X155722857Y-46107142D01*
X155780000Y-46221428D01*
X155780000Y-46564285D01*
X155722857Y-46678571D01*
X155665714Y-46735714D01*
X155551428Y-46792857D01*
X155380000Y-46792857D01*
D11*
X38357142Y-126357142D02*
X36642857Y-126357142D01*
X37500000Y-126357142D02*
X37500000Y-123357142D01*
X37214285Y-123785714D01*
X36928571Y-124071428D01*
X36642857Y-124214285D01*
D12*
X142837142Y-38607142D02*
X142722857Y-38550000D01*
X142665714Y-38492857D01*
X142608571Y-38378571D01*
X142608571Y-38321428D01*
X142665714Y-38207142D01*
X142722857Y-38150000D01*
X142837142Y-38092857D01*
X143065714Y-38092857D01*
X143180000Y-38150000D01*
X143237142Y-38207142D01*
X143294285Y-38321428D01*
X143294285Y-38378571D01*
X143237142Y-38492857D01*
X143180000Y-38550000D01*
X143065714Y-38607142D01*
X142837142Y-38607142D01*
X142722857Y-38664285D01*
X142665714Y-38721428D01*
X142608571Y-38835714D01*
X142608571Y-39064285D01*
X142665714Y-39178571D01*
X142722857Y-39235714D01*
X142837142Y-39292857D01*
X143065714Y-39292857D01*
X143180000Y-39235714D01*
X143237142Y-39178571D01*
X143294285Y-39064285D01*
X143294285Y-38835714D01*
X143237142Y-38721428D01*
X143180000Y-38664285D01*
X143065714Y-38607142D01*
X143808571Y-39178571D02*
X143865714Y-39235714D01*
X143808571Y-39292857D01*
X143751428Y-39235714D01*
X143808571Y-39178571D01*
X143808571Y-39292857D01*
X145694285Y-38664285D02*
X145294285Y-38664285D01*
X145294285Y-39292857D02*
X145294285Y-38092857D01*
X145865714Y-38092857D01*
X146837142Y-38492857D02*
X146837142Y-39292857D01*
X146322857Y-38492857D02*
X146322857Y-39121428D01*
X146380000Y-39235714D01*
X146494285Y-39292857D01*
X146665714Y-39292857D01*
X146780000Y-39235714D01*
X146837142Y-39178571D01*
X147408571Y-38492857D02*
X147408571Y-39292857D01*
X147408571Y-38607142D02*
X147465714Y-38550000D01*
X147580000Y-38492857D01*
X147751428Y-38492857D01*
X147865714Y-38550000D01*
X147922857Y-38664285D01*
X147922857Y-39292857D01*
X148494285Y-39292857D02*
X148494285Y-38092857D01*
X148608571Y-38835714D02*
X148951428Y-39292857D01*
X148951428Y-38492857D02*
X148494285Y-38950000D01*
X149351428Y-38492857D02*
X149637142Y-39292857D01*
X149922857Y-38492857D02*
X149637142Y-39292857D01*
X149522857Y-39578571D01*
X149465714Y-39635714D01*
X149351428Y-39692857D01*
X151122857Y-38092857D02*
X151808571Y-38092857D01*
X151465714Y-39292857D02*
X151465714Y-38092857D01*
X152380000Y-39292857D02*
X152265714Y-39235714D01*
X152208571Y-39178571D01*
X152151428Y-39064285D01*
X152151428Y-38721428D01*
X152208571Y-38607142D01*
X152265714Y-38550000D01*
X152380000Y-38492857D01*
X152551428Y-38492857D01*
X152665714Y-38550000D01*
X152722857Y-38607142D01*
X152780000Y-38721428D01*
X152780000Y-39064285D01*
X152722857Y-39178571D01*
X152665714Y-39235714D01*
X152551428Y-39292857D01*
X152380000Y-39292857D01*
X153180000Y-38492857D02*
X153408571Y-39292857D01*
X153637142Y-38721428D01*
X153865714Y-39292857D01*
X154094285Y-38492857D01*
X154551428Y-38492857D02*
X154551428Y-39292857D01*
X154551428Y-38607142D02*
X154608571Y-38550000D01*
X154722857Y-38492857D01*
X154894285Y-38492857D01*
X155008571Y-38550000D01*
X155065714Y-38664285D01*
X155065714Y-39292857D01*
X87357142Y-43110857D02*
X87357142Y-41910857D01*
X87357142Y-42482285D02*
X88042857Y-42482285D01*
X88042857Y-43110857D02*
X88042857Y-41910857D01*
X88785714Y-43110857D02*
X88671428Y-43053714D01*
X88614285Y-42996571D01*
X88557142Y-42882285D01*
X88557142Y-42539428D01*
X88614285Y-42425142D01*
X88671428Y-42368000D01*
X88785714Y-42310857D01*
X88957142Y-42310857D01*
X89071428Y-42368000D01*
X89128571Y-42425142D01*
X89185714Y-42539428D01*
X89185714Y-42882285D01*
X89128571Y-42996571D01*
X89071428Y-43053714D01*
X88957142Y-43110857D01*
X88785714Y-43110857D01*
X89871428Y-43110857D02*
X89757142Y-43053714D01*
X89700000Y-42939428D01*
X89700000Y-41910857D01*
X90842857Y-43110857D02*
X90842857Y-41910857D01*
X90842857Y-43053714D02*
X90728571Y-43110857D01*
X90500000Y-43110857D01*
X90385714Y-43053714D01*
X90328571Y-42996571D01*
X90271428Y-42882285D01*
X90271428Y-42539428D01*
X90328571Y-42425142D01*
X90385714Y-42368000D01*
X90500000Y-42310857D01*
X90728571Y-42310857D01*
X90842857Y-42368000D01*
X92328571Y-43110857D02*
X92328571Y-41910857D01*
X92328571Y-42368000D02*
X92442857Y-42310857D01*
X92671428Y-42310857D01*
X92785714Y-42368000D01*
X92842857Y-42425142D01*
X92900000Y-42539428D01*
X92900000Y-42882285D01*
X92842857Y-42996571D01*
X92785714Y-43053714D01*
X92671428Y-43110857D01*
X92442857Y-43110857D01*
X92328571Y-43053714D01*
X93928571Y-42310857D02*
X93928571Y-43110857D01*
X93414285Y-42310857D02*
X93414285Y-42939428D01*
X93471428Y-43053714D01*
X93585714Y-43110857D01*
X93757142Y-43110857D01*
X93871428Y-43053714D01*
X93928571Y-42996571D01*
X94328571Y-42310857D02*
X94785714Y-42310857D01*
X94500000Y-41910857D02*
X94500000Y-42939428D01*
X94557142Y-43053714D01*
X94671428Y-43110857D01*
X94785714Y-43110857D01*
X95014285Y-42310857D02*
X95471428Y-42310857D01*
X95185714Y-41910857D02*
X95185714Y-42939428D01*
X95242857Y-43053714D01*
X95357142Y-43110857D01*
X95471428Y-43110857D01*
X96042857Y-43110857D02*
X95928571Y-43053714D01*
X95871428Y-42996571D01*
X95814285Y-42882285D01*
X95814285Y-42539428D01*
X95871428Y-42425142D01*
X95928571Y-42368000D01*
X96042857Y-42310857D01*
X96214285Y-42310857D01*
X96328571Y-42368000D01*
X96385714Y-42425142D01*
X96442857Y-42539428D01*
X96442857Y-42882285D01*
X96385714Y-42996571D01*
X96328571Y-43053714D01*
X96214285Y-43110857D01*
X96042857Y-43110857D01*
X96957142Y-42310857D02*
X96957142Y-43110857D01*
X96957142Y-42425142D02*
X97014285Y-42368000D01*
X97128571Y-42310857D01*
X97300000Y-42310857D01*
X97414285Y-42368000D01*
X97471428Y-42482285D01*
X97471428Y-43110857D01*
X99471428Y-43110857D02*
X99471428Y-42482285D01*
X99414285Y-42368000D01*
X99300000Y-42310857D01*
X99071428Y-42310857D01*
X98957142Y-42368000D01*
X99471428Y-43053714D02*
X99357142Y-43110857D01*
X99071428Y-43110857D01*
X98957142Y-43053714D01*
X98900000Y-42939428D01*
X98900000Y-42825142D01*
X98957142Y-42710857D01*
X99071428Y-42653714D01*
X99357142Y-42653714D01*
X99471428Y-42596571D01*
X100042857Y-42310857D02*
X100042857Y-43110857D01*
X100042857Y-42425142D02*
X100100000Y-42368000D01*
X100214285Y-42310857D01*
X100385714Y-42310857D01*
X100500000Y-42368000D01*
X100557142Y-42482285D01*
X100557142Y-43110857D01*
X101642857Y-43110857D02*
X101642857Y-41910857D01*
X101642857Y-43053714D02*
X101528571Y-43110857D01*
X101300000Y-43110857D01*
X101185714Y-43053714D01*
X101128571Y-42996571D01*
X101071428Y-42882285D01*
X101071428Y-42539428D01*
X101128571Y-42425142D01*
X101185714Y-42368000D01*
X101300000Y-42310857D01*
X101528571Y-42310857D01*
X101642857Y-42368000D01*
X87785714Y-44242857D02*
X88242857Y-44242857D01*
X87957142Y-43842857D02*
X87957142Y-44871428D01*
X88014285Y-44985714D01*
X88128571Y-45042857D01*
X88242857Y-45042857D01*
X88814285Y-45042857D02*
X88700000Y-44985714D01*
X88642857Y-44928571D01*
X88585714Y-44814285D01*
X88585714Y-44471428D01*
X88642857Y-44357142D01*
X88700000Y-44300000D01*
X88814285Y-44242857D01*
X88985714Y-44242857D01*
X89100000Y-44300000D01*
X89157142Y-44357142D01*
X89214285Y-44471428D01*
X89214285Y-44814285D01*
X89157142Y-44928571D01*
X89100000Y-44985714D01*
X88985714Y-45042857D01*
X88814285Y-45042857D01*
X90242857Y-44242857D02*
X90242857Y-45042857D01*
X89728571Y-44242857D02*
X89728571Y-44871428D01*
X89785714Y-44985714D01*
X89900000Y-45042857D01*
X90071428Y-45042857D01*
X90185714Y-44985714D01*
X90242857Y-44928571D01*
X91328571Y-44985714D02*
X91214285Y-45042857D01*
X90985714Y-45042857D01*
X90871428Y-44985714D01*
X90814285Y-44928571D01*
X90757142Y-44814285D01*
X90757142Y-44471428D01*
X90814285Y-44357142D01*
X90871428Y-44300000D01*
X90985714Y-44242857D01*
X91214285Y-44242857D01*
X91328571Y-44300000D01*
X91842857Y-45042857D02*
X91842857Y-43842857D01*
X92357142Y-45042857D02*
X92357142Y-44414285D01*
X92300000Y-44300000D01*
X92185714Y-44242857D01*
X92014285Y-44242857D01*
X91900000Y-44300000D01*
X91842857Y-44357142D01*
X93842857Y-44242857D02*
X93842857Y-45442857D01*
X93842857Y-44300000D02*
X93957142Y-44242857D01*
X94185714Y-44242857D01*
X94300000Y-44300000D01*
X94357142Y-44357142D01*
X94414285Y-44471428D01*
X94414285Y-44814285D01*
X94357142Y-44928571D01*
X94300000Y-44985714D01*
X94185714Y-45042857D01*
X93957142Y-45042857D01*
X93842857Y-44985714D01*
X95442857Y-45042857D02*
X95442857Y-44414285D01*
X95385714Y-44300000D01*
X95271428Y-44242857D01*
X95042857Y-44242857D01*
X94928571Y-44300000D01*
X95442857Y-44985714D02*
X95328571Y-45042857D01*
X95042857Y-45042857D01*
X94928571Y-44985714D01*
X94871428Y-44871428D01*
X94871428Y-44757142D01*
X94928571Y-44642857D01*
X95042857Y-44585714D01*
X95328571Y-44585714D01*
X95442857Y-44528571D01*
X96528571Y-45042857D02*
X96528571Y-43842857D01*
X96528571Y-44985714D02*
X96414285Y-45042857D01*
X96185714Y-45042857D01*
X96071428Y-44985714D01*
X96014285Y-44928571D01*
X95957142Y-44814285D01*
X95957142Y-44471428D01*
X96014285Y-44357142D01*
X96071428Y-44300000D01*
X96185714Y-44242857D01*
X96414285Y-44242857D01*
X96528571Y-44300000D01*
X97900000Y-44242857D02*
X98128571Y-45042857D01*
X98357142Y-44471428D01*
X98585714Y-45042857D01*
X98814285Y-44242857D01*
X99271428Y-45042857D02*
X99271428Y-44242857D01*
X99271428Y-43842857D02*
X99214285Y-43900000D01*
X99271428Y-43957142D01*
X99328571Y-43900000D01*
X99271428Y-43842857D01*
X99271428Y-43957142D01*
X99671428Y-44242857D02*
X100128571Y-44242857D01*
X99842857Y-43842857D02*
X99842857Y-44871428D01*
X99900000Y-44985714D01*
X100014285Y-45042857D01*
X100128571Y-45042857D01*
X100528571Y-45042857D02*
X100528571Y-43842857D01*
X101042857Y-45042857D02*
X101042857Y-44414285D01*
X100985714Y-44300000D01*
X100871428Y-44242857D01*
X100700000Y-44242857D01*
X100585714Y-44300000D01*
X100528571Y-44357142D01*
X86128571Y-46174857D02*
X86128571Y-47374857D01*
X86128571Y-46232000D02*
X86242857Y-46174857D01*
X86471428Y-46174857D01*
X86585714Y-46232000D01*
X86642857Y-46289142D01*
X86699999Y-46403428D01*
X86699999Y-46746285D01*
X86642857Y-46860571D01*
X86585714Y-46917714D01*
X86471428Y-46974857D01*
X86242857Y-46974857D01*
X86128571Y-46917714D01*
X87671428Y-46917714D02*
X87557142Y-46974857D01*
X87328571Y-46974857D01*
X87214285Y-46917714D01*
X87157142Y-46803428D01*
X87157142Y-46346285D01*
X87214285Y-46232000D01*
X87328571Y-46174857D01*
X87557142Y-46174857D01*
X87671428Y-46232000D01*
X87728571Y-46346285D01*
X87728571Y-46460571D01*
X87157142Y-46574857D01*
X88242857Y-46174857D02*
X88242857Y-46974857D01*
X88242857Y-46289142D02*
X88299999Y-46232000D01*
X88414285Y-46174857D01*
X88585714Y-46174857D01*
X88699999Y-46232000D01*
X88757142Y-46346285D01*
X88757142Y-46974857D01*
X90071428Y-46174857D02*
X90528571Y-46174857D01*
X90242857Y-45774857D02*
X90242857Y-46803428D01*
X90299999Y-46917714D01*
X90414285Y-46974857D01*
X90528571Y-46974857D01*
X91099999Y-46974857D02*
X90985714Y-46917714D01*
X90928571Y-46860571D01*
X90871428Y-46746285D01*
X90871428Y-46403428D01*
X90928571Y-46289142D01*
X90985714Y-46232000D01*
X91099999Y-46174857D01*
X91271428Y-46174857D01*
X91385714Y-46232000D01*
X91442857Y-46289142D01*
X91499999Y-46403428D01*
X91499999Y-46746285D01*
X91442857Y-46860571D01*
X91385714Y-46917714D01*
X91271428Y-46974857D01*
X91099999Y-46974857D01*
X92871428Y-46917714D02*
X92985714Y-46974857D01*
X93214285Y-46974857D01*
X93328571Y-46917714D01*
X93385714Y-46803428D01*
X93385714Y-46746285D01*
X93328571Y-46632000D01*
X93214285Y-46574857D01*
X93042857Y-46574857D01*
X92928571Y-46517714D01*
X92871428Y-46403428D01*
X92871428Y-46346285D01*
X92928571Y-46232000D01*
X93042857Y-46174857D01*
X93214285Y-46174857D01*
X93328571Y-46232000D01*
X94357142Y-46917714D02*
X94242857Y-46974857D01*
X94014285Y-46974857D01*
X93899999Y-46917714D01*
X93842857Y-46803428D01*
X93842857Y-46346285D01*
X93899999Y-46232000D01*
X94014285Y-46174857D01*
X94242857Y-46174857D01*
X94357142Y-46232000D01*
X94414285Y-46346285D01*
X94414285Y-46460571D01*
X93842857Y-46574857D01*
X95099999Y-46974857D02*
X94985714Y-46917714D01*
X94928571Y-46803428D01*
X94928571Y-45774857D01*
X96014285Y-46917714D02*
X95900000Y-46974857D01*
X95671428Y-46974857D01*
X95557142Y-46917714D01*
X95500000Y-46803428D01*
X95500000Y-46346285D01*
X95557142Y-46232000D01*
X95671428Y-46174857D01*
X95900000Y-46174857D01*
X96014285Y-46232000D01*
X96071428Y-46346285D01*
X96071428Y-46460571D01*
X95500000Y-46574857D01*
X97100000Y-46917714D02*
X96985714Y-46974857D01*
X96757142Y-46974857D01*
X96642857Y-46917714D01*
X96585714Y-46860571D01*
X96528571Y-46746285D01*
X96528571Y-46403428D01*
X96585714Y-46289142D01*
X96642857Y-46232000D01*
X96757142Y-46174857D01*
X96985714Y-46174857D01*
X97100000Y-46232000D01*
X97442857Y-46174857D02*
X97900000Y-46174857D01*
X97614285Y-45774857D02*
X97614285Y-46803428D01*
X97671428Y-46917714D01*
X97785714Y-46974857D01*
X97900000Y-46974857D01*
X99157142Y-46917714D02*
X99271428Y-46974857D01*
X99500000Y-46974857D01*
X99614285Y-46917714D01*
X99671428Y-46803428D01*
X99671428Y-46746285D01*
X99614285Y-46632000D01*
X99500000Y-46574857D01*
X99328571Y-46574857D01*
X99214285Y-46517714D01*
X99157142Y-46403428D01*
X99157142Y-46346285D01*
X99214285Y-46232000D01*
X99328571Y-46174857D01*
X99500000Y-46174857D01*
X99614285Y-46232000D01*
X100357142Y-46974857D02*
X100242857Y-46917714D01*
X100185714Y-46860571D01*
X100128571Y-46746285D01*
X100128571Y-46403428D01*
X100185714Y-46289142D01*
X100242857Y-46232000D01*
X100357142Y-46174857D01*
X100528571Y-46174857D01*
X100642857Y-46232000D01*
X100700000Y-46289142D01*
X100757142Y-46403428D01*
X100757142Y-46746285D01*
X100700000Y-46860571D01*
X100642857Y-46917714D01*
X100528571Y-46974857D01*
X100357142Y-46974857D01*
X101271428Y-46174857D02*
X101271428Y-46974857D01*
X101271428Y-46289142D02*
X101328571Y-46232000D01*
X101442857Y-46174857D01*
X101614285Y-46174857D01*
X101728571Y-46232000D01*
X101785714Y-46346285D01*
X101785714Y-46974857D01*
X102871428Y-46174857D02*
X102871428Y-47146285D01*
X102814285Y-47260571D01*
X102757142Y-47317714D01*
X102642857Y-47374857D01*
X102471428Y-47374857D01*
X102357142Y-47317714D01*
X102871428Y-46917714D02*
X102757142Y-46974857D01*
X102528571Y-46974857D01*
X102414285Y-46917714D01*
X102357142Y-46860571D01*
X102300000Y-46746285D01*
X102300000Y-46403428D01*
X102357142Y-46289142D01*
X102414285Y-46232000D01*
X102528571Y-46174857D01*
X102757142Y-46174857D01*
X102871428Y-46232000D01*
D11*
X147214285Y-124642857D02*
X146928571Y-124500000D01*
X146785714Y-124357142D01*
X146642857Y-124071428D01*
X146642857Y-123928571D01*
X146785714Y-123642857D01*
X146928571Y-123500000D01*
X147214285Y-123357142D01*
X147785714Y-123357142D01*
X148071428Y-123500000D01*
X148214285Y-123642857D01*
X148357142Y-123928571D01*
X148357142Y-124071428D01*
X148214285Y-124357142D01*
X148071428Y-124500000D01*
X147785714Y-124642857D01*
X147214285Y-124642857D01*
X146928571Y-124785714D01*
X146785714Y-124928571D01*
X146642857Y-125214285D01*
X146642857Y-125785714D01*
X146785714Y-126071428D01*
X146928571Y-126214285D01*
X147214285Y-126357142D01*
X147785714Y-126357142D01*
X148071428Y-126214285D01*
X148214285Y-126071428D01*
X148357142Y-125785714D01*
X148357142Y-125214285D01*
X148214285Y-124928571D01*
X148071428Y-124785714D01*
X147785714Y-124642857D01*
D12*
X142722857Y-41792857D02*
X142951428Y-41792857D01*
X143065714Y-41735714D01*
X143122857Y-41678571D01*
X143237142Y-41507142D01*
X143294285Y-41278571D01*
X143294285Y-40821428D01*
X143237142Y-40707142D01*
X143180000Y-40650000D01*
X143065714Y-40592857D01*
X142837142Y-40592857D01*
X142722857Y-40650000D01*
X142665714Y-40707142D01*
X142608571Y-40821428D01*
X142608571Y-41107142D01*
X142665714Y-41221428D01*
X142722857Y-41278571D01*
X142837142Y-41335714D01*
X143065714Y-41335714D01*
X143180000Y-41278571D01*
X143237142Y-41221428D01*
X143294285Y-41107142D01*
X143808571Y-41678571D02*
X143865714Y-41735714D01*
X143808571Y-41792857D01*
X143751428Y-41735714D01*
X143808571Y-41678571D01*
X143808571Y-41792857D01*
X145865714Y-41792857D02*
X145294285Y-41792857D01*
X145294285Y-40592857D01*
X146722857Y-41735714D02*
X146608571Y-41792857D01*
X146380000Y-41792857D01*
X146265714Y-41735714D01*
X146208571Y-41621428D01*
X146208571Y-41164285D01*
X146265714Y-41050000D01*
X146380000Y-40992857D01*
X146608571Y-40992857D01*
X146722857Y-41050000D01*
X146780000Y-41164285D01*
X146780000Y-41278571D01*
X146208571Y-41392857D01*
X147122857Y-40992857D02*
X147580000Y-40992857D01*
X147294285Y-40592857D02*
X147294285Y-41621428D01*
X147351428Y-41735714D01*
X147465714Y-41792857D01*
X147580000Y-41792857D01*
X148037142Y-40592857D02*
X147922857Y-40821428D01*
X148494285Y-41735714D02*
X148608571Y-41792857D01*
X148837142Y-41792857D01*
X148951428Y-41735714D01*
X149008571Y-41621428D01*
X149008571Y-41564285D01*
X148951428Y-41450000D01*
X148837142Y-41392857D01*
X148665714Y-41392857D01*
X148551428Y-41335714D01*
X148494285Y-41221428D01*
X148494285Y-41164285D01*
X148551428Y-41050000D01*
X148665714Y-40992857D01*
X148837142Y-40992857D01*
X148951428Y-41050000D01*
X151065714Y-40650000D02*
X150951428Y-40592857D01*
X150780000Y-40592857D01*
X150608571Y-40650000D01*
X150494285Y-40764285D01*
X150437142Y-40878571D01*
X150380000Y-41107142D01*
X150380000Y-41278571D01*
X150437142Y-41507142D01*
X150494285Y-41621428D01*
X150608571Y-41735714D01*
X150780000Y-41792857D01*
X150894285Y-41792857D01*
X151065714Y-41735714D01*
X151122857Y-41678571D01*
X151122857Y-41278571D01*
X150894285Y-41278571D01*
X151637142Y-41792857D02*
X151637142Y-40992857D01*
X151637142Y-41221428D02*
X151694285Y-41107142D01*
X151751428Y-41050000D01*
X151865714Y-40992857D01*
X151980000Y-40992857D01*
X152551428Y-41792857D02*
X152437142Y-41735714D01*
X152380000Y-41678571D01*
X152322857Y-41564285D01*
X152322857Y-41221428D01*
X152380000Y-41107142D01*
X152437142Y-41050000D01*
X152551428Y-40992857D01*
X152722857Y-40992857D01*
X152837142Y-41050000D01*
X152894285Y-41107142D01*
X152951428Y-41221428D01*
X152951428Y-41564285D01*
X152894285Y-41678571D01*
X152837142Y-41735714D01*
X152722857Y-41792857D01*
X152551428Y-41792857D01*
X153637142Y-41792857D02*
X153522857Y-41735714D01*
X153465714Y-41678571D01*
X153408571Y-41564285D01*
X153408571Y-41221428D01*
X153465714Y-41107142D01*
X153522857Y-41050000D01*
X153637142Y-40992857D01*
X153808571Y-40992857D01*
X153922857Y-41050000D01*
X153980000Y-41107142D01*
X154037142Y-41221428D01*
X154037142Y-41564285D01*
X153980000Y-41678571D01*
X153922857Y-41735714D01*
X153808571Y-41792857D01*
X153637142Y-41792857D01*
X154437142Y-40992857D02*
X154722857Y-41792857D01*
X155008571Y-40992857D01*
X155922857Y-41735714D02*
X155808571Y-41792857D01*
X155580000Y-41792857D01*
X155465714Y-41735714D01*
X155408571Y-41621428D01*
X155408571Y-41164285D01*
X155465714Y-41050000D01*
X155580000Y-40992857D01*
X155808571Y-40992857D01*
X155922857Y-41050000D01*
X155980000Y-41164285D01*
X155980000Y-41278571D01*
X155408571Y-41392857D01*
D13*
X68052142Y-30263571D02*
X68052142Y-28763571D01*
X68409285Y-28763571D01*
X68623571Y-28835000D01*
X68766428Y-28977857D01*
X68837857Y-29120714D01*
X68909285Y-29406428D01*
X68909285Y-29620714D01*
X68837857Y-29906428D01*
X68766428Y-30049285D01*
X68623571Y-30192142D01*
X68409285Y-30263571D01*
X68052142Y-30263571D01*
X70123571Y-30192142D02*
X69980714Y-30263571D01*
X69695000Y-30263571D01*
X69552142Y-30192142D01*
X69480714Y-30049285D01*
X69480714Y-29477857D01*
X69552142Y-29335000D01*
X69695000Y-29263571D01*
X69980714Y-29263571D01*
X70123571Y-29335000D01*
X70195000Y-29477857D01*
X70195000Y-29620714D01*
X69480714Y-29763571D01*
X70766428Y-30192142D02*
X70909285Y-30263571D01*
X71195000Y-30263571D01*
X71337857Y-30192142D01*
X71409285Y-30049285D01*
X71409285Y-29977857D01*
X71337857Y-29835000D01*
X71195000Y-29763571D01*
X70980714Y-29763571D01*
X70837857Y-29692142D01*
X70766428Y-29549285D01*
X70766428Y-29477857D01*
X70837857Y-29335000D01*
X70980714Y-29263571D01*
X71195000Y-29263571D01*
X71337857Y-29335000D01*
X72052142Y-30263571D02*
X72052142Y-29263571D01*
X72052142Y-28763571D02*
X71980714Y-28835000D01*
X72052142Y-28906428D01*
X72123571Y-28835000D01*
X72052142Y-28763571D01*
X72052142Y-28906428D01*
X73409285Y-29263571D02*
X73409285Y-30477857D01*
X73337857Y-30620714D01*
X73266428Y-30692142D01*
X73123571Y-30763571D01*
X72909285Y-30763571D01*
X72766428Y-30692142D01*
X73409285Y-30192142D02*
X73266428Y-30263571D01*
X72980714Y-30263571D01*
X72837857Y-30192142D01*
X72766428Y-30120714D01*
X72695000Y-29977857D01*
X72695000Y-29549285D01*
X72766428Y-29406428D01*
X72837857Y-29335000D01*
X72980714Y-29263571D01*
X73266428Y-29263571D01*
X73409285Y-29335000D01*
X74123571Y-29263571D02*
X74123571Y-30263571D01*
X74123571Y-29406428D02*
X74195000Y-29335000D01*
X74337857Y-29263571D01*
X74552142Y-29263571D01*
X74695000Y-29335000D01*
X74766428Y-29477857D01*
X74766428Y-30263571D01*
X76052142Y-30192142D02*
X75909285Y-30263571D01*
X75623571Y-30263571D01*
X75480714Y-30192142D01*
X75409285Y-30049285D01*
X75409285Y-29477857D01*
X75480714Y-29335000D01*
X75623571Y-29263571D01*
X75909285Y-29263571D01*
X76052142Y-29335000D01*
X76123571Y-29477857D01*
X76123571Y-29620714D01*
X75409285Y-29763571D01*
X77409285Y-30263571D02*
X77409285Y-28763571D01*
X77409285Y-30192142D02*
X77266428Y-30263571D01*
X76980714Y-30263571D01*
X76837857Y-30192142D01*
X76766428Y-30120714D01*
X76695000Y-29977857D01*
X76695000Y-29549285D01*
X76766428Y-29406428D01*
X76837857Y-29335000D01*
X76980714Y-29263571D01*
X77266428Y-29263571D01*
X77409285Y-29335000D01*
X79266428Y-30263571D02*
X79266428Y-28763571D01*
X79266428Y-29335000D02*
X79409285Y-29263571D01*
X79695000Y-29263571D01*
X79837857Y-29335000D01*
X79909285Y-29406428D01*
X79980714Y-29549285D01*
X79980714Y-29977857D01*
X79909285Y-30120714D01*
X79837857Y-30192142D01*
X79695000Y-30263571D01*
X79409285Y-30263571D01*
X79266428Y-30192142D01*
X80480714Y-29263571D02*
X80837857Y-30263571D01*
X81195000Y-29263571D02*
X80837857Y-30263571D01*
X80695000Y-30620714D01*
X80623571Y-30692142D01*
X80480714Y-30763571D01*
X81766428Y-30120714D02*
X81837857Y-30192142D01*
X81766428Y-30263571D01*
X81695000Y-30192142D01*
X81766428Y-30120714D01*
X81766428Y-30263571D01*
X81766428Y-29335000D02*
X81837857Y-29406428D01*
X81766428Y-29477857D01*
X81695000Y-29406428D01*
X81766428Y-29335000D01*
X81766428Y-29477857D01*
X68052142Y-32678571D02*
X68052142Y-31178571D01*
X68409285Y-31178571D01*
X68623571Y-31250000D01*
X68766428Y-31392857D01*
X68837857Y-31535714D01*
X68909285Y-31821428D01*
X68909285Y-32035714D01*
X68837857Y-32321428D01*
X68766428Y-32464285D01*
X68623571Y-32607142D01*
X68409285Y-32678571D01*
X68052142Y-32678571D01*
X70195000Y-32678571D02*
X70195000Y-31892857D01*
X70123571Y-31750000D01*
X69980714Y-31678571D01*
X69695000Y-31678571D01*
X69552142Y-31750000D01*
X70195000Y-32607142D02*
X70052142Y-32678571D01*
X69695000Y-32678571D01*
X69552142Y-32607142D01*
X69480714Y-32464285D01*
X69480714Y-32321428D01*
X69552142Y-32178571D01*
X69695000Y-32107142D01*
X70052142Y-32107142D01*
X70195000Y-32035714D01*
X70909285Y-31678571D02*
X70909285Y-32678571D01*
X70909285Y-31821428D02*
X70980714Y-31750000D01*
X71123571Y-31678571D01*
X71337857Y-31678571D01*
X71480714Y-31750000D01*
X71552142Y-31892857D01*
X71552142Y-32678571D01*
X72266428Y-32678571D02*
X72266428Y-31678571D01*
X72266428Y-31178571D02*
X72195000Y-31250000D01*
X72266428Y-31321428D01*
X72337857Y-31250000D01*
X72266428Y-31178571D01*
X72266428Y-31321428D01*
X73552142Y-32607142D02*
X73409285Y-32678571D01*
X73123571Y-32678571D01*
X72980714Y-32607142D01*
X72909285Y-32464285D01*
X72909285Y-31892857D01*
X72980714Y-31750000D01*
X73123571Y-31678571D01*
X73409285Y-31678571D01*
X73552142Y-31750000D01*
X73623571Y-31892857D01*
X73623571Y-32035714D01*
X72909285Y-32178571D01*
X74480714Y-32678571D02*
X74337857Y-32607142D01*
X74266428Y-32464285D01*
X74266428Y-31178571D01*
X77195000Y-32821428D02*
X77052142Y-32750000D01*
X76909285Y-32607142D01*
X76695000Y-32392857D01*
X76552142Y-32321428D01*
X76409285Y-32321428D01*
X76480714Y-32678571D02*
X76337857Y-32607142D01*
X76195000Y-32464285D01*
X76123571Y-32178571D01*
X76123571Y-31678571D01*
X76195000Y-31392857D01*
X76337857Y-31250000D01*
X76480714Y-31178571D01*
X76766428Y-31178571D01*
X76909285Y-31250000D01*
X77052142Y-31392857D01*
X77123571Y-31678571D01*
X77123571Y-32178571D01*
X77052142Y-32464285D01*
X76909285Y-32607142D01*
X76766428Y-32678571D01*
X76480714Y-32678571D01*
X78409285Y-31678571D02*
X78409285Y-32678571D01*
X77766428Y-31678571D02*
X77766428Y-32464285D01*
X77837857Y-32607142D01*
X77980714Y-32678571D01*
X78195000Y-32678571D01*
X78337857Y-32607142D01*
X78409285Y-32535714D01*
X79766428Y-32678571D02*
X79766428Y-31892857D01*
X79695000Y-31750000D01*
X79552142Y-31678571D01*
X79266428Y-31678571D01*
X79123571Y-31750000D01*
X79766428Y-32607142D02*
X79623571Y-32678571D01*
X79266428Y-32678571D01*
X79123571Y-32607142D01*
X79052142Y-32464285D01*
X79052142Y-32321428D01*
X79123571Y-32178571D01*
X79266428Y-32107142D01*
X79623571Y-32107142D01*
X79766428Y-32035714D01*
X81123571Y-32607142D02*
X80980714Y-32678571D01*
X80695000Y-32678571D01*
X80552142Y-32607142D01*
X80480714Y-32535714D01*
X80409285Y-32392857D01*
X80409285Y-31964285D01*
X80480714Y-31821428D01*
X80552142Y-31750000D01*
X80695000Y-31678571D01*
X80980714Y-31678571D01*
X81123571Y-31750000D01*
X81766428Y-32678571D02*
X81766428Y-31178571D01*
X82409285Y-32678571D02*
X82409285Y-31892857D01*
X82337857Y-31750000D01*
X82195000Y-31678571D01*
X81980714Y-31678571D01*
X81837857Y-31750000D01*
X81766428Y-31821428D01*
X67980714Y-34665000D02*
X68695000Y-34665000D01*
X67837857Y-35093571D02*
X68337857Y-33593571D01*
X68837857Y-35093571D01*
X69980714Y-35093571D02*
X69980714Y-33593571D01*
X69980714Y-35022142D02*
X69837857Y-35093571D01*
X69552142Y-35093571D01*
X69409285Y-35022142D01*
X69337857Y-34950714D01*
X69266428Y-34807857D01*
X69266428Y-34379285D01*
X69337857Y-34236428D01*
X69409285Y-34165000D01*
X69552142Y-34093571D01*
X69837857Y-34093571D01*
X69980714Y-34165000D01*
X71337857Y-35093571D02*
X71337857Y-34307857D01*
X71266428Y-34165000D01*
X71123571Y-34093571D01*
X70837857Y-34093571D01*
X70695000Y-34165000D01*
X71337857Y-35022142D02*
X71195000Y-35093571D01*
X70837857Y-35093571D01*
X70695000Y-35022142D01*
X70623571Y-34879285D01*
X70623571Y-34736428D01*
X70695000Y-34593571D01*
X70837857Y-34522142D01*
X71195000Y-34522142D01*
X71337857Y-34450714D01*
X72052142Y-35093571D02*
X72052142Y-34093571D01*
X72052142Y-34236428D02*
X72123571Y-34165000D01*
X72266428Y-34093571D01*
X72480714Y-34093571D01*
X72623571Y-34165000D01*
X72695000Y-34307857D01*
X72695000Y-35093571D01*
X72695000Y-34307857D02*
X72766428Y-34165000D01*
X72909285Y-34093571D01*
X73123571Y-34093571D01*
X73266428Y-34165000D01*
X73337857Y-34307857D01*
X73337857Y-35093571D01*
X75123571Y-34665000D02*
X75837857Y-34665000D01*
X74980714Y-35093571D02*
X75480714Y-33593571D01*
X75980714Y-35093571D01*
X76480714Y-34093571D02*
X76480714Y-35093571D01*
X76480714Y-34236428D02*
X76552142Y-34165000D01*
X76695000Y-34093571D01*
X76909285Y-34093571D01*
X77052142Y-34165000D01*
X77123571Y-34307857D01*
X77123571Y-35093571D01*
X78480714Y-35093571D02*
X78480714Y-33593571D01*
X78480714Y-35022142D02*
X78337857Y-35093571D01*
X78052142Y-35093571D01*
X77909285Y-35022142D01*
X77837857Y-34950714D01*
X77766428Y-34807857D01*
X77766428Y-34379285D01*
X77837857Y-34236428D01*
X77909285Y-34165000D01*
X78052142Y-34093571D01*
X78337857Y-34093571D01*
X78480714Y-34165000D01*
X79766428Y-35022142D02*
X79623571Y-35093571D01*
X79337857Y-35093571D01*
X79195000Y-35022142D01*
X79123571Y-34879285D01*
X79123571Y-34307857D01*
X79195000Y-34165000D01*
X79337857Y-34093571D01*
X79623571Y-34093571D01*
X79766428Y-34165000D01*
X79837857Y-34307857D01*
X79837857Y-34450714D01*
X79123571Y-34593571D01*
X80480714Y-35093571D02*
X80480714Y-34093571D01*
X80480714Y-34379285D02*
X80552142Y-34236428D01*
X80623571Y-34165000D01*
X80766428Y-34093571D01*
X80909285Y-34093571D01*
X81337857Y-35022142D02*
X81480714Y-35093571D01*
X81766428Y-35093571D01*
X81909285Y-35022142D01*
X81980714Y-34879285D01*
X81980714Y-34807857D01*
X81909285Y-34665000D01*
X81766428Y-34593571D01*
X81552142Y-34593571D01*
X81409285Y-34522142D01*
X81337857Y-34379285D01*
X81337857Y-34307857D01*
X81409285Y-34165000D01*
X81552142Y-34093571D01*
X81766428Y-34093571D01*
X81909285Y-34165000D01*
X82837857Y-35093571D02*
X82695000Y-35022142D01*
X82623571Y-34950714D01*
X82552142Y-34807857D01*
X82552142Y-34379285D01*
X82623571Y-34236428D01*
X82695000Y-34165000D01*
X82837857Y-34093571D01*
X83052142Y-34093571D01*
X83195000Y-34165000D01*
X83266428Y-34236428D01*
X83337857Y-34379285D01*
X83337857Y-34807857D01*
X83266428Y-34950714D01*
X83195000Y-35022142D01*
X83052142Y-35093571D01*
X82837857Y-35093571D01*
X83980714Y-34093571D02*
X83980714Y-35093571D01*
X83980714Y-34236428D02*
X84052142Y-34165000D01*
X84195000Y-34093571D01*
X84409285Y-34093571D01*
X84552142Y-34165000D01*
X84623571Y-34307857D01*
X84623571Y-35093571D01*
D10*
X54547619Y-50452380D02*
X54214285Y-49976190D01*
X53976190Y-50452380D02*
X53976190Y-49452380D01*
X54357142Y-49452380D01*
X54452380Y-49500000D01*
X54500000Y-49547619D01*
X54547619Y-49642857D01*
X54547619Y-49785714D01*
X54500000Y-49880952D01*
X54452380Y-49928571D01*
X54357142Y-49976190D01*
X53976190Y-49976190D01*
X54976190Y-49928571D02*
X55309523Y-49928571D01*
X55452380Y-50452380D02*
X54976190Y-50452380D01*
X54976190Y-49452380D01*
X55452380Y-49452380D01*
X55833333Y-50404761D02*
X55976190Y-50452380D01*
X56214285Y-50452380D01*
X56309523Y-50404761D01*
X56357142Y-50357142D01*
X56404761Y-50261904D01*
X56404761Y-50166666D01*
X56357142Y-50071428D01*
X56309523Y-50023809D01*
X56214285Y-49976190D01*
X56023809Y-49928571D01*
X55928571Y-49880952D01*
X55880952Y-49833333D01*
X55833333Y-49738095D01*
X55833333Y-49642857D01*
X55880952Y-49547619D01*
X55928571Y-49500000D01*
X56023809Y-49452380D01*
X56261904Y-49452380D01*
X56404761Y-49500000D01*
X56833333Y-49928571D02*
X57166666Y-49928571D01*
X57309523Y-50452380D02*
X56833333Y-50452380D01*
X56833333Y-49452380D01*
X57309523Y-49452380D01*
X57595238Y-49452380D02*
X58166666Y-49452380D01*
X57880952Y-50452380D02*
X57880952Y-49452380D01*
D12*
X107051428Y-40592857D02*
X107794285Y-40592857D01*
X107394285Y-41050000D01*
X107565714Y-41050000D01*
X107680000Y-41107142D01*
X107737142Y-41164285D01*
X107794285Y-41278571D01*
X107794285Y-41564285D01*
X107737142Y-41678571D01*
X107680000Y-41735714D01*
X107565714Y-41792857D01*
X107222857Y-41792857D01*
X107108571Y-41735714D01*
X107051428Y-41678571D01*
X108308571Y-41678571D02*
X108365714Y-41735714D01*
X108308571Y-41792857D01*
X108251428Y-41735714D01*
X108308571Y-41678571D01*
X108308571Y-41792857D01*
X109737142Y-41450000D02*
X110308571Y-41450000D01*
X109622857Y-41792857D02*
X110022857Y-40592857D01*
X110422857Y-41792857D01*
X110994285Y-41792857D02*
X110880000Y-41735714D01*
X110822857Y-41621428D01*
X110822857Y-40592857D01*
X111622857Y-41792857D02*
X111508571Y-41735714D01*
X111451428Y-41621428D01*
X111451428Y-40592857D01*
X112994285Y-41792857D02*
X112994285Y-40592857D01*
X114365714Y-40592857D02*
X114651428Y-41792857D01*
X114880000Y-40935714D01*
X115108571Y-41792857D01*
X115394285Y-40592857D01*
X116365714Y-41792857D02*
X116365714Y-41164285D01*
X116308571Y-41050000D01*
X116194285Y-40992857D01*
X115965714Y-40992857D01*
X115851428Y-41050000D01*
X116365714Y-41735714D02*
X116251428Y-41792857D01*
X115965714Y-41792857D01*
X115851428Y-41735714D01*
X115794285Y-41621428D01*
X115794285Y-41507142D01*
X115851428Y-41392857D01*
X115965714Y-41335714D01*
X116251428Y-41335714D01*
X116365714Y-41278571D01*
X116937142Y-40992857D02*
X116937142Y-41792857D01*
X116937142Y-41107142D02*
X116994285Y-41050000D01*
X117108571Y-40992857D01*
X117280000Y-40992857D01*
X117394285Y-41050000D01*
X117451428Y-41164285D01*
X117451428Y-41792857D01*
X117851428Y-40992857D02*
X118308571Y-40992857D01*
X118022857Y-40592857D02*
X118022857Y-41621428D01*
X118080000Y-41735714D01*
X118194285Y-41792857D01*
X118308571Y-41792857D01*
X120022857Y-41164285D02*
X119622857Y-41164285D01*
X119622857Y-41792857D02*
X119622857Y-40592857D01*
X120194285Y-40592857D01*
X120822857Y-41792857D02*
X120708571Y-41735714D01*
X120651428Y-41678571D01*
X120594285Y-41564285D01*
X120594285Y-41221428D01*
X120651428Y-41107142D01*
X120708571Y-41050000D01*
X120822857Y-40992857D01*
X120994285Y-40992857D01*
X121108571Y-41050000D01*
X121165714Y-41107142D01*
X121222857Y-41221428D01*
X121222857Y-41564285D01*
X121165714Y-41678571D01*
X121108571Y-41735714D01*
X120994285Y-41792857D01*
X120822857Y-41792857D01*
X121737142Y-41792857D02*
X121737142Y-40992857D01*
X121737142Y-41221428D02*
X121794285Y-41107142D01*
X121851428Y-41050000D01*
X121965714Y-40992857D01*
X122080000Y-40992857D01*
X124080000Y-41678571D02*
X124022857Y-41735714D01*
X123851428Y-41792857D01*
X123737142Y-41792857D01*
X123565714Y-41735714D01*
X123451428Y-41621428D01*
X123394285Y-41507142D01*
X123337142Y-41278571D01*
X123337142Y-41107142D01*
X123394285Y-40878571D01*
X123451428Y-40764285D01*
X123565714Y-40650000D01*
X123737142Y-40592857D01*
X123851428Y-40592857D01*
X124022857Y-40650000D01*
X124080000Y-40707142D01*
X124594285Y-41792857D02*
X124594285Y-40592857D01*
X125108571Y-41792857D02*
X125108571Y-41164285D01*
X125051428Y-41050000D01*
X124937142Y-40992857D01*
X124765714Y-40992857D01*
X124651428Y-41050000D01*
X124594285Y-41107142D01*
X125680000Y-41792857D02*
X125680000Y-40992857D01*
X125680000Y-41221428D02*
X125737142Y-41107142D01*
X125794285Y-41050000D01*
X125908571Y-40992857D01*
X126022857Y-40992857D01*
X126422857Y-41792857D02*
X126422857Y-40992857D01*
X126422857Y-40592857D02*
X126365714Y-40650000D01*
X126422857Y-40707142D01*
X126480000Y-40650000D01*
X126422857Y-40592857D01*
X126422857Y-40707142D01*
X126937142Y-41735714D02*
X127051428Y-41792857D01*
X127280000Y-41792857D01*
X127394285Y-41735714D01*
X127451428Y-41621428D01*
X127451428Y-41564285D01*
X127394285Y-41450000D01*
X127280000Y-41392857D01*
X127108571Y-41392857D01*
X126994285Y-41335714D01*
X126937142Y-41221428D01*
X126937142Y-41164285D01*
X126994285Y-41050000D01*
X127108571Y-40992857D01*
X127280000Y-40992857D01*
X127394285Y-41050000D01*
X127794285Y-40992857D02*
X128251428Y-40992857D01*
X127965714Y-40592857D02*
X127965714Y-41621428D01*
X128022857Y-41735714D01*
X128137142Y-41792857D01*
X128251428Y-41792857D01*
X128651428Y-41792857D02*
X128651428Y-40992857D01*
X128651428Y-41107142D02*
X128708571Y-41050000D01*
X128822857Y-40992857D01*
X128994285Y-40992857D01*
X129108571Y-41050000D01*
X129165714Y-41164285D01*
X129165714Y-41792857D01*
X129165714Y-41164285D02*
X129222857Y-41050000D01*
X129337142Y-40992857D01*
X129508571Y-40992857D01*
X129622857Y-41050000D01*
X129680000Y-41164285D01*
X129680000Y-41792857D01*
X130765714Y-41792857D02*
X130765714Y-41164285D01*
X130708571Y-41050000D01*
X130594285Y-40992857D01*
X130365714Y-40992857D01*
X130251428Y-41050000D01*
X130765714Y-41735714D02*
X130651428Y-41792857D01*
X130365714Y-41792857D01*
X130251428Y-41735714D01*
X130194285Y-41621428D01*
X130194285Y-41507142D01*
X130251428Y-41392857D01*
X130365714Y-41335714D01*
X130651428Y-41335714D01*
X130765714Y-41278571D01*
X131280000Y-41735714D02*
X131394285Y-41792857D01*
X131622857Y-41792857D01*
X131737142Y-41735714D01*
X131794285Y-41621428D01*
X131794285Y-41564285D01*
X131737142Y-41450000D01*
X131622857Y-41392857D01*
X131451428Y-41392857D01*
X131337142Y-41335714D01*
X131280000Y-41221428D01*
X131280000Y-41164285D01*
X131337142Y-41050000D01*
X131451428Y-40992857D01*
X131622857Y-40992857D01*
X131737142Y-41050000D01*
X133222857Y-41792857D02*
X133222857Y-40592857D01*
X133737142Y-41735714D02*
X133851428Y-41792857D01*
X134080000Y-41792857D01*
X134194285Y-41735714D01*
X134251428Y-41621428D01*
X134251428Y-41564285D01*
X134194285Y-41450000D01*
X134080000Y-41392857D01*
X133908571Y-41392857D01*
X133794285Y-41335714D01*
X133737142Y-41221428D01*
X133737142Y-41164285D01*
X133794285Y-41050000D01*
X133908571Y-40992857D01*
X134080000Y-40992857D01*
X134194285Y-41050000D01*
X135908571Y-41221428D02*
X135908571Y-41792857D01*
X135508571Y-40592857D02*
X135908571Y-41221428D01*
X136308571Y-40592857D01*
X136880000Y-41792857D02*
X136765714Y-41735714D01*
X136708571Y-41678571D01*
X136651428Y-41564285D01*
X136651428Y-41221428D01*
X136708571Y-41107142D01*
X136765714Y-41050000D01*
X136880000Y-40992857D01*
X137051428Y-40992857D01*
X137165714Y-41050000D01*
X137222857Y-41107142D01*
X137280000Y-41221428D01*
X137280000Y-41564285D01*
X137222857Y-41678571D01*
X137165714Y-41735714D01*
X137051428Y-41792857D01*
X136880000Y-41792857D01*
X138308571Y-40992857D02*
X138308571Y-41792857D01*
X137794285Y-40992857D02*
X137794285Y-41621428D01*
X137851428Y-41735714D01*
X137965714Y-41792857D01*
X138137142Y-41792857D01*
X138251428Y-41735714D01*
X138308571Y-41678571D01*
D10*
X36814285Y-43251428D02*
X37576190Y-43251428D01*
X37195238Y-43632380D02*
X37195238Y-42870476D01*
X37957142Y-42632380D02*
X38576190Y-42632380D01*
X38242857Y-43013333D01*
X38385714Y-43013333D01*
X38480952Y-43060952D01*
X38528571Y-43108571D01*
X38576190Y-43203809D01*
X38576190Y-43441904D01*
X38528571Y-43537142D01*
X38480952Y-43584761D01*
X38385714Y-43632380D01*
X38100000Y-43632380D01*
X38004761Y-43584761D01*
X37957142Y-43537142D01*
X38861904Y-42632380D02*
X39195238Y-43632380D01*
X39528571Y-42632380D01*
X29238095Y-47760000D02*
X29142857Y-47712380D01*
X29000000Y-47712380D01*
X28857142Y-47760000D01*
X28761904Y-47855238D01*
X28714285Y-47950476D01*
X28666666Y-48140952D01*
X28666666Y-48283809D01*
X28714285Y-48474285D01*
X28761904Y-48569523D01*
X28857142Y-48664761D01*
X29000000Y-48712380D01*
X29095238Y-48712380D01*
X29238095Y-48664761D01*
X29285714Y-48617142D01*
X29285714Y-48283809D01*
X29095238Y-48283809D01*
X29714285Y-48712380D02*
X29714285Y-47712380D01*
X30285714Y-48712380D01*
X30285714Y-47712380D01*
X30761904Y-48712380D02*
X30761904Y-47712380D01*
X31000000Y-47712380D01*
X31142857Y-47760000D01*
X31238095Y-47855238D01*
X31285714Y-47950476D01*
X31333333Y-48140952D01*
X31333333Y-48283809D01*
X31285714Y-48474285D01*
X31238095Y-48569523D01*
X31142857Y-48664761D01*
X31000000Y-48712380D01*
X30761904Y-48712380D01*
D12*
X142294285Y-44292857D02*
X141608571Y-44292857D01*
X141951428Y-44292857D02*
X141951428Y-43092857D01*
X141837142Y-43264285D01*
X141722857Y-43378571D01*
X141608571Y-43435714D01*
X143037142Y-43092857D02*
X143151428Y-43092857D01*
X143265714Y-43150000D01*
X143322857Y-43207142D01*
X143380000Y-43321428D01*
X143437142Y-43550000D01*
X143437142Y-43835714D01*
X143380000Y-44064285D01*
X143322857Y-44178571D01*
X143265714Y-44235714D01*
X143151428Y-44292857D01*
X143037142Y-44292857D01*
X142922857Y-44235714D01*
X142865714Y-44178571D01*
X142808571Y-44064285D01*
X142751428Y-43835714D01*
X142751428Y-43550000D01*
X142808571Y-43321428D01*
X142865714Y-43207142D01*
X142922857Y-43150000D01*
X143037142Y-43092857D01*
X143951428Y-44178571D02*
X144008571Y-44235714D01*
X143951428Y-44292857D01*
X143894285Y-44235714D01*
X143951428Y-44178571D01*
X143951428Y-44292857D01*
X145437142Y-44292857D02*
X145437142Y-43092857D01*
X146122857Y-44292857D01*
X146122857Y-43092857D01*
X147151428Y-44235714D02*
X147037142Y-44292857D01*
X146808571Y-44292857D01*
X146694285Y-44235714D01*
X146637142Y-44121428D01*
X146637142Y-43664285D01*
X146694285Y-43550000D01*
X146808571Y-43492857D01*
X147037142Y-43492857D01*
X147151428Y-43550000D01*
X147208571Y-43664285D01*
X147208571Y-43778571D01*
X146637142Y-43892857D01*
X147608571Y-43492857D02*
X147894285Y-44292857D01*
X148180000Y-43492857D01*
X149094285Y-44235714D02*
X148980000Y-44292857D01*
X148751428Y-44292857D01*
X148637142Y-44235714D01*
X148580000Y-44121428D01*
X148580000Y-43664285D01*
X148637142Y-43550000D01*
X148751428Y-43492857D01*
X148980000Y-43492857D01*
X149094285Y-43550000D01*
X149151428Y-43664285D01*
X149151428Y-43778571D01*
X148580000Y-43892857D01*
X149665714Y-44292857D02*
X149665714Y-43492857D01*
X149665714Y-43721428D02*
X149722857Y-43607142D01*
X149780000Y-43550000D01*
X149894285Y-43492857D01*
X150008571Y-43492857D01*
X151951428Y-43150000D02*
X151837142Y-43092857D01*
X151665714Y-43092857D01*
X151494285Y-43150000D01*
X151380000Y-43264285D01*
X151322857Y-43378571D01*
X151265714Y-43607142D01*
X151265714Y-43778571D01*
X151322857Y-44007142D01*
X151380000Y-44121428D01*
X151494285Y-44235714D01*
X151665714Y-44292857D01*
X151780000Y-44292857D01*
X151951428Y-44235714D01*
X152008571Y-44178571D01*
X152008571Y-43778571D01*
X151780000Y-43778571D01*
X152694285Y-44292857D02*
X152580000Y-44235714D01*
X152522857Y-44178571D01*
X152465714Y-44064285D01*
X152465714Y-43721428D01*
X152522857Y-43607142D01*
X152580000Y-43550000D01*
X152694285Y-43492857D01*
X152865714Y-43492857D01*
X152980000Y-43550000D01*
X153037142Y-43607142D01*
X153094285Y-43721428D01*
X153094285Y-44064285D01*
X153037142Y-44178571D01*
X152980000Y-44235714D01*
X152865714Y-44292857D01*
X152694285Y-44292857D01*
X153608571Y-43492857D02*
X153608571Y-44292857D01*
X153608571Y-43607142D02*
X153665714Y-43550000D01*
X153780000Y-43492857D01*
X153951428Y-43492857D01*
X154065714Y-43550000D01*
X154122857Y-43664285D01*
X154122857Y-44292857D01*
X154694285Y-43492857D02*
X154694285Y-44292857D01*
X154694285Y-43607142D02*
X154751428Y-43550000D01*
X154865714Y-43492857D01*
X155037142Y-43492857D01*
X155151428Y-43550000D01*
X155208571Y-43664285D01*
X155208571Y-44292857D01*
X156294285Y-44292857D02*
X156294285Y-43664285D01*
X156237142Y-43550000D01*
X156122857Y-43492857D01*
X155894285Y-43492857D01*
X155780000Y-43550000D01*
X156294285Y-44235714D02*
X156180000Y-44292857D01*
X155894285Y-44292857D01*
X155780000Y-44235714D01*
X155722857Y-44121428D01*
X155722857Y-44007142D01*
X155780000Y-43892857D01*
X155894285Y-43835714D01*
X156180000Y-43835714D01*
X156294285Y-43778571D01*
X158408571Y-43150000D02*
X158294285Y-43092857D01*
X158122857Y-43092857D01*
X157951428Y-43150000D01*
X157837142Y-43264285D01*
X157780000Y-43378571D01*
X157722857Y-43607142D01*
X157722857Y-43778571D01*
X157780000Y-44007142D01*
X157837142Y-44121428D01*
X157951428Y-44235714D01*
X158122857Y-44292857D01*
X158237142Y-44292857D01*
X158408571Y-44235714D01*
X158465714Y-44178571D01*
X158465714Y-43778571D01*
X158237142Y-43778571D01*
X158980000Y-44292857D02*
X158980000Y-43492857D01*
X158980000Y-43092857D02*
X158922857Y-43150000D01*
X158980000Y-43207142D01*
X159037142Y-43150000D01*
X158980000Y-43092857D01*
X158980000Y-43207142D01*
X159437142Y-43492857D02*
X159722857Y-44292857D01*
X160008571Y-43492857D01*
X160922857Y-44235714D02*
X160808571Y-44292857D01*
X160580000Y-44292857D01*
X160465714Y-44235714D01*
X160408571Y-44121428D01*
X160408571Y-43664285D01*
X160465714Y-43550000D01*
X160580000Y-43492857D01*
X160808571Y-43492857D01*
X160922857Y-43550000D01*
X160980000Y-43664285D01*
X160980000Y-43778571D01*
X160408571Y-43892857D01*
X162637142Y-43721428D02*
X162637142Y-44292857D01*
X162237142Y-43092857D02*
X162637142Y-43721428D01*
X163037142Y-43092857D01*
X163608571Y-44292857D02*
X163494285Y-44235714D01*
X163437142Y-44178571D01*
X163380000Y-44064285D01*
X163380000Y-43721428D01*
X163437142Y-43607142D01*
X163494285Y-43550000D01*
X163608571Y-43492857D01*
X163780000Y-43492857D01*
X163894285Y-43550000D01*
X163951428Y-43607142D01*
X164008571Y-43721428D01*
X164008571Y-44064285D01*
X163951428Y-44178571D01*
X163894285Y-44235714D01*
X163780000Y-44292857D01*
X163608571Y-44292857D01*
X165037142Y-43492857D02*
X165037142Y-44292857D01*
X164522857Y-43492857D02*
X164522857Y-44121428D01*
X164580000Y-44235714D01*
X164694285Y-44292857D01*
X164865714Y-44292857D01*
X164980000Y-44235714D01*
X165037142Y-44178571D01*
X166522857Y-43092857D02*
X166522857Y-44064285D01*
X166580000Y-44178571D01*
X166637142Y-44235714D01*
X166751428Y-44292857D01*
X166980000Y-44292857D01*
X167094285Y-44235714D01*
X167151428Y-44178571D01*
X167208571Y-44064285D01*
X167208571Y-43092857D01*
X167780000Y-43492857D02*
X167780000Y-44692857D01*
X167780000Y-43550000D02*
X167894285Y-43492857D01*
X168122857Y-43492857D01*
X168237142Y-43550000D01*
X168294285Y-43607142D01*
X168351428Y-43721428D01*
X168351428Y-44064285D01*
X168294285Y-44178571D01*
X168237142Y-44235714D01*
X168122857Y-44292857D01*
X167894285Y-44292857D01*
X167780000Y-44235714D01*
D11*
X161928571Y-91357142D02*
X162500000Y-91357142D01*
X162785714Y-91214285D01*
X162928571Y-91071428D01*
X163214285Y-90642857D01*
X163357142Y-90071428D01*
X163357142Y-88928571D01*
X163214285Y-88642857D01*
X163071428Y-88500000D01*
X162785714Y-88357142D01*
X162214285Y-88357142D01*
X161928571Y-88500000D01*
X161785714Y-88642857D01*
X161642857Y-88928571D01*
X161642857Y-89642857D01*
X161785714Y-89928571D01*
X161928571Y-90071428D01*
X162214285Y-90214285D01*
X162785714Y-90214285D01*
X163071428Y-90071428D01*
X163214285Y-89928571D01*
X163357142Y-89642857D01*
D12*
X107680000Y-43492857D02*
X107680000Y-44292857D01*
X107394285Y-43035714D02*
X107108571Y-43892857D01*
X107851428Y-43892857D01*
X108308571Y-44178571D02*
X108365714Y-44235714D01*
X108308571Y-44292857D01*
X108251428Y-44235714D01*
X108308571Y-44178571D01*
X108308571Y-44292857D01*
X110480000Y-44292857D02*
X110080000Y-43721428D01*
X109794285Y-44292857D02*
X109794285Y-43092857D01*
X110251428Y-43092857D01*
X110365714Y-43150000D01*
X110422857Y-43207142D01*
X110480000Y-43321428D01*
X110480000Y-43492857D01*
X110422857Y-43607142D01*
X110365714Y-43664285D01*
X110251428Y-43721428D01*
X109794285Y-43721428D01*
X111165714Y-44292857D02*
X111051428Y-44235714D01*
X110994285Y-44178571D01*
X110937142Y-44064285D01*
X110937142Y-43721428D01*
X110994285Y-43607142D01*
X111051428Y-43550000D01*
X111165714Y-43492857D01*
X111337142Y-43492857D01*
X111451428Y-43550000D01*
X111508571Y-43607142D01*
X111565714Y-43721428D01*
X111565714Y-44064285D01*
X111508571Y-44178571D01*
X111451428Y-44235714D01*
X111337142Y-44292857D01*
X111165714Y-44292857D01*
X112594285Y-44235714D02*
X112480000Y-44292857D01*
X112251428Y-44292857D01*
X112137142Y-44235714D01*
X112080000Y-44178571D01*
X112022857Y-44064285D01*
X112022857Y-43721428D01*
X112080000Y-43607142D01*
X112137142Y-43550000D01*
X112251428Y-43492857D01*
X112480000Y-43492857D01*
X112594285Y-43550000D01*
X113108571Y-44292857D02*
X113108571Y-43092857D01*
X113222857Y-43835714D02*
X113565714Y-44292857D01*
X113565714Y-43492857D02*
X113108571Y-43950000D01*
X114080000Y-44292857D02*
X114080000Y-43492857D01*
X114080000Y-43092857D02*
X114022857Y-43150000D01*
X114080000Y-43207142D01*
X114137142Y-43150000D01*
X114080000Y-43092857D01*
X114080000Y-43207142D01*
X114651428Y-43492857D02*
X114651428Y-44292857D01*
X114651428Y-43607142D02*
X114708571Y-43550000D01*
X114822857Y-43492857D01*
X114994285Y-43492857D01*
X115108571Y-43550000D01*
X115165714Y-43664285D01*
X115165714Y-44292857D01*
X116594285Y-43950000D02*
X117165714Y-43950000D01*
X116480000Y-44292857D02*
X116880000Y-43092857D01*
X117280000Y-44292857D01*
X117680000Y-44292857D02*
X117680000Y-43492857D01*
X117680000Y-43721428D02*
X117737142Y-43607142D01*
X117794285Y-43550000D01*
X117908571Y-43492857D01*
X118022857Y-43492857D01*
X118594285Y-44292857D02*
X118480000Y-44235714D01*
X118422857Y-44178571D01*
X118365714Y-44064285D01*
X118365714Y-43721428D01*
X118422857Y-43607142D01*
X118480000Y-43550000D01*
X118594285Y-43492857D01*
X118765714Y-43492857D01*
X118880000Y-43550000D01*
X118937142Y-43607142D01*
X118994285Y-43721428D01*
X118994285Y-44064285D01*
X118937142Y-44178571D01*
X118880000Y-44235714D01*
X118765714Y-44292857D01*
X118594285Y-44292857D01*
X120022857Y-43492857D02*
X120022857Y-44292857D01*
X119508571Y-43492857D02*
X119508571Y-44121428D01*
X119565714Y-44235714D01*
X119680000Y-44292857D01*
X119851428Y-44292857D01*
X119965714Y-44235714D01*
X120022857Y-44178571D01*
X120594285Y-43492857D02*
X120594285Y-44292857D01*
X120594285Y-43607142D02*
X120651428Y-43550000D01*
X120765714Y-43492857D01*
X120937142Y-43492857D01*
X121051428Y-43550000D01*
X121108571Y-43664285D01*
X121108571Y-44292857D01*
X122194285Y-44292857D02*
X122194285Y-43092857D01*
X122194285Y-44235714D02*
X122080000Y-44292857D01*
X121851428Y-44292857D01*
X121737142Y-44235714D01*
X121680000Y-44178571D01*
X121622857Y-44064285D01*
X121622857Y-43721428D01*
X121680000Y-43607142D01*
X121737142Y-43550000D01*
X121851428Y-43492857D01*
X122080000Y-43492857D01*
X122194285Y-43550000D01*
X123508571Y-43092857D02*
X124194285Y-43092857D01*
X123851428Y-44292857D02*
X123851428Y-43092857D01*
X124594285Y-44292857D02*
X124594285Y-43092857D01*
X125108571Y-44292857D02*
X125108571Y-43664285D01*
X125051428Y-43550000D01*
X124937142Y-43492857D01*
X124765714Y-43492857D01*
X124651428Y-43550000D01*
X124594285Y-43607142D01*
X126137142Y-44235714D02*
X126022857Y-44292857D01*
X125794285Y-44292857D01*
X125680000Y-44235714D01*
X125622857Y-44121428D01*
X125622857Y-43664285D01*
X125680000Y-43550000D01*
X125794285Y-43492857D01*
X126022857Y-43492857D01*
X126137142Y-43550000D01*
X126194285Y-43664285D01*
X126194285Y-43778571D01*
X125622857Y-43892857D01*
X128308571Y-44178571D02*
X128251428Y-44235714D01*
X128080000Y-44292857D01*
X127965714Y-44292857D01*
X127794285Y-44235714D01*
X127680000Y-44121428D01*
X127622857Y-44007142D01*
X127565714Y-43778571D01*
X127565714Y-43607142D01*
X127622857Y-43378571D01*
X127680000Y-43264285D01*
X127794285Y-43150000D01*
X127965714Y-43092857D01*
X128080000Y-43092857D01*
X128251428Y-43150000D01*
X128308571Y-43207142D01*
X128822857Y-44292857D02*
X128822857Y-43092857D01*
X129337142Y-44292857D02*
X129337142Y-43664285D01*
X129280000Y-43550000D01*
X129165714Y-43492857D01*
X128994285Y-43492857D01*
X128880000Y-43550000D01*
X128822857Y-43607142D01*
X129908571Y-44292857D02*
X129908571Y-43492857D01*
X129908571Y-43721428D02*
X129965714Y-43607142D01*
X130022857Y-43550000D01*
X130137142Y-43492857D01*
X130251428Y-43492857D01*
X130651428Y-44292857D02*
X130651428Y-43492857D01*
X130651428Y-43092857D02*
X130594285Y-43150000D01*
X130651428Y-43207142D01*
X130708571Y-43150000D01*
X130651428Y-43092857D01*
X130651428Y-43207142D01*
X131165714Y-44235714D02*
X131280000Y-44292857D01*
X131508571Y-44292857D01*
X131622857Y-44235714D01*
X131680000Y-44121428D01*
X131680000Y-44064285D01*
X131622857Y-43950000D01*
X131508571Y-43892857D01*
X131337142Y-43892857D01*
X131222857Y-43835714D01*
X131165714Y-43721428D01*
X131165714Y-43664285D01*
X131222857Y-43550000D01*
X131337142Y-43492857D01*
X131508571Y-43492857D01*
X131622857Y-43550000D01*
X132022857Y-43492857D02*
X132480000Y-43492857D01*
X132194285Y-43092857D02*
X132194285Y-44121428D01*
X132251428Y-44235714D01*
X132365714Y-44292857D01*
X132480000Y-44292857D01*
X132880000Y-44292857D02*
X132880000Y-43492857D01*
X132880000Y-43607142D02*
X132937142Y-43550000D01*
X133051428Y-43492857D01*
X133222857Y-43492857D01*
X133337142Y-43550000D01*
X133394285Y-43664285D01*
X133394285Y-44292857D01*
X133394285Y-43664285D02*
X133451428Y-43550000D01*
X133565714Y-43492857D01*
X133737142Y-43492857D01*
X133851428Y-43550000D01*
X133908571Y-43664285D01*
X133908571Y-44292857D01*
X134994285Y-44292857D02*
X134994285Y-43664285D01*
X134937142Y-43550000D01*
X134822857Y-43492857D01*
X134594285Y-43492857D01*
X134480000Y-43550000D01*
X134994285Y-44235714D02*
X134880000Y-44292857D01*
X134594285Y-44292857D01*
X134480000Y-44235714D01*
X134422857Y-44121428D01*
X134422857Y-44007142D01*
X134480000Y-43892857D01*
X134594285Y-43835714D01*
X134880000Y-43835714D01*
X134994285Y-43778571D01*
X135508571Y-44235714D02*
X135622857Y-44292857D01*
X135851428Y-44292857D01*
X135965714Y-44235714D01*
X136022857Y-44121428D01*
X136022857Y-44064285D01*
X135965714Y-43950000D01*
X135851428Y-43892857D01*
X135680000Y-43892857D01*
X135565714Y-43835714D01*
X135508571Y-43721428D01*
X135508571Y-43664285D01*
X135565714Y-43550000D01*
X135680000Y-43492857D01*
X135851428Y-43492857D01*
X135965714Y-43550000D01*
X137280000Y-43092857D02*
X137965714Y-43092857D01*
X137622857Y-44292857D02*
X137622857Y-43092857D01*
X138365714Y-44292857D02*
X138365714Y-43492857D01*
X138365714Y-43721428D02*
X138422857Y-43607142D01*
X138480000Y-43550000D01*
X138594285Y-43492857D01*
X138708571Y-43492857D01*
X139565714Y-44235714D02*
X139451428Y-44292857D01*
X139222857Y-44292857D01*
X139108571Y-44235714D01*
X139051428Y-44121428D01*
X139051428Y-43664285D01*
X139108571Y-43550000D01*
X139222857Y-43492857D01*
X139451428Y-43492857D01*
X139565714Y-43550000D01*
X139622857Y-43664285D01*
X139622857Y-43778571D01*
X139051428Y-43892857D01*
X140594285Y-44235714D02*
X140480000Y-44292857D01*
X140251428Y-44292857D01*
X140137142Y-44235714D01*
X140080000Y-44121428D01*
X140080000Y-43664285D01*
X140137142Y-43550000D01*
X140251428Y-43492857D01*
X140480000Y-43492857D01*
X140594285Y-43550000D01*
X140651428Y-43664285D01*
X140651428Y-43778571D01*
X140080000Y-43892857D01*
X107108571Y-38207142D02*
X107165714Y-38150000D01*
X107280000Y-38092857D01*
X107565714Y-38092857D01*
X107680000Y-38150000D01*
X107737142Y-38207142D01*
X107794285Y-38321428D01*
X107794285Y-38435714D01*
X107737142Y-38607142D01*
X107051428Y-39292857D01*
X107794285Y-39292857D01*
X108308571Y-39178571D02*
X108365714Y-39235714D01*
X108308571Y-39292857D01*
X108251428Y-39235714D01*
X108308571Y-39178571D01*
X108308571Y-39292857D01*
X110137142Y-38092857D02*
X110137142Y-38950000D01*
X110080000Y-39121428D01*
X109965714Y-39235714D01*
X109794285Y-39292857D01*
X109680000Y-39292857D01*
X110708571Y-39292857D02*
X110708571Y-38492857D01*
X110708571Y-38092857D02*
X110651428Y-38150000D01*
X110708571Y-38207142D01*
X110765714Y-38150000D01*
X110708571Y-38092857D01*
X110708571Y-38207142D01*
X111280000Y-38492857D02*
X111280000Y-39292857D01*
X111280000Y-38607142D02*
X111337142Y-38550000D01*
X111451428Y-38492857D01*
X111622857Y-38492857D01*
X111737142Y-38550000D01*
X111794285Y-38664285D01*
X111794285Y-39292857D01*
X112880000Y-38492857D02*
X112880000Y-39464285D01*
X112822857Y-39578571D01*
X112765714Y-39635714D01*
X112651428Y-39692857D01*
X112480000Y-39692857D01*
X112365714Y-39635714D01*
X112880000Y-39235714D02*
X112765714Y-39292857D01*
X112537142Y-39292857D01*
X112422857Y-39235714D01*
X112365714Y-39178571D01*
X112308571Y-39064285D01*
X112308571Y-38721428D01*
X112365714Y-38607142D01*
X112422857Y-38550000D01*
X112537142Y-38492857D01*
X112765714Y-38492857D01*
X112880000Y-38550000D01*
X113622857Y-39292857D02*
X113508571Y-39235714D01*
X113451428Y-39121428D01*
X113451428Y-38092857D01*
X114537142Y-39235714D02*
X114422857Y-39292857D01*
X114194285Y-39292857D01*
X114080000Y-39235714D01*
X114022857Y-39121428D01*
X114022857Y-38664285D01*
X114080000Y-38550000D01*
X114194285Y-38492857D01*
X114422857Y-38492857D01*
X114537142Y-38550000D01*
X114594285Y-38664285D01*
X114594285Y-38778571D01*
X114022857Y-38892857D01*
X116422857Y-38664285D02*
X116594285Y-38721428D01*
X116651428Y-38778571D01*
X116708571Y-38892857D01*
X116708571Y-39064285D01*
X116651428Y-39178571D01*
X116594285Y-39235714D01*
X116480000Y-39292857D01*
X116022857Y-39292857D01*
X116022857Y-38092857D01*
X116422857Y-38092857D01*
X116537142Y-38150000D01*
X116594285Y-38207142D01*
X116651428Y-38321428D01*
X116651428Y-38435714D01*
X116594285Y-38550000D01*
X116537142Y-38607142D01*
X116422857Y-38664285D01*
X116022857Y-38664285D01*
X117680000Y-39235714D02*
X117565714Y-39292857D01*
X117337142Y-39292857D01*
X117222857Y-39235714D01*
X117165714Y-39121428D01*
X117165714Y-38664285D01*
X117222857Y-38550000D01*
X117337142Y-38492857D01*
X117565714Y-38492857D01*
X117680000Y-38550000D01*
X117737142Y-38664285D01*
X117737142Y-38778571D01*
X117165714Y-38892857D01*
X118422857Y-39292857D02*
X118308571Y-39235714D01*
X118251428Y-39121428D01*
X118251428Y-38092857D01*
X119051428Y-39292857D02*
X118937142Y-39235714D01*
X118880000Y-39121428D01*
X118880000Y-38092857D01*
X119451428Y-39235714D02*
X119565714Y-39292857D01*
X119794285Y-39292857D01*
X119908571Y-39235714D01*
X119965714Y-39121428D01*
X119965714Y-39064285D01*
X119908571Y-38950000D01*
X119794285Y-38892857D01*
X119622857Y-38892857D01*
X119508571Y-38835714D01*
X119451428Y-38721428D01*
X119451428Y-38664285D01*
X119508571Y-38550000D01*
X119622857Y-38492857D01*
X119794285Y-38492857D01*
X119908571Y-38550000D01*
X107737142Y-45592857D02*
X107165714Y-45592857D01*
X107108571Y-46164285D01*
X107165714Y-46107142D01*
X107280000Y-46050000D01*
X107565714Y-46050000D01*
X107680000Y-46107142D01*
X107737142Y-46164285D01*
X107794285Y-46278571D01*
X107794285Y-46564285D01*
X107737142Y-46678571D01*
X107680000Y-46735714D01*
X107565714Y-46792857D01*
X107280000Y-46792857D01*
X107165714Y-46735714D01*
X107108571Y-46678571D01*
X108308571Y-46678571D02*
X108365714Y-46735714D01*
X108308571Y-46792857D01*
X108251428Y-46735714D01*
X108308571Y-46678571D01*
X108308571Y-46792857D01*
X110194285Y-46164285D02*
X109794285Y-46164285D01*
X109794285Y-46792857D02*
X109794285Y-45592857D01*
X110365714Y-45592857D01*
X111280000Y-46735714D02*
X111165714Y-46792857D01*
X110937142Y-46792857D01*
X110822857Y-46735714D01*
X110765714Y-46621428D01*
X110765714Y-46164285D01*
X110822857Y-46050000D01*
X110937142Y-45992857D01*
X111165714Y-45992857D01*
X111280000Y-46050000D01*
X111337142Y-46164285D01*
X111337142Y-46278571D01*
X110765714Y-46392857D01*
X112022857Y-46792857D02*
X111908571Y-46735714D01*
X111851428Y-46621428D01*
X111851428Y-45592857D01*
X112480000Y-46792857D02*
X112480000Y-45992857D01*
X112480000Y-45592857D02*
X112422857Y-45650000D01*
X112480000Y-45707142D01*
X112537142Y-45650000D01*
X112480000Y-45592857D01*
X112480000Y-45707142D01*
X112937142Y-45992857D02*
X113565714Y-45992857D01*
X112937142Y-46792857D01*
X113565714Y-46792857D01*
X114937142Y-46792857D02*
X114937142Y-45592857D01*
X115622857Y-46792857D01*
X115622857Y-45592857D01*
X116708571Y-46792857D02*
X116708571Y-46164285D01*
X116651428Y-46050000D01*
X116537142Y-45992857D01*
X116308571Y-45992857D01*
X116194285Y-46050000D01*
X116708571Y-46735714D02*
X116594285Y-46792857D01*
X116308571Y-46792857D01*
X116194285Y-46735714D01*
X116137142Y-46621428D01*
X116137142Y-46507142D01*
X116194285Y-46392857D01*
X116308571Y-46335714D01*
X116594285Y-46335714D01*
X116708571Y-46278571D01*
X117165714Y-45992857D02*
X117451428Y-46792857D01*
X117737142Y-45992857D01*
X118194285Y-46792857D02*
X118194285Y-45992857D01*
X118194285Y-45592857D02*
X118137142Y-45650000D01*
X118194285Y-45707142D01*
X118251428Y-45650000D01*
X118194285Y-45592857D01*
X118194285Y-45707142D01*
X119280000Y-46792857D02*
X119280000Y-45592857D01*
X119280000Y-46735714D02*
X119165714Y-46792857D01*
X118937142Y-46792857D01*
X118822857Y-46735714D01*
X118765714Y-46678571D01*
X118708571Y-46564285D01*
X118708571Y-46221428D01*
X118765714Y-46107142D01*
X118822857Y-46050000D01*
X118937142Y-45992857D01*
X119165714Y-45992857D01*
X119280000Y-46050000D01*
X120365714Y-46792857D02*
X120365714Y-46164285D01*
X120308571Y-46050000D01*
X120194285Y-45992857D01*
X119965714Y-45992857D01*
X119851428Y-46050000D01*
X120365714Y-46735714D02*
X120251428Y-46792857D01*
X119965714Y-46792857D01*
X119851428Y-46735714D01*
X119794285Y-46621428D01*
X119794285Y-46507142D01*
X119851428Y-46392857D01*
X119965714Y-46335714D01*
X120251428Y-46335714D01*
X120365714Y-46278571D01*
X121451428Y-46792857D02*
X121451428Y-45592857D01*
X121451428Y-46735714D02*
X121337142Y-46792857D01*
X121108571Y-46792857D01*
X120994285Y-46735714D01*
X120937142Y-46678571D01*
X120880000Y-46564285D01*
X120880000Y-46221428D01*
X120937142Y-46107142D01*
X120994285Y-46050000D01*
X121108571Y-45992857D01*
X121337142Y-45992857D01*
X121451428Y-46050000D01*
X107680000Y-48092857D02*
X107451428Y-48092857D01*
X107337142Y-48150000D01*
X107280000Y-48207142D01*
X107165714Y-48378571D01*
X107108571Y-48607142D01*
X107108571Y-49064285D01*
X107165714Y-49178571D01*
X107222857Y-49235714D01*
X107337142Y-49292857D01*
X107565714Y-49292857D01*
X107680000Y-49235714D01*
X107737142Y-49178571D01*
X107794285Y-49064285D01*
X107794285Y-48778571D01*
X107737142Y-48664285D01*
X107680000Y-48607142D01*
X107565714Y-48550000D01*
X107337142Y-48550000D01*
X107222857Y-48607142D01*
X107165714Y-48664285D01*
X107108571Y-48778571D01*
X108308571Y-49178571D02*
X108365714Y-49235714D01*
X108308571Y-49292857D01*
X108251428Y-49235714D01*
X108308571Y-49178571D01*
X108308571Y-49292857D01*
X109680000Y-48092857D02*
X109965714Y-49292857D01*
X110194285Y-48435714D01*
X110422857Y-49292857D01*
X110708571Y-48092857D01*
X111622857Y-49235714D02*
X111508571Y-49292857D01*
X111280000Y-49292857D01*
X111165714Y-49235714D01*
X111108571Y-49121428D01*
X111108571Y-48664285D01*
X111165714Y-48550000D01*
X111280000Y-48492857D01*
X111508571Y-48492857D01*
X111622857Y-48550000D01*
X111680000Y-48664285D01*
X111680000Y-48778571D01*
X111108571Y-48892857D01*
X112994285Y-48092857D02*
X113280000Y-49292857D01*
X113508571Y-48435714D01*
X113737142Y-49292857D01*
X114022857Y-48092857D01*
X114480000Y-49292857D02*
X114480000Y-48492857D01*
X114480000Y-48092857D02*
X114422857Y-48150000D01*
X114480000Y-48207142D01*
X114537142Y-48150000D01*
X114480000Y-48092857D01*
X114480000Y-48207142D01*
X114994285Y-49235714D02*
X115108571Y-49292857D01*
X115337142Y-49292857D01*
X115451428Y-49235714D01*
X115508571Y-49121428D01*
X115508571Y-49064285D01*
X115451428Y-48950000D01*
X115337142Y-48892857D01*
X115165714Y-48892857D01*
X115051428Y-48835714D01*
X114994285Y-48721428D01*
X114994285Y-48664285D01*
X115051428Y-48550000D01*
X115165714Y-48492857D01*
X115337142Y-48492857D01*
X115451428Y-48550000D01*
X116022857Y-49292857D02*
X116022857Y-48092857D01*
X116537142Y-49292857D02*
X116537142Y-48664285D01*
X116480000Y-48550000D01*
X116365714Y-48492857D01*
X116194285Y-48492857D01*
X116080000Y-48550000D01*
X116022857Y-48607142D01*
X118251428Y-48721428D02*
X118251428Y-49292857D01*
X117851428Y-48092857D02*
X118251428Y-48721428D01*
X118651428Y-48092857D01*
X119222857Y-49292857D02*
X119108571Y-49235714D01*
X119051428Y-49178571D01*
X118994285Y-49064285D01*
X118994285Y-48721428D01*
X119051428Y-48607142D01*
X119108571Y-48550000D01*
X119222857Y-48492857D01*
X119394285Y-48492857D01*
X119508571Y-48550000D01*
X119565714Y-48607142D01*
X119622857Y-48721428D01*
X119622857Y-49064285D01*
X119565714Y-49178571D01*
X119508571Y-49235714D01*
X119394285Y-49292857D01*
X119222857Y-49292857D01*
X120651428Y-48492857D02*
X120651428Y-49292857D01*
X120137142Y-48492857D02*
X120137142Y-49121428D01*
X120194285Y-49235714D01*
X120308571Y-49292857D01*
X120480000Y-49292857D01*
X120594285Y-49235714D01*
X120651428Y-49178571D01*
X122080000Y-48950000D02*
X122651428Y-48950000D01*
X121965714Y-49292857D02*
X122365714Y-48092857D01*
X122765714Y-49292857D01*
X124080000Y-49292857D02*
X124080000Y-48092857D01*
X124480000Y-48950000D01*
X124880000Y-48092857D01*
X124880000Y-49292857D01*
X125908571Y-49235714D02*
X125794285Y-49292857D01*
X125565714Y-49292857D01*
X125451428Y-49235714D01*
X125394285Y-49121428D01*
X125394285Y-48664285D01*
X125451428Y-48550000D01*
X125565714Y-48492857D01*
X125794285Y-48492857D01*
X125908571Y-48550000D01*
X125965714Y-48664285D01*
X125965714Y-48778571D01*
X125394285Y-48892857D01*
X126480000Y-49292857D02*
X126480000Y-48492857D01*
X126480000Y-48721428D02*
X126537142Y-48607142D01*
X126594285Y-48550000D01*
X126708571Y-48492857D01*
X126822857Y-48492857D01*
X127222857Y-49292857D02*
X127222857Y-48492857D01*
X127222857Y-48721428D02*
X127280000Y-48607142D01*
X127337142Y-48550000D01*
X127451428Y-48492857D01*
X127565714Y-48492857D01*
X127851428Y-48492857D02*
X128137142Y-49292857D01*
X128422857Y-48492857D02*
X128137142Y-49292857D01*
X128022857Y-49578571D01*
X127965714Y-49635714D01*
X127851428Y-49692857D01*
X130480000Y-49178571D02*
X130422857Y-49235714D01*
X130251428Y-49292857D01*
X130137142Y-49292857D01*
X129965714Y-49235714D01*
X129851428Y-49121428D01*
X129794285Y-49007142D01*
X129737142Y-48778571D01*
X129737142Y-48607142D01*
X129794285Y-48378571D01*
X129851428Y-48264285D01*
X129965714Y-48150000D01*
X130137142Y-48092857D01*
X130251428Y-48092857D01*
X130422857Y-48150000D01*
X130480000Y-48207142D01*
X130994285Y-49292857D02*
X130994285Y-48092857D01*
X131508571Y-49292857D02*
X131508571Y-48664285D01*
X131451428Y-48550000D01*
X131337142Y-48492857D01*
X131165714Y-48492857D01*
X131051428Y-48550000D01*
X130994285Y-48607142D01*
X132080000Y-49292857D02*
X132080000Y-48492857D01*
X132080000Y-48721428D02*
X132137142Y-48607142D01*
X132194285Y-48550000D01*
X132308571Y-48492857D01*
X132422857Y-48492857D01*
X132822857Y-49292857D02*
X132822857Y-48492857D01*
X132822857Y-48092857D02*
X132765714Y-48150000D01*
X132822857Y-48207142D01*
X132880000Y-48150000D01*
X132822857Y-48092857D01*
X132822857Y-48207142D01*
X133337142Y-49235714D02*
X133451428Y-49292857D01*
X133680000Y-49292857D01*
X133794285Y-49235714D01*
X133851428Y-49121428D01*
X133851428Y-49064285D01*
X133794285Y-48950000D01*
X133680000Y-48892857D01*
X133508571Y-48892857D01*
X133394285Y-48835714D01*
X133337142Y-48721428D01*
X133337142Y-48664285D01*
X133394285Y-48550000D01*
X133508571Y-48492857D01*
X133680000Y-48492857D01*
X133794285Y-48550000D01*
X134194285Y-48492857D02*
X134651428Y-48492857D01*
X134365714Y-48092857D02*
X134365714Y-49121428D01*
X134422857Y-49235714D01*
X134537142Y-49292857D01*
X134651428Y-49292857D01*
X135051428Y-49292857D02*
X135051428Y-48492857D01*
X135051428Y-48607142D02*
X135108571Y-48550000D01*
X135222857Y-48492857D01*
X135394285Y-48492857D01*
X135508571Y-48550000D01*
X135565714Y-48664285D01*
X135565714Y-49292857D01*
X135565714Y-48664285D02*
X135622857Y-48550000D01*
X135737142Y-48492857D01*
X135908571Y-48492857D01*
X136022857Y-48550000D01*
X136080000Y-48664285D01*
X136080000Y-49292857D01*
X137165714Y-49292857D02*
X137165714Y-48664285D01*
X137108571Y-48550000D01*
X136994285Y-48492857D01*
X136765714Y-48492857D01*
X136651428Y-48550000D01*
X137165714Y-49235714D02*
X137051428Y-49292857D01*
X136765714Y-49292857D01*
X136651428Y-49235714D01*
X136594285Y-49121428D01*
X136594285Y-49007142D01*
X136651428Y-48892857D01*
X136765714Y-48835714D01*
X137051428Y-48835714D01*
X137165714Y-48778571D01*
X137680000Y-49235714D02*
X137794285Y-49292857D01*
X138022857Y-49292857D01*
X138137142Y-49235714D01*
X138194285Y-49121428D01*
X138194285Y-49064285D01*
X138137142Y-48950000D01*
X138022857Y-48892857D01*
X137851428Y-48892857D01*
X137737142Y-48835714D01*
X137680000Y-48721428D01*
X137680000Y-48664285D01*
X137737142Y-48550000D01*
X137851428Y-48492857D01*
X138022857Y-48492857D01*
X138137142Y-48550000D01*
D10*
X29718095Y-45172380D02*
X30289523Y-45172380D01*
X30003809Y-46172380D02*
X30003809Y-45172380D01*
X30527619Y-45172380D02*
X31194285Y-46172380D01*
X31194285Y-45172380D02*
X30527619Y-46172380D01*
%TO.C,D5*%
X56761904Y-90452380D02*
X56761904Y-89452380D01*
X57000000Y-89452380D01*
X57142857Y-89500000D01*
X57238095Y-89595238D01*
X57285714Y-89690476D01*
X57333333Y-89880952D01*
X57333333Y-90023809D01*
X57285714Y-90214285D01*
X57238095Y-90309523D01*
X57142857Y-90404761D01*
X57000000Y-90452380D01*
X56761904Y-90452380D01*
X58238095Y-89452380D02*
X57761904Y-89452380D01*
X57714285Y-89928571D01*
X57761904Y-89880952D01*
X57857142Y-89833333D01*
X58095238Y-89833333D01*
X58190476Y-89880952D01*
X58238095Y-89928571D01*
X58285714Y-90023809D01*
X58285714Y-90261904D01*
X58238095Y-90357142D01*
X58190476Y-90404761D01*
X58095238Y-90452380D01*
X57857142Y-90452380D01*
X57761904Y-90404761D01*
X57714285Y-90357142D01*
%TO.C,R23*%
X161857142Y-79372380D02*
X161523809Y-78896190D01*
X161285714Y-79372380D02*
X161285714Y-78372380D01*
X161666666Y-78372380D01*
X161761904Y-78420000D01*
X161809523Y-78467619D01*
X161857142Y-78562857D01*
X161857142Y-78705714D01*
X161809523Y-78800952D01*
X161761904Y-78848571D01*
X161666666Y-78896190D01*
X161285714Y-78896190D01*
X162238095Y-78467619D02*
X162285714Y-78420000D01*
X162380952Y-78372380D01*
X162619047Y-78372380D01*
X162714285Y-78420000D01*
X162761904Y-78467619D01*
X162809523Y-78562857D01*
X162809523Y-78658095D01*
X162761904Y-78800952D01*
X162190476Y-79372380D01*
X162809523Y-79372380D01*
X163142857Y-78372380D02*
X163761904Y-78372380D01*
X163428571Y-78753333D01*
X163571428Y-78753333D01*
X163666666Y-78800952D01*
X163714285Y-78848571D01*
X163761904Y-78943809D01*
X163761904Y-79181904D01*
X163714285Y-79277142D01*
X163666666Y-79324761D01*
X163571428Y-79372380D01*
X163285714Y-79372380D01*
X163190476Y-79324761D01*
X163142857Y-79277142D01*
%TO.C,R13*%
X106857142Y-85872380D02*
X106523809Y-85396190D01*
X106285714Y-85872380D02*
X106285714Y-84872380D01*
X106666666Y-84872380D01*
X106761904Y-84920000D01*
X106809523Y-84967619D01*
X106857142Y-85062857D01*
X106857142Y-85205714D01*
X106809523Y-85300952D01*
X106761904Y-85348571D01*
X106666666Y-85396190D01*
X106285714Y-85396190D01*
X107809523Y-85872380D02*
X107238095Y-85872380D01*
X107523809Y-85872380D02*
X107523809Y-84872380D01*
X107428571Y-85015238D01*
X107333333Y-85110476D01*
X107238095Y-85158095D01*
X108142857Y-84872380D02*
X108761904Y-84872380D01*
X108428571Y-85253333D01*
X108571428Y-85253333D01*
X108666666Y-85300952D01*
X108714285Y-85348571D01*
X108761904Y-85443809D01*
X108761904Y-85681904D01*
X108714285Y-85777142D01*
X108666666Y-85824761D01*
X108571428Y-85872380D01*
X108285714Y-85872380D01*
X108190476Y-85824761D01*
X108142857Y-85777142D01*
%TO.C,D18*%
X136285714Y-90452380D02*
X136285714Y-89452380D01*
X136523809Y-89452380D01*
X136666666Y-89500000D01*
X136761904Y-89595238D01*
X136809523Y-89690476D01*
X136857142Y-89880952D01*
X136857142Y-90023809D01*
X136809523Y-90214285D01*
X136761904Y-90309523D01*
X136666666Y-90404761D01*
X136523809Y-90452380D01*
X136285714Y-90452380D01*
X137809523Y-90452380D02*
X137238095Y-90452380D01*
X137523809Y-90452380D02*
X137523809Y-89452380D01*
X137428571Y-89595238D01*
X137333333Y-89690476D01*
X137238095Y-89738095D01*
X138380952Y-89880952D02*
X138285714Y-89833333D01*
X138238095Y-89785714D01*
X138190476Y-89690476D01*
X138190476Y-89642857D01*
X138238095Y-89547619D01*
X138285714Y-89500000D01*
X138380952Y-89452380D01*
X138571428Y-89452380D01*
X138666666Y-89500000D01*
X138714285Y-89547619D01*
X138761904Y-89642857D01*
X138761904Y-89690476D01*
X138714285Y-89785714D01*
X138666666Y-89833333D01*
X138571428Y-89880952D01*
X138380952Y-89880952D01*
X138285714Y-89928571D01*
X138238095Y-89976190D01*
X138190476Y-90071428D01*
X138190476Y-90261904D01*
X138238095Y-90357142D01*
X138285714Y-90404761D01*
X138380952Y-90452380D01*
X138571428Y-90452380D01*
X138666666Y-90404761D01*
X138714285Y-90357142D01*
X138761904Y-90261904D01*
X138761904Y-90071428D01*
X138714285Y-89976190D01*
X138666666Y-89928571D01*
X138571428Y-89880952D01*
%TO.C,D21*%
X151285714Y-83952380D02*
X151285714Y-82952380D01*
X151523809Y-82952380D01*
X151666666Y-83000000D01*
X151761904Y-83095238D01*
X151809523Y-83190476D01*
X151857142Y-83380952D01*
X151857142Y-83523809D01*
X151809523Y-83714285D01*
X151761904Y-83809523D01*
X151666666Y-83904761D01*
X151523809Y-83952380D01*
X151285714Y-83952380D01*
X152238095Y-83047619D02*
X152285714Y-83000000D01*
X152380952Y-82952380D01*
X152619047Y-82952380D01*
X152714285Y-83000000D01*
X152761904Y-83047619D01*
X152809523Y-83142857D01*
X152809523Y-83238095D01*
X152761904Y-83380952D01*
X152190476Y-83952380D01*
X152809523Y-83952380D01*
X153761904Y-83952380D02*
X153190476Y-83952380D01*
X153476190Y-83952380D02*
X153476190Y-82952380D01*
X153380952Y-83095238D01*
X153285714Y-83190476D01*
X153190476Y-83238095D01*
%TO.C,R22*%
X156857142Y-85772380D02*
X156523809Y-85296190D01*
X156285714Y-85772380D02*
X156285714Y-84772380D01*
X156666666Y-84772380D01*
X156761904Y-84820000D01*
X156809523Y-84867619D01*
X156857142Y-84962857D01*
X156857142Y-85105714D01*
X156809523Y-85200952D01*
X156761904Y-85248571D01*
X156666666Y-85296190D01*
X156285714Y-85296190D01*
X157238095Y-84867619D02*
X157285714Y-84820000D01*
X157380952Y-84772380D01*
X157619047Y-84772380D01*
X157714285Y-84820000D01*
X157761904Y-84867619D01*
X157809523Y-84962857D01*
X157809523Y-85058095D01*
X157761904Y-85200952D01*
X157190476Y-85772380D01*
X157809523Y-85772380D01*
X158190476Y-84867619D02*
X158238095Y-84820000D01*
X158333333Y-84772380D01*
X158571428Y-84772380D01*
X158666666Y-84820000D01*
X158714285Y-84867619D01*
X158761904Y-84962857D01*
X158761904Y-85058095D01*
X158714285Y-85200952D01*
X158142857Y-85772380D01*
X158761904Y-85772380D01*
%TO.C,R9*%
X82333333Y-79372380D02*
X82000000Y-78896190D01*
X81761904Y-79372380D02*
X81761904Y-78372380D01*
X82142857Y-78372380D01*
X82238095Y-78420000D01*
X82285714Y-78467619D01*
X82333333Y-78562857D01*
X82333333Y-78705714D01*
X82285714Y-78800952D01*
X82238095Y-78848571D01*
X82142857Y-78896190D01*
X81761904Y-78896190D01*
X82809523Y-79372380D02*
X83000000Y-79372380D01*
X83095238Y-79324761D01*
X83142857Y-79277142D01*
X83238095Y-79134285D01*
X83285714Y-78943809D01*
X83285714Y-78562857D01*
X83238095Y-78467619D01*
X83190476Y-78420000D01*
X83095238Y-78372380D01*
X82904761Y-78372380D01*
X82809523Y-78420000D01*
X82761904Y-78467619D01*
X82714285Y-78562857D01*
X82714285Y-78800952D01*
X82761904Y-78896190D01*
X82809523Y-78943809D01*
X82904761Y-78991428D01*
X83095238Y-78991428D01*
X83190476Y-78943809D01*
X83238095Y-78896190D01*
X83285714Y-78800952D01*
%TO.C,D11*%
X91285714Y-83952380D02*
X91285714Y-82952380D01*
X91523809Y-82952380D01*
X91666666Y-83000000D01*
X91761904Y-83095238D01*
X91809523Y-83190476D01*
X91857142Y-83380952D01*
X91857142Y-83523809D01*
X91809523Y-83714285D01*
X91761904Y-83809523D01*
X91666666Y-83904761D01*
X91523809Y-83952380D01*
X91285714Y-83952380D01*
X92809523Y-83952380D02*
X92238095Y-83952380D01*
X92523809Y-83952380D02*
X92523809Y-82952380D01*
X92428571Y-83095238D01*
X92333333Y-83190476D01*
X92238095Y-83238095D01*
X93761904Y-83952380D02*
X93190476Y-83952380D01*
X93476190Y-83952380D02*
X93476190Y-82952380D01*
X93380952Y-83095238D01*
X93285714Y-83190476D01*
X93190476Y-83238095D01*
%TO.C,BT1*%
X51714285Y-27928571D02*
X51857142Y-27976190D01*
X51904761Y-28023809D01*
X51952380Y-28119047D01*
X51952380Y-28261904D01*
X51904761Y-28357142D01*
X51857142Y-28404761D01*
X51761904Y-28452380D01*
X51380952Y-28452380D01*
X51380952Y-27452380D01*
X51714285Y-27452380D01*
X51809523Y-27500000D01*
X51857142Y-27547619D01*
X51904761Y-27642857D01*
X51904761Y-27738095D01*
X51857142Y-27833333D01*
X51809523Y-27880952D01*
X51714285Y-27928571D01*
X51380952Y-27928571D01*
X52238095Y-27452380D02*
X52809523Y-27452380D01*
X52523809Y-28452380D02*
X52523809Y-27452380D01*
X53666666Y-28452380D02*
X53095238Y-28452380D01*
X53380952Y-28452380D02*
X53380952Y-27452380D01*
X53285714Y-27595238D01*
X53190476Y-27690476D01*
X53095238Y-27738095D01*
%TO.C,D17*%
X126285714Y-90452380D02*
X126285714Y-89452380D01*
X126523809Y-89452380D01*
X126666666Y-89500000D01*
X126761904Y-89595238D01*
X126809523Y-89690476D01*
X126857142Y-89880952D01*
X126857142Y-90023809D01*
X126809523Y-90214285D01*
X126761904Y-90309523D01*
X126666666Y-90404761D01*
X126523809Y-90452380D01*
X126285714Y-90452380D01*
X127809523Y-90452380D02*
X127238095Y-90452380D01*
X127523809Y-90452380D02*
X127523809Y-89452380D01*
X127428571Y-89595238D01*
X127333333Y-89690476D01*
X127238095Y-89738095D01*
X128142857Y-89452380D02*
X128809523Y-89452380D01*
X128380952Y-90452380D01*
%TO.C,D24*%
X166285714Y-90452380D02*
X166285714Y-89452380D01*
X166523809Y-89452380D01*
X166666666Y-89500000D01*
X166761904Y-89595238D01*
X166809523Y-89690476D01*
X166857142Y-89880952D01*
X166857142Y-90023809D01*
X166809523Y-90214285D01*
X166761904Y-90309523D01*
X166666666Y-90404761D01*
X166523809Y-90452380D01*
X166285714Y-90452380D01*
X167238095Y-89547619D02*
X167285714Y-89500000D01*
X167380952Y-89452380D01*
X167619047Y-89452380D01*
X167714285Y-89500000D01*
X167761904Y-89547619D01*
X167809523Y-89642857D01*
X167809523Y-89738095D01*
X167761904Y-89880952D01*
X167190476Y-90452380D01*
X167809523Y-90452380D01*
X168666666Y-89785714D02*
X168666666Y-90452380D01*
X168428571Y-89404761D02*
X168190476Y-90119047D01*
X168809523Y-90119047D01*
%TO.C,R19*%
X141857142Y-79372380D02*
X141523809Y-78896190D01*
X141285714Y-79372380D02*
X141285714Y-78372380D01*
X141666666Y-78372380D01*
X141761904Y-78420000D01*
X141809523Y-78467619D01*
X141857142Y-78562857D01*
X141857142Y-78705714D01*
X141809523Y-78800952D01*
X141761904Y-78848571D01*
X141666666Y-78896190D01*
X141285714Y-78896190D01*
X142809523Y-79372380D02*
X142238095Y-79372380D01*
X142523809Y-79372380D02*
X142523809Y-78372380D01*
X142428571Y-78515238D01*
X142333333Y-78610476D01*
X142238095Y-78658095D01*
X143285714Y-79372380D02*
X143476190Y-79372380D01*
X143571428Y-79324761D01*
X143619047Y-79277142D01*
X143714285Y-79134285D01*
X143761904Y-78943809D01*
X143761904Y-78562857D01*
X143714285Y-78467619D01*
X143666666Y-78420000D01*
X143571428Y-78372380D01*
X143380952Y-78372380D01*
X143285714Y-78420000D01*
X143238095Y-78467619D01*
X143190476Y-78562857D01*
X143190476Y-78800952D01*
X143238095Y-78896190D01*
X143285714Y-78943809D01*
X143380952Y-78991428D01*
X143571428Y-78991428D01*
X143666666Y-78943809D01*
X143714285Y-78896190D01*
X143761904Y-78800952D01*
%TO.C,D20*%
X146285714Y-90452380D02*
X146285714Y-89452380D01*
X146523809Y-89452380D01*
X146666666Y-89500000D01*
X146761904Y-89595238D01*
X146809523Y-89690476D01*
X146857142Y-89880952D01*
X146857142Y-90023809D01*
X146809523Y-90214285D01*
X146761904Y-90309523D01*
X146666666Y-90404761D01*
X146523809Y-90452380D01*
X146285714Y-90452380D01*
X147238095Y-89547619D02*
X147285714Y-89500000D01*
X147380952Y-89452380D01*
X147619047Y-89452380D01*
X147714285Y-89500000D01*
X147761904Y-89547619D01*
X147809523Y-89642857D01*
X147809523Y-89738095D01*
X147761904Y-89880952D01*
X147190476Y-90452380D01*
X147809523Y-90452380D01*
X148428571Y-89452380D02*
X148523809Y-89452380D01*
X148619047Y-89500000D01*
X148666666Y-89547619D01*
X148714285Y-89642857D01*
X148761904Y-89833333D01*
X148761904Y-90071428D01*
X148714285Y-90261904D01*
X148666666Y-90357142D01*
X148619047Y-90404761D01*
X148523809Y-90452380D01*
X148428571Y-90452380D01*
X148333333Y-90404761D01*
X148285714Y-90357142D01*
X148238095Y-90261904D01*
X148190476Y-90071428D01*
X148190476Y-89833333D01*
X148238095Y-89642857D01*
X148285714Y-89547619D01*
X148333333Y-89500000D01*
X148428571Y-89452380D01*
%TO.C,R11*%
X91857142Y-79372380D02*
X91523809Y-78896190D01*
X91285714Y-79372380D02*
X91285714Y-78372380D01*
X91666666Y-78372380D01*
X91761904Y-78420000D01*
X91809523Y-78467619D01*
X91857142Y-78562857D01*
X91857142Y-78705714D01*
X91809523Y-78800952D01*
X91761904Y-78848571D01*
X91666666Y-78896190D01*
X91285714Y-78896190D01*
X92809523Y-79372380D02*
X92238095Y-79372380D01*
X92523809Y-79372380D02*
X92523809Y-78372380D01*
X92428571Y-78515238D01*
X92333333Y-78610476D01*
X92238095Y-78658095D01*
X93761904Y-79372380D02*
X93190476Y-79372380D01*
X93476190Y-79372380D02*
X93476190Y-78372380D01*
X93380952Y-78515238D01*
X93285714Y-78610476D01*
X93190476Y-78658095D01*
%TO.C,D19*%
X141285714Y-83952380D02*
X141285714Y-82952380D01*
X141523809Y-82952380D01*
X141666666Y-83000000D01*
X141761904Y-83095238D01*
X141809523Y-83190476D01*
X141857142Y-83380952D01*
X141857142Y-83523809D01*
X141809523Y-83714285D01*
X141761904Y-83809523D01*
X141666666Y-83904761D01*
X141523809Y-83952380D01*
X141285714Y-83952380D01*
X142809523Y-83952380D02*
X142238095Y-83952380D01*
X142523809Y-83952380D02*
X142523809Y-82952380D01*
X142428571Y-83095238D01*
X142333333Y-83190476D01*
X142238095Y-83238095D01*
X143285714Y-83952380D02*
X143476190Y-83952380D01*
X143571428Y-83904761D01*
X143619047Y-83857142D01*
X143714285Y-83714285D01*
X143761904Y-83523809D01*
X143761904Y-83142857D01*
X143714285Y-83047619D01*
X143666666Y-83000000D01*
X143571428Y-82952380D01*
X143380952Y-82952380D01*
X143285714Y-83000000D01*
X143238095Y-83047619D01*
X143190476Y-83142857D01*
X143190476Y-83380952D01*
X143238095Y-83476190D01*
X143285714Y-83523809D01*
X143380952Y-83571428D01*
X143571428Y-83571428D01*
X143666666Y-83523809D01*
X143714285Y-83476190D01*
X143761904Y-83380952D01*
%TO.C,U2*%
X51738095Y-53602380D02*
X51738095Y-54411904D01*
X51785714Y-54507142D01*
X51833333Y-54554761D01*
X51928571Y-54602380D01*
X52119047Y-54602380D01*
X52214285Y-54554761D01*
X52261904Y-54507142D01*
X52309523Y-54411904D01*
X52309523Y-53602380D01*
X52738095Y-53697619D02*
X52785714Y-53650000D01*
X52880952Y-53602380D01*
X53119047Y-53602380D01*
X53214285Y-53650000D01*
X53261904Y-53697619D01*
X53309523Y-53792857D01*
X53309523Y-53888095D01*
X53261904Y-54030952D01*
X52690476Y-54602380D01*
X53309523Y-54602380D01*
%TO.C,R24*%
X166857142Y-85772380D02*
X166523809Y-85296190D01*
X166285714Y-85772380D02*
X166285714Y-84772380D01*
X166666666Y-84772380D01*
X166761904Y-84820000D01*
X166809523Y-84867619D01*
X166857142Y-84962857D01*
X166857142Y-85105714D01*
X166809523Y-85200952D01*
X166761904Y-85248571D01*
X166666666Y-85296190D01*
X166285714Y-85296190D01*
X167238095Y-84867619D02*
X167285714Y-84820000D01*
X167380952Y-84772380D01*
X167619047Y-84772380D01*
X167714285Y-84820000D01*
X167761904Y-84867619D01*
X167809523Y-84962857D01*
X167809523Y-85058095D01*
X167761904Y-85200952D01*
X167190476Y-85772380D01*
X167809523Y-85772380D01*
X168666666Y-85105714D02*
X168666666Y-85772380D01*
X168428571Y-84724761D02*
X168190476Y-85439047D01*
X168809523Y-85439047D01*
%TO.C,SW2*%
X93166666Y-30404761D02*
X93309523Y-30452380D01*
X93547619Y-30452380D01*
X93642857Y-30404761D01*
X93690476Y-30357142D01*
X93738095Y-30261904D01*
X93738095Y-30166666D01*
X93690476Y-30071428D01*
X93642857Y-30023809D01*
X93547619Y-29976190D01*
X93357142Y-29928571D01*
X93261904Y-29880952D01*
X93214285Y-29833333D01*
X93166666Y-29738095D01*
X93166666Y-29642857D01*
X93214285Y-29547619D01*
X93261904Y-29500000D01*
X93357142Y-29452380D01*
X93595238Y-29452380D01*
X93738095Y-29500000D01*
X94071428Y-29452380D02*
X94309523Y-30452380D01*
X94500000Y-29738095D01*
X94690476Y-30452380D01*
X94928571Y-29452380D01*
X95261904Y-29547619D02*
X95309523Y-29500000D01*
X95404761Y-29452380D01*
X95642857Y-29452380D01*
X95738095Y-29500000D01*
X95785714Y-29547619D01*
X95833333Y-29642857D01*
X95833333Y-29738095D01*
X95785714Y-29880952D01*
X95214285Y-30452380D01*
X95833333Y-30452380D01*
%TO.C,C3*%
X43333333Y-54427142D02*
X43285714Y-54474761D01*
X43142857Y-54522380D01*
X43047619Y-54522380D01*
X42904761Y-54474761D01*
X42809523Y-54379523D01*
X42761904Y-54284285D01*
X42714285Y-54093809D01*
X42714285Y-53950952D01*
X42761904Y-53760476D01*
X42809523Y-53665238D01*
X42904761Y-53570000D01*
X43047619Y-53522380D01*
X43142857Y-53522380D01*
X43285714Y-53570000D01*
X43333333Y-53617619D01*
X43666666Y-53522380D02*
X44285714Y-53522380D01*
X43952380Y-53903333D01*
X44095238Y-53903333D01*
X44190476Y-53950952D01*
X44238095Y-53998571D01*
X44285714Y-54093809D01*
X44285714Y-54331904D01*
X44238095Y-54427142D01*
X44190476Y-54474761D01*
X44095238Y-54522380D01*
X43809523Y-54522380D01*
X43714285Y-54474761D01*
X43666666Y-54427142D01*
%TO.C,D23*%
X161285714Y-83952380D02*
X161285714Y-82952380D01*
X161523809Y-82952380D01*
X161666666Y-83000000D01*
X161761904Y-83095238D01*
X161809523Y-83190476D01*
X161857142Y-83380952D01*
X161857142Y-83523809D01*
X161809523Y-83714285D01*
X161761904Y-83809523D01*
X161666666Y-83904761D01*
X161523809Y-83952380D01*
X161285714Y-83952380D01*
X162238095Y-83047619D02*
X162285714Y-83000000D01*
X162380952Y-82952380D01*
X162619047Y-82952380D01*
X162714285Y-83000000D01*
X162761904Y-83047619D01*
X162809523Y-83142857D01*
X162809523Y-83238095D01*
X162761904Y-83380952D01*
X162190476Y-83952380D01*
X162809523Y-83952380D01*
X163142857Y-82952380D02*
X163761904Y-82952380D01*
X163428571Y-83333333D01*
X163571428Y-83333333D01*
X163666666Y-83380952D01*
X163714285Y-83428571D01*
X163761904Y-83523809D01*
X163761904Y-83761904D01*
X163714285Y-83857142D01*
X163666666Y-83904761D01*
X163571428Y-83952380D01*
X163285714Y-83952380D01*
X163190476Y-83904761D01*
X163142857Y-83857142D01*
%TO.C,R25*%
X173022380Y-42142857D02*
X172546190Y-42476190D01*
X173022380Y-42714285D02*
X172022380Y-42714285D01*
X172022380Y-42333333D01*
X172070000Y-42238095D01*
X172117619Y-42190476D01*
X172212857Y-42142857D01*
X172355714Y-42142857D01*
X172450952Y-42190476D01*
X172498571Y-42238095D01*
X172546190Y-42333333D01*
X172546190Y-42714285D01*
X172117619Y-41761904D02*
X172070000Y-41714285D01*
X172022380Y-41619047D01*
X172022380Y-41380952D01*
X172070000Y-41285714D01*
X172117619Y-41238095D01*
X172212857Y-41190476D01*
X172308095Y-41190476D01*
X172450952Y-41238095D01*
X173022380Y-41809523D01*
X173022380Y-41190476D01*
X172022380Y-40285714D02*
X172022380Y-40761904D01*
X172498571Y-40809523D01*
X172450952Y-40761904D01*
X172403333Y-40666666D01*
X172403333Y-40428571D01*
X172450952Y-40333333D01*
X172498571Y-40285714D01*
X172593809Y-40238095D01*
X172831904Y-40238095D01*
X172927142Y-40285714D01*
X172974761Y-40333333D01*
X173022380Y-40428571D01*
X173022380Y-40666666D01*
X172974761Y-40761904D01*
X172927142Y-40809523D01*
%TO.C,R21*%
X151857142Y-79372380D02*
X151523809Y-78896190D01*
X151285714Y-79372380D02*
X151285714Y-78372380D01*
X151666666Y-78372380D01*
X151761904Y-78420000D01*
X151809523Y-78467619D01*
X151857142Y-78562857D01*
X151857142Y-78705714D01*
X151809523Y-78800952D01*
X151761904Y-78848571D01*
X151666666Y-78896190D01*
X151285714Y-78896190D01*
X152238095Y-78467619D02*
X152285714Y-78420000D01*
X152380952Y-78372380D01*
X152619047Y-78372380D01*
X152714285Y-78420000D01*
X152761904Y-78467619D01*
X152809523Y-78562857D01*
X152809523Y-78658095D01*
X152761904Y-78800952D01*
X152190476Y-79372380D01*
X152809523Y-79372380D01*
X153761904Y-79372380D02*
X153190476Y-79372380D01*
X153476190Y-79372380D02*
X153476190Y-78372380D01*
X153380952Y-78515238D01*
X153285714Y-78610476D01*
X153190476Y-78658095D01*
%TO.C,C2*%
X60333333Y-54427142D02*
X60285714Y-54474761D01*
X60142857Y-54522380D01*
X60047619Y-54522380D01*
X59904761Y-54474761D01*
X59809523Y-54379523D01*
X59761904Y-54284285D01*
X59714285Y-54093809D01*
X59714285Y-53950952D01*
X59761904Y-53760476D01*
X59809523Y-53665238D01*
X59904761Y-53570000D01*
X60047619Y-53522380D01*
X60142857Y-53522380D01*
X60285714Y-53570000D01*
X60333333Y-53617619D01*
X60714285Y-53617619D02*
X60761904Y-53570000D01*
X60857142Y-53522380D01*
X61095238Y-53522380D01*
X61190476Y-53570000D01*
X61238095Y-53617619D01*
X61285714Y-53712857D01*
X61285714Y-53808095D01*
X61238095Y-53950952D01*
X60666666Y-54522380D01*
X61285714Y-54522380D01*
%TO.C,R5*%
X57333333Y-85772380D02*
X57000000Y-85296190D01*
X56761904Y-85772380D02*
X56761904Y-84772380D01*
X57142857Y-84772380D01*
X57238095Y-84820000D01*
X57285714Y-84867619D01*
X57333333Y-84962857D01*
X57333333Y-85105714D01*
X57285714Y-85200952D01*
X57238095Y-85248571D01*
X57142857Y-85296190D01*
X56761904Y-85296190D01*
X58238095Y-84772380D02*
X57761904Y-84772380D01*
X57714285Y-85248571D01*
X57761904Y-85200952D01*
X57857142Y-85153333D01*
X58095238Y-85153333D01*
X58190476Y-85200952D01*
X58238095Y-85248571D01*
X58285714Y-85343809D01*
X58285714Y-85581904D01*
X58238095Y-85677142D01*
X58190476Y-85724761D01*
X58095238Y-85772380D01*
X57857142Y-85772380D01*
X57761904Y-85724761D01*
X57714285Y-85677142D01*
%TO.C,C5*%
X94333333Y-70427142D02*
X94285714Y-70474761D01*
X94142857Y-70522380D01*
X94047619Y-70522380D01*
X93904761Y-70474761D01*
X93809523Y-70379523D01*
X93761904Y-70284285D01*
X93714285Y-70093809D01*
X93714285Y-69950952D01*
X93761904Y-69760476D01*
X93809523Y-69665238D01*
X93904761Y-69570000D01*
X94047619Y-69522380D01*
X94142857Y-69522380D01*
X94285714Y-69570000D01*
X94333333Y-69617619D01*
X95238095Y-69522380D02*
X94761904Y-69522380D01*
X94714285Y-69998571D01*
X94761904Y-69950952D01*
X94857142Y-69903333D01*
X95095238Y-69903333D01*
X95190476Y-69950952D01*
X95238095Y-69998571D01*
X95285714Y-70093809D01*
X95285714Y-70331904D01*
X95238095Y-70427142D01*
X95190476Y-70474761D01*
X95095238Y-70522380D01*
X94857142Y-70522380D01*
X94761904Y-70474761D01*
X94714285Y-70427142D01*
%TO.C,D2*%
X41761904Y-83952380D02*
X41761904Y-82952380D01*
X42000000Y-82952380D01*
X42142857Y-83000000D01*
X42238095Y-83095238D01*
X42285714Y-83190476D01*
X42333333Y-83380952D01*
X42333333Y-83523809D01*
X42285714Y-83714285D01*
X42238095Y-83809523D01*
X42142857Y-83904761D01*
X42000000Y-83952380D01*
X41761904Y-83952380D01*
X42714285Y-83047619D02*
X42761904Y-83000000D01*
X42857142Y-82952380D01*
X43095238Y-82952380D01*
X43190476Y-83000000D01*
X43238095Y-83047619D01*
X43285714Y-83142857D01*
X43285714Y-83238095D01*
X43238095Y-83380952D01*
X42666666Y-83952380D01*
X43285714Y-83952380D01*
%TO.C,SW1*%
X35204761Y-37583333D02*
X35252380Y-37440476D01*
X35252380Y-37202380D01*
X35204761Y-37107142D01*
X35157142Y-37059523D01*
X35061904Y-37011904D01*
X34966666Y-37011904D01*
X34871428Y-37059523D01*
X34823809Y-37107142D01*
X34776190Y-37202380D01*
X34728571Y-37392857D01*
X34680952Y-37488095D01*
X34633333Y-37535714D01*
X34538095Y-37583333D01*
X34442857Y-37583333D01*
X34347619Y-37535714D01*
X34300000Y-37488095D01*
X34252380Y-37392857D01*
X34252380Y-37154761D01*
X34300000Y-37011904D01*
X34252380Y-36678571D02*
X35252380Y-36440476D01*
X34538095Y-36250000D01*
X35252380Y-36059523D01*
X34252380Y-35821428D01*
X35252380Y-34916666D02*
X35252380Y-35488095D01*
X35252380Y-35202380D02*
X34252380Y-35202380D01*
X34395238Y-35297619D01*
X34490476Y-35392857D01*
X34538095Y-35488095D01*
%TO.C,D9*%
X81761904Y-83952380D02*
X81761904Y-82952380D01*
X82000000Y-82952380D01*
X82142857Y-83000000D01*
X82238095Y-83095238D01*
X82285714Y-83190476D01*
X82333333Y-83380952D01*
X82333333Y-83523809D01*
X82285714Y-83714285D01*
X82238095Y-83809523D01*
X82142857Y-83904761D01*
X82000000Y-83952380D01*
X81761904Y-83952380D01*
X82809523Y-83952380D02*
X83000000Y-83952380D01*
X83095238Y-83904761D01*
X83142857Y-83857142D01*
X83238095Y-83714285D01*
X83285714Y-83523809D01*
X83285714Y-83142857D01*
X83238095Y-83047619D01*
X83190476Y-83000000D01*
X83095238Y-82952380D01*
X82904761Y-82952380D01*
X82809523Y-83000000D01*
X82761904Y-83047619D01*
X82714285Y-83142857D01*
X82714285Y-83380952D01*
X82761904Y-83476190D01*
X82809523Y-83523809D01*
X82904761Y-83571428D01*
X83095238Y-83571428D01*
X83190476Y-83523809D01*
X83238095Y-83476190D01*
X83285714Y-83380952D01*
%TO.C,D10*%
X86285714Y-90452380D02*
X86285714Y-89452380D01*
X86523809Y-89452380D01*
X86666666Y-89500000D01*
X86761904Y-89595238D01*
X86809523Y-89690476D01*
X86857142Y-89880952D01*
X86857142Y-90023809D01*
X86809523Y-90214285D01*
X86761904Y-90309523D01*
X86666666Y-90404761D01*
X86523809Y-90452380D01*
X86285714Y-90452380D01*
X87809523Y-90452380D02*
X87238095Y-90452380D01*
X87523809Y-90452380D02*
X87523809Y-89452380D01*
X87428571Y-89595238D01*
X87333333Y-89690476D01*
X87238095Y-89738095D01*
X88428571Y-89452380D02*
X88523809Y-89452380D01*
X88619047Y-89500000D01*
X88666666Y-89547619D01*
X88714285Y-89642857D01*
X88761904Y-89833333D01*
X88761904Y-90071428D01*
X88714285Y-90261904D01*
X88666666Y-90357142D01*
X88619047Y-90404761D01*
X88523809Y-90452380D01*
X88428571Y-90452380D01*
X88333333Y-90404761D01*
X88285714Y-90357142D01*
X88238095Y-90261904D01*
X88190476Y-90071428D01*
X88190476Y-89833333D01*
X88238095Y-89642857D01*
X88285714Y-89547619D01*
X88333333Y-89500000D01*
X88428571Y-89452380D01*
%TO.C,R20*%
X146857142Y-85772380D02*
X146523809Y-85296190D01*
X146285714Y-85772380D02*
X146285714Y-84772380D01*
X146666666Y-84772380D01*
X146761904Y-84820000D01*
X146809523Y-84867619D01*
X146857142Y-84962857D01*
X146857142Y-85105714D01*
X146809523Y-85200952D01*
X146761904Y-85248571D01*
X146666666Y-85296190D01*
X146285714Y-85296190D01*
X147238095Y-84867619D02*
X147285714Y-84820000D01*
X147380952Y-84772380D01*
X147619047Y-84772380D01*
X147714285Y-84820000D01*
X147761904Y-84867619D01*
X147809523Y-84962857D01*
X147809523Y-85058095D01*
X147761904Y-85200952D01*
X147190476Y-85772380D01*
X147809523Y-85772380D01*
X148428571Y-84772380D02*
X148523809Y-84772380D01*
X148619047Y-84820000D01*
X148666666Y-84867619D01*
X148714285Y-84962857D01*
X148761904Y-85153333D01*
X148761904Y-85391428D01*
X148714285Y-85581904D01*
X148666666Y-85677142D01*
X148619047Y-85724761D01*
X148523809Y-85772380D01*
X148428571Y-85772380D01*
X148333333Y-85724761D01*
X148285714Y-85677142D01*
X148238095Y-85581904D01*
X148190476Y-85391428D01*
X148190476Y-85153333D01*
X148238095Y-84962857D01*
X148285714Y-84867619D01*
X148333333Y-84820000D01*
X148428571Y-84772380D01*
%TO.C,R16*%
X121857142Y-79372380D02*
X121523809Y-78896190D01*
X121285714Y-79372380D02*
X121285714Y-78372380D01*
X121666666Y-78372380D01*
X121761904Y-78420000D01*
X121809523Y-78467619D01*
X121857142Y-78562857D01*
X121857142Y-78705714D01*
X121809523Y-78800952D01*
X121761904Y-78848571D01*
X121666666Y-78896190D01*
X121285714Y-78896190D01*
X122809523Y-79372380D02*
X122238095Y-79372380D01*
X122523809Y-79372380D02*
X122523809Y-78372380D01*
X122428571Y-78515238D01*
X122333333Y-78610476D01*
X122238095Y-78658095D01*
X123666666Y-78372380D02*
X123476190Y-78372380D01*
X123380952Y-78420000D01*
X123333333Y-78467619D01*
X123238095Y-78610476D01*
X123190476Y-78800952D01*
X123190476Y-79181904D01*
X123238095Y-79277142D01*
X123285714Y-79324761D01*
X123380952Y-79372380D01*
X123571428Y-79372380D01*
X123666666Y-79324761D01*
X123714285Y-79277142D01*
X123761904Y-79181904D01*
X123761904Y-78943809D01*
X123714285Y-78848571D01*
X123666666Y-78800952D01*
X123571428Y-78753333D01*
X123380952Y-78753333D01*
X123285714Y-78800952D01*
X123238095Y-78848571D01*
X123190476Y-78943809D01*
%TO.C,D22*%
X156285714Y-90452380D02*
X156285714Y-89452380D01*
X156523809Y-89452380D01*
X156666666Y-89500000D01*
X156761904Y-89595238D01*
X156809523Y-89690476D01*
X156857142Y-89880952D01*
X156857142Y-90023809D01*
X156809523Y-90214285D01*
X156761904Y-90309523D01*
X156666666Y-90404761D01*
X156523809Y-90452380D01*
X156285714Y-90452380D01*
X157238095Y-89547619D02*
X157285714Y-89500000D01*
X157380952Y-89452380D01*
X157619047Y-89452380D01*
X157714285Y-89500000D01*
X157761904Y-89547619D01*
X157809523Y-89642857D01*
X157809523Y-89738095D01*
X157761904Y-89880952D01*
X157190476Y-90452380D01*
X157809523Y-90452380D01*
X158190476Y-89547619D02*
X158238095Y-89500000D01*
X158333333Y-89452380D01*
X158571428Y-89452380D01*
X158666666Y-89500000D01*
X158714285Y-89547619D01*
X158761904Y-89642857D01*
X158761904Y-89738095D01*
X158714285Y-89880952D01*
X158142857Y-90452380D01*
X158761904Y-90452380D01*
%TO.C,R6*%
X67333333Y-85772380D02*
X67000000Y-85296190D01*
X66761904Y-85772380D02*
X66761904Y-84772380D01*
X67142857Y-84772380D01*
X67238095Y-84820000D01*
X67285714Y-84867619D01*
X67333333Y-84962857D01*
X67333333Y-85105714D01*
X67285714Y-85200952D01*
X67238095Y-85248571D01*
X67142857Y-85296190D01*
X66761904Y-85296190D01*
X68190476Y-84772380D02*
X68000000Y-84772380D01*
X67904761Y-84820000D01*
X67857142Y-84867619D01*
X67761904Y-85010476D01*
X67714285Y-85200952D01*
X67714285Y-85581904D01*
X67761904Y-85677142D01*
X67809523Y-85724761D01*
X67904761Y-85772380D01*
X68095238Y-85772380D01*
X68190476Y-85724761D01*
X68238095Y-85677142D01*
X68285714Y-85581904D01*
X68285714Y-85343809D01*
X68238095Y-85248571D01*
X68190476Y-85200952D01*
X68095238Y-85153333D01*
X67904761Y-85153333D01*
X67809523Y-85200952D01*
X67761904Y-85248571D01*
X67714285Y-85343809D01*
%TO.C,D6*%
X66761904Y-90452380D02*
X66761904Y-89452380D01*
X67000000Y-89452380D01*
X67142857Y-89500000D01*
X67238095Y-89595238D01*
X67285714Y-89690476D01*
X67333333Y-89880952D01*
X67333333Y-90023809D01*
X67285714Y-90214285D01*
X67238095Y-90309523D01*
X67142857Y-90404761D01*
X67000000Y-90452380D01*
X66761904Y-90452380D01*
X68190476Y-89452380D02*
X68000000Y-89452380D01*
X67904761Y-89500000D01*
X67857142Y-89547619D01*
X67761904Y-89690476D01*
X67714285Y-89880952D01*
X67714285Y-90261904D01*
X67761904Y-90357142D01*
X67809523Y-90404761D01*
X67904761Y-90452380D01*
X68095238Y-90452380D01*
X68190476Y-90404761D01*
X68238095Y-90357142D01*
X68285714Y-90261904D01*
X68285714Y-90023809D01*
X68238095Y-89928571D01*
X68190476Y-89880952D01*
X68095238Y-89833333D01*
X67904761Y-89833333D01*
X67809523Y-89880952D01*
X67761904Y-89928571D01*
X67714285Y-90023809D01*
%TO.C,R3*%
X47333333Y-85772380D02*
X47000000Y-85296190D01*
X46761904Y-85772380D02*
X46761904Y-84772380D01*
X47142857Y-84772380D01*
X47238095Y-84820000D01*
X47285714Y-84867619D01*
X47333333Y-84962857D01*
X47333333Y-85105714D01*
X47285714Y-85200952D01*
X47238095Y-85248571D01*
X47142857Y-85296190D01*
X46761904Y-85296190D01*
X47666666Y-84772380D02*
X48285714Y-84772380D01*
X47952380Y-85153333D01*
X48095238Y-85153333D01*
X48190476Y-85200952D01*
X48238095Y-85248571D01*
X48285714Y-85343809D01*
X48285714Y-85581904D01*
X48238095Y-85677142D01*
X48190476Y-85724761D01*
X48095238Y-85772380D01*
X47809523Y-85772380D01*
X47714285Y-85724761D01*
X47666666Y-85677142D01*
%TO.C,D15*%
X116285714Y-90452380D02*
X116285714Y-89452380D01*
X116523809Y-89452380D01*
X116666666Y-89500000D01*
X116761904Y-89595238D01*
X116809523Y-89690476D01*
X116857142Y-89880952D01*
X116857142Y-90023809D01*
X116809523Y-90214285D01*
X116761904Y-90309523D01*
X116666666Y-90404761D01*
X116523809Y-90452380D01*
X116285714Y-90452380D01*
X117809523Y-90452380D02*
X117238095Y-90452380D01*
X117523809Y-90452380D02*
X117523809Y-89452380D01*
X117428571Y-89595238D01*
X117333333Y-89690476D01*
X117238095Y-89738095D01*
X118714285Y-89452380D02*
X118238095Y-89452380D01*
X118190476Y-89928571D01*
X118238095Y-89880952D01*
X118333333Y-89833333D01*
X118571428Y-89833333D01*
X118666666Y-89880952D01*
X118714285Y-89928571D01*
X118761904Y-90023809D01*
X118761904Y-90261904D01*
X118714285Y-90357142D01*
X118666666Y-90404761D01*
X118571428Y-90452380D01*
X118333333Y-90452380D01*
X118238095Y-90404761D01*
X118190476Y-90357142D01*
%TO.C,D13*%
X106285714Y-90452380D02*
X106285714Y-89452380D01*
X106523809Y-89452380D01*
X106666666Y-89500000D01*
X106761904Y-89595238D01*
X106809523Y-89690476D01*
X106857142Y-89880952D01*
X106857142Y-90023809D01*
X106809523Y-90214285D01*
X106761904Y-90309523D01*
X106666666Y-90404761D01*
X106523809Y-90452380D01*
X106285714Y-90452380D01*
X107809523Y-90452380D02*
X107238095Y-90452380D01*
X107523809Y-90452380D02*
X107523809Y-89452380D01*
X107428571Y-89595238D01*
X107333333Y-89690476D01*
X107238095Y-89738095D01*
X108142857Y-89452380D02*
X108761904Y-89452380D01*
X108428571Y-89833333D01*
X108571428Y-89833333D01*
X108666666Y-89880952D01*
X108714285Y-89928571D01*
X108761904Y-90023809D01*
X108761904Y-90261904D01*
X108714285Y-90357142D01*
X108666666Y-90404761D01*
X108571428Y-90452380D01*
X108285714Y-90452380D01*
X108190476Y-90404761D01*
X108142857Y-90357142D01*
%TO.C,R2*%
X42333333Y-79372380D02*
X42000000Y-78896190D01*
X41761904Y-79372380D02*
X41761904Y-78372380D01*
X42142857Y-78372380D01*
X42238095Y-78420000D01*
X42285714Y-78467619D01*
X42333333Y-78562857D01*
X42333333Y-78705714D01*
X42285714Y-78800952D01*
X42238095Y-78848571D01*
X42142857Y-78896190D01*
X41761904Y-78896190D01*
X42714285Y-78467619D02*
X42761904Y-78420000D01*
X42857142Y-78372380D01*
X43095238Y-78372380D01*
X43190476Y-78420000D01*
X43238095Y-78467619D01*
X43285714Y-78562857D01*
X43285714Y-78658095D01*
X43238095Y-78800952D01*
X42666666Y-79372380D01*
X43285714Y-79372380D01*
%TO.C,D16*%
X121285714Y-83952380D02*
X121285714Y-82952380D01*
X121523809Y-82952380D01*
X121666666Y-83000000D01*
X121761904Y-83095238D01*
X121809523Y-83190476D01*
X121857142Y-83380952D01*
X121857142Y-83523809D01*
X121809523Y-83714285D01*
X121761904Y-83809523D01*
X121666666Y-83904761D01*
X121523809Y-83952380D01*
X121285714Y-83952380D01*
X122809523Y-83952380D02*
X122238095Y-83952380D01*
X122523809Y-83952380D02*
X122523809Y-82952380D01*
X122428571Y-83095238D01*
X122333333Y-83190476D01*
X122238095Y-83238095D01*
X123666666Y-82952380D02*
X123476190Y-82952380D01*
X123380952Y-83000000D01*
X123333333Y-83047619D01*
X123238095Y-83190476D01*
X123190476Y-83380952D01*
X123190476Y-83761904D01*
X123238095Y-83857142D01*
X123285714Y-83904761D01*
X123380952Y-83952380D01*
X123571428Y-83952380D01*
X123666666Y-83904761D01*
X123714285Y-83857142D01*
X123761904Y-83761904D01*
X123761904Y-83523809D01*
X123714285Y-83428571D01*
X123666666Y-83380952D01*
X123571428Y-83333333D01*
X123380952Y-83333333D01*
X123285714Y-83380952D01*
X123238095Y-83428571D01*
X123190476Y-83523809D01*
%TO.C,R10*%
X86844642Y-85772380D02*
X86511309Y-85296190D01*
X86273214Y-85772380D02*
X86273214Y-84772380D01*
X86654166Y-84772380D01*
X86749404Y-84820000D01*
X86797023Y-84867619D01*
X86844642Y-84962857D01*
X86844642Y-85105714D01*
X86797023Y-85200952D01*
X86749404Y-85248571D01*
X86654166Y-85296190D01*
X86273214Y-85296190D01*
X87797023Y-85772380D02*
X87225595Y-85772380D01*
X87511309Y-85772380D02*
X87511309Y-84772380D01*
X87416071Y-84915238D01*
X87320833Y-85010476D01*
X87225595Y-85058095D01*
X88416071Y-84772380D02*
X88511309Y-84772380D01*
X88606547Y-84820000D01*
X88654166Y-84867619D01*
X88701785Y-84962857D01*
X88749404Y-85153333D01*
X88749404Y-85391428D01*
X88701785Y-85581904D01*
X88654166Y-85677142D01*
X88606547Y-85724761D01*
X88511309Y-85772380D01*
X88416071Y-85772380D01*
X88320833Y-85724761D01*
X88273214Y-85677142D01*
X88225595Y-85581904D01*
X88177976Y-85391428D01*
X88177976Y-85153333D01*
X88225595Y-84962857D01*
X88273214Y-84867619D01*
X88320833Y-84820000D01*
X88416071Y-84772380D01*
%TO.C,R4*%
X52333333Y-79372380D02*
X52000000Y-78896190D01*
X51761904Y-79372380D02*
X51761904Y-78372380D01*
X52142857Y-78372380D01*
X52238095Y-78420000D01*
X52285714Y-78467619D01*
X52333333Y-78562857D01*
X52333333Y-78705714D01*
X52285714Y-78800952D01*
X52238095Y-78848571D01*
X52142857Y-78896190D01*
X51761904Y-78896190D01*
X53190476Y-78705714D02*
X53190476Y-79372380D01*
X52952380Y-78324761D02*
X52714285Y-79039047D01*
X53333333Y-79039047D01*
%TO.C,D14*%
X111285714Y-83952380D02*
X111285714Y-82952380D01*
X111523809Y-82952380D01*
X111666666Y-83000000D01*
X111761904Y-83095238D01*
X111809523Y-83190476D01*
X111857142Y-83380952D01*
X111857142Y-83523809D01*
X111809523Y-83714285D01*
X111761904Y-83809523D01*
X111666666Y-83904761D01*
X111523809Y-83952380D01*
X111285714Y-83952380D01*
X112809523Y-83952380D02*
X112238095Y-83952380D01*
X112523809Y-83952380D02*
X112523809Y-82952380D01*
X112428571Y-83095238D01*
X112333333Y-83190476D01*
X112238095Y-83238095D01*
X113666666Y-83285714D02*
X113666666Y-83952380D01*
X113428571Y-82904761D02*
X113190476Y-83619047D01*
X113809523Y-83619047D01*
%TO.C,U1*%
X62000455Y-72551539D02*
X63330216Y-72551539D01*
X63486659Y-72473318D01*
X63564880Y-72395097D01*
X63643101Y-72238654D01*
X63643101Y-71925769D01*
X63564880Y-71769327D01*
X63486659Y-71691106D01*
X63330216Y-71612884D01*
X62000455Y-71612884D01*
X63643101Y-69970238D02*
X63643101Y-70908893D01*
X63643101Y-70439566D02*
X62000455Y-70439566D01*
X62235119Y-70596008D01*
X62391561Y-70752451D01*
X62469783Y-70908893D01*
%TO.C,R7*%
X72333333Y-79372380D02*
X72000000Y-78896190D01*
X71761904Y-79372380D02*
X71761904Y-78372380D01*
X72142857Y-78372380D01*
X72238095Y-78420000D01*
X72285714Y-78467619D01*
X72333333Y-78562857D01*
X72333333Y-78705714D01*
X72285714Y-78800952D01*
X72238095Y-78848571D01*
X72142857Y-78896190D01*
X71761904Y-78896190D01*
X72666666Y-78372380D02*
X73333333Y-78372380D01*
X72904761Y-79372380D01*
%TO.C,R17*%
X126857142Y-85772380D02*
X126523809Y-85296190D01*
X126285714Y-85772380D02*
X126285714Y-84772380D01*
X126666666Y-84772380D01*
X126761904Y-84820000D01*
X126809523Y-84867619D01*
X126857142Y-84962857D01*
X126857142Y-85105714D01*
X126809523Y-85200952D01*
X126761904Y-85248571D01*
X126666666Y-85296190D01*
X126285714Y-85296190D01*
X127809523Y-85772380D02*
X127238095Y-85772380D01*
X127523809Y-85772380D02*
X127523809Y-84772380D01*
X127428571Y-84915238D01*
X127333333Y-85010476D01*
X127238095Y-85058095D01*
X128142857Y-84772380D02*
X128809523Y-84772380D01*
X128380952Y-85772380D01*
%TO.C,R15*%
X116857142Y-85772380D02*
X116523809Y-85296190D01*
X116285714Y-85772380D02*
X116285714Y-84772380D01*
X116666666Y-84772380D01*
X116761904Y-84820000D01*
X116809523Y-84867619D01*
X116857142Y-84962857D01*
X116857142Y-85105714D01*
X116809523Y-85200952D01*
X116761904Y-85248571D01*
X116666666Y-85296190D01*
X116285714Y-85296190D01*
X117809523Y-85772380D02*
X117238095Y-85772380D01*
X117523809Y-85772380D02*
X117523809Y-84772380D01*
X117428571Y-84915238D01*
X117333333Y-85010476D01*
X117238095Y-85058095D01*
X118714285Y-84772380D02*
X118238095Y-84772380D01*
X118190476Y-85248571D01*
X118238095Y-85200952D01*
X118333333Y-85153333D01*
X118571428Y-85153333D01*
X118666666Y-85200952D01*
X118714285Y-85248571D01*
X118761904Y-85343809D01*
X118761904Y-85581904D01*
X118714285Y-85677142D01*
X118666666Y-85724761D01*
X118571428Y-85772380D01*
X118333333Y-85772380D01*
X118238095Y-85724761D01*
X118190476Y-85677142D01*
%TO.C,D1*%
X36761904Y-90452380D02*
X36761904Y-89452380D01*
X37000000Y-89452380D01*
X37142857Y-89500000D01*
X37238095Y-89595238D01*
X37285714Y-89690476D01*
X37333333Y-89880952D01*
X37333333Y-90023809D01*
X37285714Y-90214285D01*
X37238095Y-90309523D01*
X37142857Y-90404761D01*
X37000000Y-90452380D01*
X36761904Y-90452380D01*
X38285714Y-90452380D02*
X37714285Y-90452380D01*
X38000000Y-90452380D02*
X38000000Y-89452380D01*
X37904761Y-89595238D01*
X37809523Y-89690476D01*
X37714285Y-89738095D01*
%TO.C,C4*%
X47833333Y-65427142D02*
X47785714Y-65474761D01*
X47642857Y-65522380D01*
X47547619Y-65522380D01*
X47404761Y-65474761D01*
X47309523Y-65379523D01*
X47261904Y-65284285D01*
X47214285Y-65093809D01*
X47214285Y-64950952D01*
X47261904Y-64760476D01*
X47309523Y-64665238D01*
X47404761Y-64570000D01*
X47547619Y-64522380D01*
X47642857Y-64522380D01*
X47785714Y-64570000D01*
X47833333Y-64617619D01*
X48690476Y-64855714D02*
X48690476Y-65522380D01*
X48452380Y-64474761D02*
X48214285Y-65189047D01*
X48833333Y-65189047D01*
%TO.C,R12*%
X96857142Y-85822380D02*
X96523809Y-85346190D01*
X96285714Y-85822380D02*
X96285714Y-84822380D01*
X96666666Y-84822380D01*
X96761904Y-84870000D01*
X96809523Y-84917619D01*
X96857142Y-85012857D01*
X96857142Y-85155714D01*
X96809523Y-85250952D01*
X96761904Y-85298571D01*
X96666666Y-85346190D01*
X96285714Y-85346190D01*
X97809523Y-85822380D02*
X97238095Y-85822380D01*
X97523809Y-85822380D02*
X97523809Y-84822380D01*
X97428571Y-84965238D01*
X97333333Y-85060476D01*
X97238095Y-85108095D01*
X98190476Y-84917619D02*
X98238095Y-84870000D01*
X98333333Y-84822380D01*
X98571428Y-84822380D01*
X98666666Y-84870000D01*
X98714285Y-84917619D01*
X98761904Y-85012857D01*
X98761904Y-85108095D01*
X98714285Y-85250952D01*
X98142857Y-85822380D01*
X98761904Y-85822380D01*
%TO.C,D4*%
X51753228Y-84122862D02*
X51753228Y-83122862D01*
X51991324Y-83122862D01*
X52134181Y-83170482D01*
X52229419Y-83265720D01*
X52277038Y-83360958D01*
X52324657Y-83551434D01*
X52324657Y-83694291D01*
X52277038Y-83884767D01*
X52229419Y-83980005D01*
X52134181Y-84075243D01*
X51991324Y-84122862D01*
X51753228Y-84122862D01*
X53181800Y-83456196D02*
X53181800Y-84122862D01*
X52943704Y-83075243D02*
X52705609Y-83789529D01*
X53324657Y-83789529D01*
%TO.C,R18*%
X136857142Y-85772380D02*
X136523809Y-85296190D01*
X136285714Y-85772380D02*
X136285714Y-84772380D01*
X136666666Y-84772380D01*
X136761904Y-84820000D01*
X136809523Y-84867619D01*
X136857142Y-84962857D01*
X136857142Y-85105714D01*
X136809523Y-85200952D01*
X136761904Y-85248571D01*
X136666666Y-85296190D01*
X136285714Y-85296190D01*
X137809523Y-85772380D02*
X137238095Y-85772380D01*
X137523809Y-85772380D02*
X137523809Y-84772380D01*
X137428571Y-84915238D01*
X137333333Y-85010476D01*
X137238095Y-85058095D01*
X138380952Y-85200952D02*
X138285714Y-85153333D01*
X138238095Y-85105714D01*
X138190476Y-85010476D01*
X138190476Y-84962857D01*
X138238095Y-84867619D01*
X138285714Y-84820000D01*
X138380952Y-84772380D01*
X138571428Y-84772380D01*
X138666666Y-84820000D01*
X138714285Y-84867619D01*
X138761904Y-84962857D01*
X138761904Y-85010476D01*
X138714285Y-85105714D01*
X138666666Y-85153333D01*
X138571428Y-85200952D01*
X138380952Y-85200952D01*
X138285714Y-85248571D01*
X138238095Y-85296190D01*
X138190476Y-85391428D01*
X138190476Y-85581904D01*
X138238095Y-85677142D01*
X138285714Y-85724761D01*
X138380952Y-85772380D01*
X138571428Y-85772380D01*
X138666666Y-85724761D01*
X138714285Y-85677142D01*
X138761904Y-85581904D01*
X138761904Y-85391428D01*
X138714285Y-85296190D01*
X138666666Y-85248571D01*
X138571428Y-85200952D01*
%TO.C,C1*%
X54833333Y-70427142D02*
X54785714Y-70474761D01*
X54642857Y-70522380D01*
X54547619Y-70522380D01*
X54404761Y-70474761D01*
X54309523Y-70379523D01*
X54261904Y-70284285D01*
X54214285Y-70093809D01*
X54214285Y-69950952D01*
X54261904Y-69760476D01*
X54309523Y-69665238D01*
X54404761Y-69570000D01*
X54547619Y-69522380D01*
X54642857Y-69522380D01*
X54785714Y-69570000D01*
X54833333Y-69617619D01*
X55785714Y-70522380D02*
X55214285Y-70522380D01*
X55500000Y-70522380D02*
X55500000Y-69522380D01*
X55404761Y-69665238D01*
X55309523Y-69760476D01*
X55214285Y-69808095D01*
%TO.C,D3*%
X46761904Y-90452380D02*
X46761904Y-89452380D01*
X47000000Y-89452380D01*
X47142857Y-89500000D01*
X47238095Y-89595238D01*
X47285714Y-89690476D01*
X47333333Y-89880952D01*
X47333333Y-90023809D01*
X47285714Y-90214285D01*
X47238095Y-90309523D01*
X47142857Y-90404761D01*
X47000000Y-90452380D01*
X46761904Y-90452380D01*
X47666666Y-89452380D02*
X48285714Y-89452380D01*
X47952380Y-89833333D01*
X48095238Y-89833333D01*
X48190476Y-89880952D01*
X48238095Y-89928571D01*
X48285714Y-90023809D01*
X48285714Y-90261904D01*
X48238095Y-90357142D01*
X48190476Y-90404761D01*
X48095238Y-90452380D01*
X47809523Y-90452380D01*
X47714285Y-90404761D01*
X47666666Y-90357142D01*
%TO.C,D8*%
X76761904Y-90452380D02*
X76761904Y-89452380D01*
X77000000Y-89452380D01*
X77142857Y-89500000D01*
X77238095Y-89595238D01*
X77285714Y-89690476D01*
X77333333Y-89880952D01*
X77333333Y-90023809D01*
X77285714Y-90214285D01*
X77238095Y-90309523D01*
X77142857Y-90404761D01*
X77000000Y-90452380D01*
X76761904Y-90452380D01*
X77904761Y-89880952D02*
X77809523Y-89833333D01*
X77761904Y-89785714D01*
X77714285Y-89690476D01*
X77714285Y-89642857D01*
X77761904Y-89547619D01*
X77809523Y-89500000D01*
X77904761Y-89452380D01*
X78095238Y-89452380D01*
X78190476Y-89500000D01*
X78238095Y-89547619D01*
X78285714Y-89642857D01*
X78285714Y-89690476D01*
X78238095Y-89785714D01*
X78190476Y-89833333D01*
X78095238Y-89880952D01*
X77904761Y-89880952D01*
X77809523Y-89928571D01*
X77761904Y-89976190D01*
X77714285Y-90071428D01*
X77714285Y-90261904D01*
X77761904Y-90357142D01*
X77809523Y-90404761D01*
X77904761Y-90452380D01*
X78095238Y-90452380D01*
X78190476Y-90404761D01*
X78238095Y-90357142D01*
X78285714Y-90261904D01*
X78285714Y-90071428D01*
X78238095Y-89976190D01*
X78190476Y-89928571D01*
X78095238Y-89880952D01*
%TO.C,BZ1*%
X32428571Y-61380952D02*
X32476190Y-61238095D01*
X32523809Y-61190476D01*
X32619047Y-61142857D01*
X32761904Y-61142857D01*
X32857142Y-61190476D01*
X32904761Y-61238095D01*
X32952380Y-61333333D01*
X32952380Y-61714285D01*
X31952380Y-61714285D01*
X31952380Y-61380952D01*
X32000000Y-61285714D01*
X32047619Y-61238095D01*
X32142857Y-61190476D01*
X32238095Y-61190476D01*
X32333333Y-61238095D01*
X32380952Y-61285714D01*
X32428571Y-61380952D01*
X32428571Y-61714285D01*
X31952380Y-60809523D02*
X31952380Y-60142857D01*
X32952380Y-60809523D01*
X32952380Y-60142857D01*
X32952380Y-59238095D02*
X32952380Y-59809523D01*
X32952380Y-59523809D02*
X31952380Y-59523809D01*
X32095238Y-59619047D01*
X32190476Y-59714285D01*
X32238095Y-59809523D01*
%TO.C,R1*%
X37333333Y-85772380D02*
X37000000Y-85296190D01*
X36761904Y-85772380D02*
X36761904Y-84772380D01*
X37142857Y-84772380D01*
X37238095Y-84820000D01*
X37285714Y-84867619D01*
X37333333Y-84962857D01*
X37333333Y-85105714D01*
X37285714Y-85200952D01*
X37238095Y-85248571D01*
X37142857Y-85296190D01*
X36761904Y-85296190D01*
X38285714Y-85772380D02*
X37714285Y-85772380D01*
X38000000Y-85772380D02*
X38000000Y-84772380D01*
X37904761Y-84915238D01*
X37809523Y-85010476D01*
X37714285Y-85058095D01*
%TO.C,D7*%
X71761904Y-83952380D02*
X71761904Y-82952380D01*
X72000000Y-82952380D01*
X72142857Y-83000000D01*
X72238095Y-83095238D01*
X72285714Y-83190476D01*
X72333333Y-83380952D01*
X72333333Y-83523809D01*
X72285714Y-83714285D01*
X72238095Y-83809523D01*
X72142857Y-83904761D01*
X72000000Y-83952380D01*
X71761904Y-83952380D01*
X72666666Y-82952380D02*
X73333333Y-82952380D01*
X72904761Y-83952380D01*
%TO.C,U3*%
X101600455Y-72801539D02*
X102930216Y-72801539D01*
X103086659Y-72723318D01*
X103164880Y-72645097D01*
X103243101Y-72488654D01*
X103243101Y-72175769D01*
X103164880Y-72019327D01*
X103086659Y-71941106D01*
X102930216Y-71862884D01*
X101600455Y-71862884D01*
X101600455Y-71237115D02*
X101600455Y-70220238D01*
X102226225Y-70767787D01*
X102226225Y-70533123D01*
X102304446Y-70376681D01*
X102382668Y-70298460D01*
X102539110Y-70220238D01*
X102930216Y-70220238D01*
X103086659Y-70298460D01*
X103164880Y-70376681D01*
X103243101Y-70533123D01*
X103243101Y-71002451D01*
X103164880Y-71158893D01*
X103086659Y-71237115D01*
%TO.C,U4*%
X147000455Y-72601539D02*
X148330216Y-72601539D01*
X148486659Y-72523318D01*
X148564880Y-72445097D01*
X148643101Y-72288654D01*
X148643101Y-71975769D01*
X148564880Y-71819327D01*
X148486659Y-71741106D01*
X148330216Y-71662884D01*
X147000455Y-71662884D01*
X147548004Y-70176681D02*
X148643101Y-70176681D01*
X146922234Y-70567787D02*
X148095553Y-70958893D01*
X148095553Y-69942017D01*
%TO.C,C6*%
X139833333Y-70427142D02*
X139785714Y-70474761D01*
X139642857Y-70522380D01*
X139547619Y-70522380D01*
X139404761Y-70474761D01*
X139309523Y-70379523D01*
X139261904Y-70284285D01*
X139214285Y-70093809D01*
X139214285Y-69950952D01*
X139261904Y-69760476D01*
X139309523Y-69665238D01*
X139404761Y-69570000D01*
X139547619Y-69522380D01*
X139642857Y-69522380D01*
X139785714Y-69570000D01*
X139833333Y-69617619D01*
X140690476Y-69522380D02*
X140500000Y-69522380D01*
X140404761Y-69570000D01*
X140357142Y-69617619D01*
X140261904Y-69760476D01*
X140214285Y-69950952D01*
X140214285Y-70331904D01*
X140261904Y-70427142D01*
X140309523Y-70474761D01*
X140404761Y-70522380D01*
X140595238Y-70522380D01*
X140690476Y-70474761D01*
X140738095Y-70427142D01*
X140785714Y-70331904D01*
X140785714Y-70093809D01*
X140738095Y-69998571D01*
X140690476Y-69950952D01*
X140595238Y-69903333D01*
X140404761Y-69903333D01*
X140309523Y-69950952D01*
X140261904Y-69998571D01*
X140214285Y-70093809D01*
%TO.C,R8*%
X77333333Y-85772380D02*
X77000000Y-85296190D01*
X76761904Y-85772380D02*
X76761904Y-84772380D01*
X77142857Y-84772380D01*
X77238095Y-84820000D01*
X77285714Y-84867619D01*
X77333333Y-84962857D01*
X77333333Y-85105714D01*
X77285714Y-85200952D01*
X77238095Y-85248571D01*
X77142857Y-85296190D01*
X76761904Y-85296190D01*
X77904761Y-85200952D02*
X77809523Y-85153333D01*
X77761904Y-85105714D01*
X77714285Y-85010476D01*
X77714285Y-84962857D01*
X77761904Y-84867619D01*
X77809523Y-84820000D01*
X77904761Y-84772380D01*
X78095238Y-84772380D01*
X78190476Y-84820000D01*
X78238095Y-84867619D01*
X78285714Y-84962857D01*
X78285714Y-85010476D01*
X78238095Y-85105714D01*
X78190476Y-85153333D01*
X78095238Y-85200952D01*
X77904761Y-85200952D01*
X77809523Y-85248571D01*
X77761904Y-85296190D01*
X77714285Y-85391428D01*
X77714285Y-85581904D01*
X77761904Y-85677142D01*
X77809523Y-85724761D01*
X77904761Y-85772380D01*
X78095238Y-85772380D01*
X78190476Y-85724761D01*
X78238095Y-85677142D01*
X78285714Y-85581904D01*
X78285714Y-85391428D01*
X78238095Y-85296190D01*
X78190476Y-85248571D01*
X78095238Y-85200952D01*
%TO.C,D12*%
X96285714Y-90452380D02*
X96285714Y-89452380D01*
X96523809Y-89452380D01*
X96666666Y-89500000D01*
X96761904Y-89595238D01*
X96809523Y-89690476D01*
X96857142Y-89880952D01*
X96857142Y-90023809D01*
X96809523Y-90214285D01*
X96761904Y-90309523D01*
X96666666Y-90404761D01*
X96523809Y-90452380D01*
X96285714Y-90452380D01*
X97809523Y-90452380D02*
X97238095Y-90452380D01*
X97523809Y-90452380D02*
X97523809Y-89452380D01*
X97428571Y-89595238D01*
X97333333Y-89690476D01*
X97238095Y-89738095D01*
X98190476Y-89547619D02*
X98238095Y-89500000D01*
X98333333Y-89452380D01*
X98571428Y-89452380D01*
X98666666Y-89500000D01*
X98714285Y-89547619D01*
X98761904Y-89642857D01*
X98761904Y-89738095D01*
X98714285Y-89880952D01*
X98142857Y-90452380D01*
X98761904Y-90452380D01*
%TO.C,R14*%
X111857142Y-79372380D02*
X111523809Y-78896190D01*
X111285714Y-79372380D02*
X111285714Y-78372380D01*
X111666666Y-78372380D01*
X111761904Y-78420000D01*
X111809523Y-78467619D01*
X111857142Y-78562857D01*
X111857142Y-78705714D01*
X111809523Y-78800952D01*
X111761904Y-78848571D01*
X111666666Y-78896190D01*
X111285714Y-78896190D01*
X112809523Y-79372380D02*
X112238095Y-79372380D01*
X112523809Y-79372380D02*
X112523809Y-78372380D01*
X112428571Y-78515238D01*
X112333333Y-78610476D01*
X112238095Y-78658095D01*
X113666666Y-78705714D02*
X113666666Y-79372380D01*
X113428571Y-78324761D02*
X113190476Y-79039047D01*
X113809523Y-79039047D01*
D14*
%TO.C,D5*%
X58300000Y-87665000D02*
X56015000Y-87665000D01*
X56015000Y-87665000D02*
X56015000Y-89135000D01*
X56015000Y-89135000D02*
X58300000Y-89135000D01*
%TO.C,R23*%
X162262742Y-80872500D02*
X162737258Y-80872500D01*
X162262742Y-79827500D02*
X162737258Y-79827500D01*
%TO.C,R13*%
X107262742Y-86327500D02*
X107737258Y-86327500D01*
X107262742Y-87372500D02*
X107737258Y-87372500D01*
%TO.C,D18*%
X138300000Y-87715000D02*
X136015000Y-87715000D01*
X136015000Y-87715000D02*
X136015000Y-89185000D01*
X136015000Y-89185000D02*
X138300000Y-89185000D01*
%TO.C,D21*%
X153300000Y-81315000D02*
X151015000Y-81315000D01*
X151015000Y-81315000D02*
X151015000Y-82785000D01*
X151015000Y-82785000D02*
X153300000Y-82785000D01*
%TO.C,R22*%
X157262742Y-86227500D02*
X157737258Y-86227500D01*
X157262742Y-87272500D02*
X157737258Y-87272500D01*
%TO.C,R9*%
X82262742Y-79827500D02*
X82737258Y-79827500D01*
X82262742Y-80872500D02*
X82737258Y-80872500D01*
%TO.C,D11*%
X91015000Y-81315000D02*
X91015000Y-82785000D01*
X91015000Y-82785000D02*
X93300000Y-82785000D01*
X93300000Y-81315000D02*
X91015000Y-81315000D01*
%TO.C,D17*%
X126015000Y-89185000D02*
X128300000Y-89185000D01*
X126015000Y-87715000D02*
X126015000Y-89185000D01*
X128300000Y-87715000D02*
X126015000Y-87715000D01*
%TO.C,TP3*%
X36510000Y-45720000D02*
G75*
G03*
X36510000Y-45720000I-950000J0D01*
G01*
%TO.C,TP6*%
X33970000Y-45720000D02*
G75*
G03*
X33970000Y-45720000I-950000J0D01*
G01*
%TO.C,D24*%
X166015000Y-89185000D02*
X168300000Y-89185000D01*
X166015000Y-87715000D02*
X166015000Y-89185000D01*
X168300000Y-87715000D02*
X166015000Y-87715000D01*
%TO.C,R19*%
X142262742Y-80872500D02*
X142737258Y-80872500D01*
X142262742Y-79827500D02*
X142737258Y-79827500D01*
%TO.C,D20*%
X146015000Y-89185000D02*
X148300000Y-89185000D01*
X146015000Y-87715000D02*
X146015000Y-89185000D01*
X148300000Y-87715000D02*
X146015000Y-87715000D01*
%TO.C,R11*%
X92262742Y-80872500D02*
X92737258Y-80872500D01*
X92262742Y-79827500D02*
X92737258Y-79827500D01*
%TO.C,D19*%
X141015000Y-82785000D02*
X143300000Y-82785000D01*
X141015000Y-81315000D02*
X141015000Y-82785000D01*
X143300000Y-81315000D02*
X141015000Y-81315000D01*
%TO.C,U2*%
X48890000Y-56840000D02*
X47600000Y-56840000D01*
X48890000Y-63610000D02*
X48890000Y-63160000D01*
X49340000Y-56390000D02*
X48890000Y-56390000D01*
X49340000Y-63610000D02*
X48890000Y-63610000D01*
X56110000Y-56390000D02*
X56110000Y-56840000D01*
X55660000Y-63610000D02*
X56110000Y-63610000D01*
X56110000Y-63610000D02*
X56110000Y-63160000D01*
X55660000Y-56390000D02*
X56110000Y-56390000D01*
X48890000Y-56390000D02*
X48890000Y-56840000D01*
%TO.C,R24*%
X167262742Y-87272500D02*
X167737258Y-87272500D01*
X167262742Y-86227500D02*
X167737258Y-86227500D01*
%TO.C,TP1*%
X53700000Y-50000000D02*
G75*
G03*
X53700000Y-50000000I-1200000J0D01*
G01*
%TO.C,SW2*%
X91290000Y-37710000D02*
X97710000Y-37710000D01*
X97710000Y-37710000D02*
X97710000Y-37430000D01*
X91290000Y-31290000D02*
X91290000Y-31700000D01*
X97710000Y-31700000D02*
X97710000Y-31290000D01*
X91290000Y-37300000D02*
X91290000Y-37710000D01*
X91290000Y-33300000D02*
X91290000Y-35700000D01*
X97710000Y-31290000D02*
X91290000Y-31290000D01*
X97710000Y-35700000D02*
X97710000Y-33300000D01*
%TO.C,C3*%
X43359420Y-56010000D02*
X43640580Y-56010000D01*
X43359420Y-54990000D02*
X43640580Y-54990000D01*
%TO.C,D23*%
X163300000Y-81315000D02*
X161015000Y-81315000D01*
X161015000Y-81315000D02*
X161015000Y-82785000D01*
X161015000Y-82785000D02*
X163300000Y-82785000D01*
%TO.C,R25*%
X174522500Y-41737258D02*
X174522500Y-41262742D01*
X173477500Y-41737258D02*
X173477500Y-41262742D01*
%TO.C,R21*%
X152262742Y-80872500D02*
X152737258Y-80872500D01*
X152262742Y-79827500D02*
X152737258Y-79827500D01*
%TO.C,C2*%
X60359420Y-56010000D02*
X60640580Y-56010000D01*
X60359420Y-54990000D02*
X60640580Y-54990000D01*
%TO.C,R5*%
X57262742Y-87272500D02*
X57737258Y-87272500D01*
X57262742Y-86227500D02*
X57737258Y-86227500D01*
%TO.C,C5*%
X94359420Y-72010000D02*
X94640580Y-72010000D01*
X94359420Y-70990000D02*
X94640580Y-70990000D01*
%TO.C,TP4*%
X33970000Y-48260000D02*
G75*
G03*
X33970000Y-48260000I-950000J0D01*
G01*
%TO.C,D2*%
X41015000Y-81315000D02*
X41015000Y-82785000D01*
X43300000Y-81315000D02*
X41015000Y-81315000D01*
X41015000Y-82785000D02*
X43300000Y-82785000D01*
%TO.C,SW1*%
X26700000Y-38250000D02*
X26700000Y-38250000D01*
X28100000Y-38350000D02*
X28100000Y-36650000D01*
X31900000Y-38050000D02*
X31900000Y-36950000D01*
X26200000Y-38250000D02*
X26700000Y-38250000D01*
X31900000Y-31650000D02*
X31900000Y-33050000D01*
X27500000Y-34250000D02*
X27500000Y-34250000D01*
X26200000Y-36650000D02*
X26200000Y-35850000D01*
X26200000Y-37750000D02*
X26200000Y-37750000D01*
X28100000Y-33350000D02*
X28100000Y-31650000D01*
X26200000Y-37450000D02*
X26200000Y-36950000D01*
X27000000Y-38250000D02*
X27500000Y-38250000D01*
X26200000Y-36950000D02*
X26200000Y-36950000D01*
X26200000Y-34250000D02*
X26700000Y-34250000D01*
X27500000Y-38250000D02*
X27500000Y-38250000D01*
X27000000Y-34250000D02*
X27500000Y-34250000D01*
X26200000Y-34750000D02*
X26200000Y-34750000D01*
X28100000Y-39150000D02*
X27800000Y-39150000D01*
X26200000Y-35050000D02*
X26200000Y-35550000D01*
X27800000Y-38350000D02*
X28100000Y-38350000D01*
X28100000Y-35850000D02*
X28100000Y-34150000D01*
X31900000Y-36950000D02*
X31900000Y-36950000D01*
X26200000Y-34250000D02*
X26200000Y-34750000D01*
X28100000Y-31650000D02*
X31900000Y-31650000D01*
X31900000Y-35550000D02*
X31900000Y-34450000D01*
X27800000Y-35850000D02*
X28100000Y-35850000D01*
X28100000Y-31650000D02*
X28100000Y-31650000D01*
X28100000Y-34150000D02*
X27800000Y-34150000D01*
X31900000Y-39450000D02*
X31900000Y-40850000D01*
X31900000Y-40850000D02*
X28100000Y-40850000D01*
X27800000Y-39150000D02*
X27800000Y-38350000D01*
X26200000Y-38250000D02*
X26200000Y-37750000D01*
X27800000Y-33350000D02*
X28100000Y-33350000D01*
X26200000Y-35550000D02*
X26200000Y-35550000D01*
X26700000Y-34250000D02*
X26700000Y-34250000D01*
X28100000Y-40850000D02*
X28100000Y-39150000D01*
X26200000Y-35850000D02*
X26200000Y-35850000D01*
X28100000Y-36650000D02*
X27800000Y-36650000D01*
X27800000Y-36650000D02*
X27800000Y-35850000D01*
X31900000Y-34450000D02*
X31900000Y-34450000D01*
X27800000Y-34150000D02*
X27800000Y-33350000D01*
%TO.C,D9*%
X81015000Y-81315000D02*
X81015000Y-82785000D01*
X81015000Y-82785000D02*
X83300000Y-82785000D01*
X83300000Y-81315000D02*
X81015000Y-81315000D01*
%TO.C,TP7*%
X36510000Y-48260000D02*
G75*
G03*
X36510000Y-48260000I-950000J0D01*
G01*
%TO.C,D10*%
X86015000Y-87715000D02*
X86015000Y-89185000D01*
X88300000Y-87715000D02*
X86015000Y-87715000D01*
X86015000Y-89185000D02*
X88300000Y-89185000D01*
%TO.C,R20*%
X147262742Y-86227500D02*
X147737258Y-86227500D01*
X147262742Y-87272500D02*
X147737258Y-87272500D01*
%TO.C,R16*%
X122262742Y-80872500D02*
X122737258Y-80872500D01*
X122262742Y-79827500D02*
X122737258Y-79827500D01*
%TO.C,D22*%
X156015000Y-89185000D02*
X158300000Y-89185000D01*
X158300000Y-87715000D02*
X156015000Y-87715000D01*
X156015000Y-87715000D02*
X156015000Y-89185000D01*
%TO.C,R6*%
X67262742Y-86227500D02*
X67737258Y-86227500D01*
X67262742Y-87272500D02*
X67737258Y-87272500D01*
%TO.C,D6*%
X68300000Y-87665000D02*
X66015000Y-87665000D01*
X66015000Y-89135000D02*
X68300000Y-89135000D01*
X66015000Y-87665000D02*
X66015000Y-89135000D01*
%TO.C,R3*%
X47262742Y-86227500D02*
X47737258Y-86227500D01*
X47262742Y-87272500D02*
X47737258Y-87272500D01*
%TO.C,D15*%
X116015000Y-89185000D02*
X118300000Y-89185000D01*
X118300000Y-87715000D02*
X116015000Y-87715000D01*
X116015000Y-87715000D02*
X116015000Y-89185000D01*
%TO.C,D13*%
X108300000Y-87815000D02*
X106015000Y-87815000D01*
X106015000Y-89285000D02*
X108300000Y-89285000D01*
X106015000Y-87815000D02*
X106015000Y-89285000D01*
%TO.C,R2*%
X42262742Y-80872500D02*
X42737258Y-80872500D01*
X42262742Y-79827500D02*
X42737258Y-79827500D01*
%TO.C,D16*%
X121015000Y-81315000D02*
X121015000Y-82785000D01*
X123300000Y-81315000D02*
X121015000Y-81315000D01*
X121015000Y-82785000D02*
X123300000Y-82785000D01*
%TO.C,R10*%
X87250242Y-86227500D02*
X87724758Y-86227500D01*
X87250242Y-87272500D02*
X87724758Y-87272500D01*
%TO.C,R4*%
X52262742Y-80872500D02*
X52737258Y-80872500D01*
X52262742Y-79827500D02*
X52737258Y-79827500D01*
%TO.C,D14*%
X111015000Y-82785000D02*
X113300000Y-82785000D01*
X111015000Y-81315000D02*
X111015000Y-82785000D01*
X113300000Y-81315000D02*
X111015000Y-81315000D01*
D15*
%TO.C,U1*%
X67903800Y-73074800D02*
X67903800Y-69925200D01*
X57896200Y-69925200D02*
X57896200Y-71195200D01*
X57896200Y-71195200D02*
X57896200Y-71804800D01*
X57896200Y-71804800D02*
X57896200Y-73074800D01*
X57896200Y-71804800D02*
G75*
G03*
X57896200Y-71195200I0J304800D01*
G01*
D14*
%TO.C,R7*%
X72262742Y-79827500D02*
X72737258Y-79827500D01*
X72262742Y-80872500D02*
X72737258Y-80872500D01*
%TO.C,R17*%
X127262742Y-86227500D02*
X127737258Y-86227500D01*
X127262742Y-87272500D02*
X127737258Y-87272500D01*
%TO.C,R15*%
X117262742Y-86227500D02*
X117737258Y-86227500D01*
X117262742Y-87272500D02*
X117737258Y-87272500D01*
%TO.C,D1*%
X36015000Y-87665000D02*
X36015000Y-89135000D01*
X38300000Y-87665000D02*
X36015000Y-87665000D01*
X36015000Y-89135000D02*
X38300000Y-89135000D01*
%TO.C,C4*%
X47859420Y-67010000D02*
X48140580Y-67010000D01*
X47859420Y-65990000D02*
X48140580Y-65990000D01*
%TO.C,R12*%
X97262742Y-87322500D02*
X97737258Y-87322500D01*
X97262742Y-86277500D02*
X97737258Y-86277500D01*
%TO.C,D4*%
X51015000Y-82785000D02*
X53300000Y-82785000D01*
X51015000Y-81315000D02*
X51015000Y-82785000D01*
X53300000Y-81315000D02*
X51015000Y-81315000D01*
%TO.C,R18*%
X137262742Y-86227500D02*
X137737258Y-86227500D01*
X137262742Y-87272500D02*
X137737258Y-87272500D01*
%TO.C,TP2*%
X36510000Y-43180000D02*
G75*
G03*
X36510000Y-43180000I-950000J0D01*
G01*
%TO.C,C1*%
X54859420Y-70990000D02*
X55140580Y-70990000D01*
X54859420Y-72010000D02*
X55140580Y-72010000D01*
%TO.C,D3*%
X48300000Y-87665000D02*
X46015000Y-87665000D01*
X46015000Y-87665000D02*
X46015000Y-89135000D01*
X46015000Y-89135000D02*
X48300000Y-89135000D01*
%TO.C,D8*%
X76015000Y-89135000D02*
X78300000Y-89135000D01*
X76015000Y-87665000D02*
X76015000Y-89135000D01*
X78300000Y-87665000D02*
X76015000Y-87665000D01*
%TO.C,BZ1*%
X37000000Y-55000000D02*
X28000000Y-55000000D01*
X28000000Y-55000000D02*
X28000000Y-66000000D01*
X28000000Y-66000000D02*
X37000000Y-66000000D01*
X37000000Y-66000000D02*
X37000000Y-55000000D01*
%TO.C,R1*%
X37262742Y-87272500D02*
X37737258Y-87272500D01*
X37262742Y-86227500D02*
X37737258Y-86227500D01*
%TO.C,TP5*%
X33970000Y-43180000D02*
G75*
G03*
X33970000Y-43180000I-950000J0D01*
G01*
%TO.C,D7*%
X73300000Y-81315000D02*
X71015000Y-81315000D01*
X71015000Y-82785000D02*
X73300000Y-82785000D01*
X71015000Y-81315000D02*
X71015000Y-82785000D01*
D15*
%TO.C,U3*%
X97496200Y-71245200D02*
X97496200Y-71854800D01*
X107503800Y-73124800D02*
X107503800Y-69975200D01*
X97496200Y-71854800D02*
X97496200Y-73124800D01*
X97496200Y-69975200D02*
X97496200Y-71245200D01*
X97496200Y-71854800D02*
G75*
G03*
X97496200Y-71245200I0J304800D01*
G01*
%TO.C,U4*%
X143096200Y-69775200D02*
X143096200Y-71045200D01*
X153103800Y-72924800D02*
X153103800Y-69775200D01*
X143096200Y-71654800D02*
X143096200Y-72924800D01*
X143096200Y-71045200D02*
X143096200Y-71654800D01*
X143096200Y-71654800D02*
G75*
G03*
X143096200Y-71045200I0J304800D01*
G01*
D14*
%TO.C,C6*%
X139859420Y-70990000D02*
X140140580Y-70990000D01*
X139859420Y-72010000D02*
X140140580Y-72010000D01*
%TO.C,R8*%
X77262742Y-87272500D02*
X77737258Y-87272500D01*
X77262742Y-86227500D02*
X77737258Y-86227500D01*
%TO.C,D12*%
X96015000Y-87765000D02*
X96015000Y-89235000D01*
X98300000Y-87765000D02*
X96015000Y-87765000D01*
X96015000Y-89235000D02*
X98300000Y-89235000D01*
%TO.C,R14*%
X112262742Y-79827500D02*
X112737258Y-79827500D01*
X112262742Y-80872500D02*
X112737258Y-80872500D01*
%TD*%
%LPC*%
%TO.C,J6*%
G36*
X150000000Y-107000000D02*
G01*
X152000000Y-107000000D01*
X152000000Y-122000000D01*
X143000000Y-122000000D01*
X143000000Y-107000000D01*
X145000000Y-107000000D01*
X147500000Y-104500000D01*
X150000000Y-107000000D01*
G37*
G36*
X157000000Y-103500000D02*
G01*
X154500000Y-106000000D01*
X150500000Y-106000000D01*
X148000000Y-103500000D01*
X148000000Y-92000000D01*
X157000000Y-92000000D01*
X157000000Y-103500000D01*
G37*
G36*
X147000000Y-103500000D02*
G01*
X144500000Y-106000000D01*
X140500000Y-106000000D01*
X138000000Y-103500000D01*
X138000000Y-92000000D01*
X147000000Y-92000000D01*
X147000000Y-103500000D01*
G37*
G36*
X160000000Y-107000000D02*
G01*
X162000000Y-107000000D01*
X162000000Y-122000000D01*
X153000000Y-122000000D01*
X153000000Y-107000000D01*
X155000000Y-107000000D01*
X157500000Y-104500000D01*
X160000000Y-107000000D01*
G37*
G36*
X172000000Y-122000000D02*
G01*
X163000000Y-122000000D01*
X163000000Y-107000000D01*
X165000000Y-107000000D01*
X168000000Y-104000000D01*
X168000000Y-96000000D01*
X172000000Y-96000000D01*
X172000000Y-122000000D01*
G37*
G36*
X137000000Y-104000000D02*
G01*
X140000000Y-107000000D01*
X142000000Y-107000000D01*
X142000000Y-122000000D01*
X133000000Y-122000000D01*
X133000000Y-96000000D01*
X137000000Y-96000000D01*
X137000000Y-104000000D01*
G37*
G36*
X167000000Y-103500000D02*
G01*
X164500000Y-106000000D01*
X160500000Y-106000000D01*
X158000000Y-103500000D01*
X158000000Y-92000000D01*
X167000000Y-92000000D01*
X167000000Y-103500000D01*
G37*
%TO.C,J5*%
G36*
X132000000Y-122000000D02*
G01*
X123000000Y-122000000D01*
X123000000Y-107000000D01*
X125000000Y-107000000D01*
X128000000Y-104000000D01*
X128000000Y-96000000D01*
X132000000Y-96000000D01*
X132000000Y-122000000D01*
G37*
G36*
X117000000Y-103500000D02*
G01*
X114500000Y-106000000D01*
X110500000Y-106000000D01*
X108000000Y-103500000D01*
X108000000Y-92000000D01*
X117000000Y-92000000D01*
X117000000Y-103500000D01*
G37*
G36*
X127000000Y-103500000D02*
G01*
X124500000Y-106000000D01*
X120500000Y-106000000D01*
X118000000Y-103500000D01*
X118000000Y-92000000D01*
X127000000Y-92000000D01*
X127000000Y-103500000D01*
G37*
G36*
X107000000Y-104000000D02*
G01*
X110000000Y-107000000D01*
X112000000Y-107000000D01*
X112000000Y-122000000D01*
X103000000Y-122000000D01*
X103000000Y-96000000D01*
X107000000Y-96000000D01*
X107000000Y-104000000D01*
G37*
G36*
X120000000Y-107000000D02*
G01*
X122000000Y-107000000D01*
X122000000Y-122000000D01*
X113000000Y-122000000D01*
X113000000Y-107000000D01*
X115000000Y-107000000D01*
X117500000Y-104500000D01*
X120000000Y-107000000D01*
G37*
%TO.C,J4*%
G36*
X90000000Y-107000000D02*
G01*
X92000000Y-107000000D01*
X92000000Y-122000000D01*
X83000000Y-122000000D01*
X83000000Y-107000000D01*
X85000000Y-107000000D01*
X87500000Y-104500000D01*
X90000000Y-107000000D01*
G37*
G36*
X87000000Y-103500000D02*
G01*
X84500000Y-106000000D01*
X80500000Y-106000000D01*
X78000000Y-103500000D01*
X78000000Y-92000000D01*
X87000000Y-92000000D01*
X87000000Y-103500000D01*
G37*
G36*
X80000000Y-107000000D02*
G01*
X82000000Y-107000000D01*
X82000000Y-122000000D01*
X73000000Y-122000000D01*
X73000000Y-107000000D01*
X75000000Y-107000000D01*
X77500000Y-104500000D01*
X80000000Y-107000000D01*
G37*
G36*
X67000000Y-104000000D02*
G01*
X70000000Y-107000000D01*
X72000000Y-107000000D01*
X72000000Y-122000000D01*
X63000000Y-122000000D01*
X63000000Y-96000000D01*
X67000000Y-96000000D01*
X67000000Y-104000000D01*
G37*
G36*
X77000000Y-103500000D02*
G01*
X74500000Y-106000000D01*
X70500000Y-106000000D01*
X68000000Y-103500000D01*
X68000000Y-92000000D01*
X77000000Y-92000000D01*
X77000000Y-103500000D01*
G37*
G36*
X102000000Y-122000000D02*
G01*
X93000000Y-122000000D01*
X93000000Y-107000000D01*
X95000000Y-107000000D01*
X98000000Y-104000000D01*
X98000000Y-96000000D01*
X102000000Y-96000000D01*
X102000000Y-122000000D01*
G37*
G36*
X97000000Y-103500000D02*
G01*
X94500000Y-106000000D01*
X90500000Y-106000000D01*
X88000000Y-103500000D01*
X88000000Y-92000000D01*
X97000000Y-92000000D01*
X97000000Y-103500000D01*
G37*
%TO.C,J3*%
G36*
X57000000Y-103500000D02*
G01*
X54500000Y-106000000D01*
X50500000Y-106000000D01*
X48000000Y-103500000D01*
X48000000Y-92000000D01*
X57000000Y-92000000D01*
X57000000Y-103500000D01*
G37*
G36*
X50000000Y-107000000D02*
G01*
X52000000Y-107000000D01*
X52000000Y-122000000D01*
X43000000Y-122000000D01*
X43000000Y-107000000D01*
X45000000Y-107000000D01*
X47500000Y-104500000D01*
X50000000Y-107000000D01*
G37*
G36*
X47000000Y-103500000D02*
G01*
X44500000Y-106000000D01*
X40500000Y-106000000D01*
X38000000Y-103500000D01*
X38000000Y-92000000D01*
X47000000Y-92000000D01*
X47000000Y-103500000D01*
G37*
G36*
X37000000Y-104000000D02*
G01*
X40000000Y-107000000D01*
X42000000Y-107000000D01*
X42000000Y-122000000D01*
X33000000Y-122000000D01*
X33000000Y-96000000D01*
X37000000Y-96000000D01*
X37000000Y-104000000D01*
G37*
G36*
X62000000Y-122000000D02*
G01*
X53000000Y-122000000D01*
X53000000Y-107000000D01*
X55000000Y-107000000D01*
X58000000Y-104000000D01*
X58000000Y-96000000D01*
X62000000Y-96000000D01*
X62000000Y-122000000D01*
G37*
%TD*%
D16*
%TO.C,D5*%
X56712500Y-88400000D03*
X58287500Y-88400000D03*
%TD*%
D17*
%TO.C,R23*%
X161675000Y-80350000D03*
X163325000Y-80350000D03*
%TD*%
%TO.C,R13*%
X106675000Y-86850000D03*
X108325000Y-86850000D03*
%TD*%
D16*
%TO.C,D18*%
X136712500Y-88450000D03*
X138287500Y-88450000D03*
%TD*%
%TO.C,D21*%
X151712500Y-82050000D03*
X153287500Y-82050000D03*
%TD*%
D17*
%TO.C,R22*%
X156675000Y-86750000D03*
X158325000Y-86750000D03*
%TD*%
%TO.C,R9*%
X81675000Y-80350000D03*
X83325000Y-80350000D03*
%TD*%
D16*
%TO.C,D11*%
X91712500Y-82050000D03*
X93287500Y-82050000D03*
%TD*%
D18*
%TO.C,BT1*%
X64000000Y-38000000D03*
X41000000Y-38000000D03*
D19*
X52500000Y-38000000D03*
%TD*%
D16*
%TO.C,D17*%
X126712500Y-88450000D03*
X128287500Y-88450000D03*
%TD*%
D20*
%TO.C,TP3*%
X35560000Y-45720000D03*
%TD*%
D21*
%TO.C,REF\u002A\u002A*%
X102500000Y-124500000D03*
%TD*%
D20*
%TO.C,TP6*%
X33020000Y-45720000D03*
%TD*%
D16*
%TO.C,D24*%
X166712500Y-88450000D03*
X168287500Y-88450000D03*
%TD*%
D17*
%TO.C,R19*%
X141675000Y-80350000D03*
X143325000Y-80350000D03*
%TD*%
D16*
%TO.C,D20*%
X146712500Y-88450000D03*
X148287500Y-88450000D03*
%TD*%
D17*
%TO.C,R11*%
X91675000Y-80350000D03*
X93325000Y-80350000D03*
%TD*%
D16*
%TO.C,D19*%
X141712500Y-82050000D03*
X143287500Y-82050000D03*
%TD*%
D22*
%TO.C,U2*%
X48337500Y-57250000D03*
X48337500Y-57750000D03*
X48337500Y-58250000D03*
X48337500Y-58750000D03*
X48337500Y-59250000D03*
X48337500Y-59750000D03*
X48337500Y-60250000D03*
X48337500Y-60750000D03*
X48337500Y-61250000D03*
X48337500Y-61750000D03*
X48337500Y-62250000D03*
X48337500Y-62750000D03*
D23*
X49750000Y-64162500D03*
X50250000Y-64162500D03*
X50750000Y-64162500D03*
X51250000Y-64162500D03*
X51750000Y-64162500D03*
X52250000Y-64162500D03*
X52750000Y-64162500D03*
X53250000Y-64162500D03*
X53750000Y-64162500D03*
X54250000Y-64162500D03*
X54750000Y-64162500D03*
X55250000Y-64162500D03*
D22*
X56662500Y-62750000D03*
X56662500Y-62250000D03*
X56662500Y-61750000D03*
X56662500Y-61250000D03*
X56662500Y-60750000D03*
X56662500Y-60250000D03*
X56662500Y-59750000D03*
X56662500Y-59250000D03*
X56662500Y-58750000D03*
X56662500Y-58250000D03*
X56662500Y-57750000D03*
X56662500Y-57250000D03*
D23*
X55250000Y-55837500D03*
X54750000Y-55837500D03*
X54250000Y-55837500D03*
X53750000Y-55837500D03*
X53250000Y-55837500D03*
X52750000Y-55837500D03*
X52250000Y-55837500D03*
X51750000Y-55837500D03*
X51250000Y-55837500D03*
X50750000Y-55837500D03*
X50250000Y-55837500D03*
X49750000Y-55837500D03*
%TD*%
D24*
%TO.C,J8*%
X174000000Y-32650000D03*
X172350000Y-31000000D03*
X172833274Y-32166726D03*
X175650000Y-31000000D03*
X175166726Y-32166726D03*
D25*
X174000000Y-31000000D03*
D24*
X174000000Y-29350000D03*
X175166726Y-29833274D03*
X172833274Y-29833274D03*
%TD*%
D17*
%TO.C,R24*%
X166675000Y-86750000D03*
X168325000Y-86750000D03*
%TD*%
D26*
%TO.C,TP1*%
X52500000Y-50000000D03*
%TD*%
D27*
%TO.C,SW2*%
X97400000Y-32600000D03*
X91600000Y-32600000D03*
X91600000Y-36400000D03*
X97400000Y-36400000D03*
%TD*%
D28*
%TO.C,C3*%
X42725000Y-55500000D03*
X44275000Y-55500000D03*
%TD*%
D16*
%TO.C,D23*%
X161712500Y-82050000D03*
X163287500Y-82050000D03*
%TD*%
D29*
%TO.C,R25*%
X174000000Y-42325000D03*
X174000000Y-40675000D03*
%TD*%
D17*
%TO.C,R21*%
X151675000Y-80350000D03*
X153325000Y-80350000D03*
%TD*%
D28*
%TO.C,C2*%
X59725000Y-55500000D03*
X61275000Y-55500000D03*
%TD*%
D17*
%TO.C,R5*%
X56675000Y-86750000D03*
X58325000Y-86750000D03*
%TD*%
D28*
%TO.C,C5*%
X93725000Y-71500000D03*
X95275000Y-71500000D03*
%TD*%
D20*
%TO.C,TP4*%
X33020000Y-48260000D03*
%TD*%
D16*
%TO.C,D2*%
X41712500Y-82050000D03*
X43287500Y-82050000D03*
%TD*%
D30*
%TO.C,J6*%
X135000000Y-97000000D03*
D31*
X142500000Y-93500000D03*
D32*
X147500000Y-107000000D03*
D31*
X152500000Y-93500000D03*
D32*
X157500000Y-107000000D03*
D31*
X162500000Y-93500000D03*
D33*
X170000000Y-97000000D03*
%TD*%
D34*
%TO.C,SW1*%
X30000000Y-39650000D03*
X30000000Y-32850000D03*
D35*
X32750000Y-33750000D03*
X32750000Y-36250000D03*
X32750000Y-38750000D03*
%TD*%
D16*
%TO.C,D9*%
X81712500Y-82050000D03*
X83287500Y-82050000D03*
%TD*%
D24*
%TO.C,J7*%
X172833274Y-35833274D03*
X172833274Y-38166726D03*
D25*
X174000000Y-37000000D03*
D24*
X175650000Y-37000000D03*
X175166726Y-38166726D03*
X174000000Y-35350000D03*
X175166726Y-35833274D03*
X174000000Y-38650000D03*
X172350000Y-37000000D03*
%TD*%
D20*
%TO.C,TP7*%
X35560000Y-48260000D03*
%TD*%
D16*
%TO.C,D10*%
X86712500Y-88450000D03*
X88287500Y-88450000D03*
%TD*%
D17*
%TO.C,R20*%
X146675000Y-86750000D03*
X148325000Y-86750000D03*
%TD*%
%TO.C,R16*%
X121675000Y-80350000D03*
X123325000Y-80350000D03*
%TD*%
D16*
%TO.C,D22*%
X156712500Y-88450000D03*
X158287500Y-88450000D03*
%TD*%
D30*
%TO.C,J5*%
X105000000Y-97000000D03*
D31*
X112500000Y-93500000D03*
D32*
X117500000Y-107000000D03*
D31*
X122500000Y-93500000D03*
D36*
X130000000Y-97500000D03*
%TD*%
D17*
%TO.C,R6*%
X66675000Y-86750000D03*
X68325000Y-86750000D03*
%TD*%
D16*
%TO.C,D6*%
X66712500Y-88400000D03*
X68287500Y-88400000D03*
%TD*%
D17*
%TO.C,R3*%
X46675000Y-86750000D03*
X48325000Y-86750000D03*
%TD*%
D16*
%TO.C,D15*%
X116712500Y-88450000D03*
X118287500Y-88450000D03*
%TD*%
%TO.C,D13*%
X106712500Y-88550000D03*
X108287500Y-88550000D03*
%TD*%
D30*
%TO.C,J4*%
X65000000Y-97000000D03*
D31*
X72500000Y-93500000D03*
D32*
X77500000Y-107000000D03*
D31*
X82500000Y-93500000D03*
D32*
X87500000Y-107000000D03*
D31*
X92500000Y-93500000D03*
D33*
X100000000Y-97000000D03*
%TD*%
D17*
%TO.C,R2*%
X41675000Y-80350000D03*
X43325000Y-80350000D03*
%TD*%
D16*
%TO.C,D16*%
X121712500Y-82050000D03*
X123287500Y-82050000D03*
%TD*%
D17*
%TO.C,R10*%
X86662500Y-86750000D03*
X88312500Y-86750000D03*
%TD*%
%TO.C,R4*%
X51675000Y-80350000D03*
X53325000Y-80350000D03*
%TD*%
D16*
%TO.C,D14*%
X111712500Y-82050000D03*
X113287500Y-82050000D03*
%TD*%
D30*
%TO.C,J3*%
X35000000Y-97000000D03*
D31*
X42500000Y-93500000D03*
D32*
X47500000Y-107000000D03*
D31*
X52500000Y-93500000D03*
D36*
X60000000Y-97500000D03*
%TD*%
D37*
%TO.C,U1*%
X58455000Y-74090800D03*
X59725000Y-74090800D03*
X60995000Y-74090800D03*
X62265000Y-74090800D03*
X63535000Y-74090800D03*
X64805000Y-74090800D03*
X66075000Y-74090800D03*
X67345000Y-74090800D03*
X67345000Y-68909200D03*
X66075000Y-68909200D03*
X64805000Y-68909200D03*
X63535000Y-68909200D03*
X62265000Y-68909200D03*
X60995000Y-68909200D03*
X59725000Y-68909200D03*
X58455000Y-68909200D03*
%TD*%
D17*
%TO.C,R7*%
X71675000Y-80350000D03*
X73325000Y-80350000D03*
%TD*%
%TO.C,R17*%
X126675000Y-86750000D03*
X128325000Y-86750000D03*
%TD*%
%TO.C,R15*%
X116675000Y-86750000D03*
X118325000Y-86750000D03*
%TD*%
D21*
%TO.C,REF\u002A\u002A*%
X30000000Y-29500000D03*
%TD*%
D16*
%TO.C,D1*%
X36712500Y-88400000D03*
X38287500Y-88400000D03*
%TD*%
D28*
%TO.C,C4*%
X47225000Y-66500000D03*
X48775000Y-66500000D03*
%TD*%
D17*
%TO.C,R12*%
X96675000Y-86800000D03*
X98325000Y-86800000D03*
%TD*%
D16*
%TO.C,D4*%
X51712500Y-82050000D03*
X53287500Y-82050000D03*
%TD*%
D17*
%TO.C,R18*%
X136675000Y-86750000D03*
X138325000Y-86750000D03*
%TD*%
D20*
%TO.C,TP2*%
X35560000Y-43180000D03*
%TD*%
D28*
%TO.C,C1*%
X54225000Y-71500000D03*
X55775000Y-71500000D03*
%TD*%
D16*
%TO.C,D3*%
X46712500Y-88400000D03*
X48287500Y-88400000D03*
%TD*%
%TO.C,D8*%
X76712500Y-88400000D03*
X78287500Y-88400000D03*
%TD*%
D38*
%TO.C,BZ1*%
X32500000Y-54000000D03*
X32500000Y-67000000D03*
%TD*%
D17*
%TO.C,R1*%
X36675000Y-86750000D03*
X38325000Y-86750000D03*
%TD*%
D20*
%TO.C,TP5*%
X33020000Y-43180000D03*
%TD*%
D21*
%TO.C,REF\u002A\u002A*%
X170000000Y-29500000D03*
%TD*%
D16*
%TO.C,D7*%
X71712500Y-82050000D03*
X73287500Y-82050000D03*
%TD*%
D37*
%TO.C,U3*%
X98055000Y-74140800D03*
X99325000Y-74140800D03*
X100595000Y-74140800D03*
X101865000Y-74140800D03*
X103135000Y-74140800D03*
X104405000Y-74140800D03*
X105675000Y-74140800D03*
X106945000Y-74140800D03*
X106945000Y-68959200D03*
X105675000Y-68959200D03*
X104405000Y-68959200D03*
X103135000Y-68959200D03*
X101865000Y-68959200D03*
X100595000Y-68959200D03*
X99325000Y-68959200D03*
X98055000Y-68959200D03*
%TD*%
%TO.C,U4*%
X143655000Y-73940800D03*
X144925000Y-73940800D03*
X146195000Y-73940800D03*
X147465000Y-73940800D03*
X148735000Y-73940800D03*
X150005000Y-73940800D03*
X151275000Y-73940800D03*
X152545000Y-73940800D03*
X152545000Y-68759200D03*
X151275000Y-68759200D03*
X150005000Y-68759200D03*
X148735000Y-68759200D03*
X147465000Y-68759200D03*
X146195000Y-68759200D03*
X144925000Y-68759200D03*
X143655000Y-68759200D03*
%TD*%
D28*
%TO.C,C6*%
X139225000Y-71500000D03*
X140775000Y-71500000D03*
%TD*%
D17*
%TO.C,R8*%
X76675000Y-86750000D03*
X78325000Y-86750000D03*
%TD*%
D16*
%TO.C,D12*%
X96712500Y-88500000D03*
X98287500Y-88500000D03*
%TD*%
D17*
%TO.C,R14*%
X111675000Y-80350000D03*
X113325000Y-80350000D03*
%TD*%
M02*
