M48
; DRILL file {KiCad (6.0.0)} date Thu Nov 24 19:04:20 2022
; FORMAT={-:-/ absolute / metric / decimal}
; #@! TF.CreationDate,2022-11-24T19:04:20+01:00
; #@! TF.GenerationSoftware,Kicad,Pcbnew,(6.0.0)
; #@! TF.FileFunction,Plated,1,2,PTH
FMAT,2
METRIC
; #@! TA.AperFunction,Plated,PTH,ViaDrill
T1C0.400
; #@! TA.AperFunction,Plated,PTH,ComponentDrill
T2C0.400
; #@! TA.AperFunction,Plated,PTH,ComponentDrill
T3C2.200
%
G90
G05
T1
X29.5Y-68.0
X32.5Y-50.0
X41.5Y-85.0
X44.0Y-44.0
X45.5Y-53.224
X47.5Y-51.276
X50.626Y-51.374
X51.5Y-57.5
X52.0Y-84.0
X52.5Y-62.5
X53.0Y-70.0
X60.0Y-61.0
X60.5Y-44.0
X63.0Y-55.5
X68.5Y-67.5
X71.0Y-76.5
X72.0Y-68.5
X77.5Y-83.0
X90.5Y-89.5
X92.5Y-39.0
X92.5Y-72.5
X111.5Y-73.0
X113.0Y-85.0
X124.5Y-90.0
X139.5Y-73.0
X141.0Y-85.5
X152.5Y-71.5
X154.5Y-85.0
X163.381Y-85.119
X173.5Y-44.5
T2
X172.35Y-31.0
X172.35Y-37.0
X172.833Y-29.833
X172.833Y-32.167
X172.833Y-35.833
X172.833Y-38.167
X174.0Y-29.35
X174.0Y-32.65
X174.0Y-35.35
X174.0Y-38.65
X175.167Y-29.833
X175.167Y-32.167
X175.167Y-35.833
X175.167Y-38.167
X175.65Y-31.0
X175.65Y-37.0
T3
X174.0Y-31.0
X174.0Y-37.0
T0
M30
